<svg xmlns="http://www.w3.org/2000/svg" width="150px" height="150px" viewBox="0 0 1500 1500" preserveAspectRatio="xMidYMid meet"><g id="layer101" fill="#00adb9" stroke="none"><path d="M317 1482 c-60 -40 -68 -64 -96 -287 -11 -88 -23 -176 -25 -195 -6 -45 -31 -137 -58 -220 -12 -36 -22 -67 -23 -70 0 -3 -24 -53 -52 -112 -28 -59 -54 -116 -58 -128 -6 -20 -3 -20 224 -20 l230 0 3 53 3 52 285 0 285 0 3 -52 3 -53 230 0 c126 0 229 2 229 5 0 3 -4 13 -9 23 -64 125 -128 287 -162 412 -22 82 -24 90 -33 170 -22 182 -38 299 -47 330 -20 74 -69 110 -151 110 -50 0 -62 -4 -93 -31 -20 -18 -41 -41 -47 -53 -6 -11 -17 -112 -24 -223 -9 -143 -17 -210 -28 -232 -67 -130 -245 -130 -312 0 -11 22 -19 89 -28 232 -7 111 -18 212 -24 223 -6 12 -27 35 -47 53 -31 27 -43 31 -93 31 -38 0 -66 -6 -85 -18z"></path><path d="M500 425 l0 -85 250 0 250 0 0 85 0 85 -250 0 -250 0 0 -85z"></path><path d="M2 338 c8 -126 81 -234 200 -299 61 -33 67 -34 173 -34 102 0 114 2 165 29 30 15 81 55 112 87 51 52 62 59 97 59 36 0 47 -7 103 -63 94 -94 138 -112 273 -112 101 0 114 2 163 28 125 66 202 177 210 304 l5 73 -231 0 -231 0 -3 -52 -3 -53 -285 0 -285 0 -3 53 -3 52 -231 0 -231 0 5 -72z"></path></g></svg>