<?xml version="1.0" encoding="UTF-8" standalone="no"?>
<!-- Created with Inkscape (http://www.inkscape.org/) -->

<svg
   xmlns:dc="http://purl.org/dc/elements/1.1/"
   xmlns:cc="http://creativecommons.org/ns#"
   xmlns:rdf="http://www.w3.org/1999/02/22-rdf-syntax-ns#"
   xmlns:svg="http://www.w3.org/2000/svg"
   xmlns="http://www.w3.org/2000/svg"
   xmlns:sodipodi="http://sodipodi.sourceforge.net/DTD/sodipodi-0.dtd"
   xmlns:inkscape="http://www.inkscape.org/namespaces/inkscape"
   width="226.31146"
   height="252"
   viewBox="0 0 59.878242 66.674998"
   version="1.1"
   id="svg233"
   inkscape:version="0.92.4 (5da689c313, 2019-01-14)"
   sodipodi:docname="BLSMD.svg">
  <defs
     id="defs227" />
  <sodipodi:namedview
     id="base"
     pagecolor="#ffffff"
     bordercolor="#666666"
     borderopacity="1.0"
     inkscape:pageopacity="0.0"
     inkscape:pageshadow="2"
     inkscape:zoom="1.979899"
     inkscape:cx="241.02227"
     inkscape:cy="133.51508"
     inkscape:document-units="mm"
     inkscape:current-layer="layer1"
     showgrid="false"
     inkscape:window-width="1920"
     inkscape:window-height="1001"
     inkscape:window-x="-9"
     inkscape:window-y="-9"
     inkscape:window-maximized="1"
     units="px"
     fit-margin-top="1"
     fit-margin-left="1"
     fit-margin-right="1"
     fit-margin-bottom="1" />
  <metadata
     id="metadata230">
    <rdf:RDF>
      <cc:Work
         rdf:about="">
        <dc:format>image/svg+xml</dc:format>
        <dc:type
           rdf:resource="http://purl.org/dc/dcmitype/StillImage" />
        <dc:title></dc:title>
      </cc:Work>
    </rdf:RDF>
  </metadata>
  <g
     inkscape:label="Layer 1"
     inkscape:groupmode="layer"
     id="layer1"
     transform="translate(1.3751914,-187.39923)">
    <g
       id="g328"
       transform="matrix(0.49999925,0,0,0.49999925,-70.713449,119.15421)">
      <path
         sodipodi:nodetypes="csccscc"
         d="m 139.20818,137.0239 c 0,55.08137 -0.002,55.60074 -0.002,60.90302 0,29.98142 31.53075,62.49044 59.34693,71.37536 l -0.002,0.009 c 28.12043,-9.21336 59.34911,-41.74089 59.34911,-71.71316 0,-10.70505 0.004,-7.3443 0.004,-60.57851 z"
         style="fill:#ffffff;fill-opacity:1;fill-rule:nonzero;stroke:none;stroke-width:0.091616"
         id="path30-7"
         inkscape:connector-curvature="0" />
      <g
         transform="translate(126.41848,-8.5526245)"
         style="fill:#000000"
         id="g315">
        <g
           id="g208"
           transform="matrix(0.091616,0,0,-0.091616,-8.5018023,294.75783)"
           style="fill:#000000">
          <g
             transform="translate(1226.4624,660.3104)"
             id="g28"
             style="fill:#000000">
            <path
               inkscape:connector-curvature="0"
               id="path30"
               style="fill:#000000;fill-opacity:1;fill-rule:nonzero;stroke:none"
               d="M 0,0 C 0.048,0.107 0.093,0.215 0.139,0.322 0.093,0.215 0.048,0.107 0,0 m -0.509,-1.067 c 0.05,0.096 0.094,0.193 0.142,0.29 -0.048,-0.097 -0.092,-0.194 -0.142,-0.29 M -1.085,-2.135 C -1.04,-2.056 -1,-1.977 -0.956,-1.898 -1,-1.977 -1.04,-2.056 -1.085,-2.135 M 113.111,-93.601 0.507,1.216 C 0.486,1.161 0.46,1.106 0.439,1.051 0.477,1.148 0.514,1.246 0.55,1.344 0.743,1.858 0.918,2.371 1.071,2.883 1.083,2.919 1.092,2.956 1.103,2.992 1.26,3.528 1.399,4.062 1.516,4.593 1.517,4.596 1.518,4.599 1.518,4.601 1.634,5.128 1.729,5.65 1.809,6.169 1.817,6.22 1.825,6.271 1.833,6.323 c 0.075,0.505 0.134,1.005 0.178,1.498 0.004,0.045 0.007,0.09 0.011,0.135 0.086,1.021 0.111,2.013 0.088,2.966 0,0.022 0,0.046 -10e-4,0.068 C 2.097,11.453 2.073,11.906 2.041,12.349 2.037,12.397 2.034,12.445 2.03,12.493 1.996,12.93 1.954,13.355 1.904,13.769 1.9,13.799 1.896,13.827 1.893,13.856 1.789,14.696 1.656,15.484 1.508,16.212 1.5,16.257 1.49,16.303 1.481,16.348 1.411,16.687 1.337,17.013 1.263,17.324 1.25,17.375 1.238,17.425 1.226,17.476 1.15,17.781 1.074,18.075 0.998,18.35 0.99,18.377 0.983,18.402 0.975,18.43 0.902,18.688 0.831,18.932 0.76,19.16 c -0.01,0.034 -0.021,0.07 -0.031,0.104 -0.072,0.227 -0.14,0.433 -0.206,0.627 -0.015,0.044 -0.029,0.088 -0.044,0.13 -0.062,0.18 -0.121,0.343 -0.174,0.489 -0.013,0.033 -0.024,0.063 -0.036,0.094 -0.053,0.142 -0.103,0.271 -0.144,0.374 l -3.739,9.308 -9.992,-0.828 c -6.31,-0.526 -12.938,-0.771 -18.545,-0.746 l -63.176,53.195 c 0.703,0.311 1.392,0.616 2.065,0.914 1.457,0.645 2.832,1.253 4.061,1.796 7.138,-1.761 14.543,-3.027 22.291,-3.251 24.584,-0.705 33.802,2.907 49.22,9.898 6.305,2.837 13.419,6.061 24.1,9.8 30.157,10.561 45.162,10.879 65.937,11.34 l 5.696,0.122 c 14.15,0.367 32.873,-0.143 42.939,-0.44 l 22.288,-0.44 -0.659,13.859 c 0,2.911 -0.806,5.474 -2.221,10.119 -5.65,18.329 -5.352,24.855 -4.106,27.104 4.2,7.648 26.954,30.452 41.741,44.186 l 19.895,18.429 -26.69,4.863 c -6.793,1.246 -18.356,-1.981 -34.315,-9.629 l -1.22,-0.587 c -18.5,-8.846 -18.669,-8.846 -26.566,-8.846 l -5.792,0.047 c -8.528,0.075 -10.363,0.075 -12.172,-0.244 l -11.51,-1.93 0.271,-15.789 c 0.095,-3.543 0.244,-8.357 -0.053,-14.249 -0.388,-7.405 -17.911,-18.083 -23.682,-18.083 -1.782,0 -3.569,0.122 -5.325,0.267 2.271,8.163 4.498,18.551 4.959,29.132 0.074,1.933 0.122,3.837 0.122,5.72 0,18.133 -3.957,33.09 -12.071,45.629 -18.356,28.401 -70.169,33.652 -98.105,17.889 -25.537,-14.394 -27.982,-38.614 -27.982,-54.72 0,-2.102 0.026,-4.057 0.074,-5.841 l 0.074,-4.545 c 0,-17.109 11.902,-41.182 14.517,-46.266 -11.95,1.172 -25.665,3.789 -36.883,9.409 -19.868,9.923 -34.777,47.535 -38.171,60.612 2.074,2.983 3.813,6.892 3.813,12.392 0,3.299 -0.615,7.134 -2.106,11.632 -2.492,7.43 -3.739,15.129 -3.739,21.557 0,5.964 1.104,10.849 3.278,13.341 1.661,1.91 3.103,2.791 4.275,2.618 3.399,-0.464 11.536,-6.306 20.531,-25.27 l 7.187,-15.082 13.291,10.097 c 8.677,6.571 15.009,12.535 17.28,28.274 1.05,-3.691 2.227,-7.892 2.227,-7.892 l 14.735,3.496 c 9.334,2.221 12.416,4.494 17.327,12.925 0,0 0.318,0.561 0.609,1.052 0.617,-3.716 1.247,-7.6 1.247,-7.6 l 16.304,7.698 c 9.632,4.546 14.395,11.682 14.469,21.629 5.622,-2.322 13.466,-4.619 24.589,-4.131 11.461,0.49 20.137,6.868 25.733,18.892 l 5.866,12.612 c 0,0 -10.952,4.742 -12.782,5.548 -0.806,0.514 -1.856,1.785 -2.493,2.858 3.373,3.787 6.498,5.769 19.455,6.405 l 3.786,0.172 c 1.077,0.049 2.133,0.097 3.171,0.148 0.112,0.006 0.223,0.012 0.336,0.017 0.969,0.049 1.921,0.101 2.856,0.159 0.121,0.008 0.241,0.016 0.361,0.023 0.943,0.061 1.868,0.129 2.775,0.207 0.083,0.007 0.167,0.014 0.249,0.021 0.972,0.086 1.924,0.185 2.855,0.3 0.027,0.004 0.052,0.008 0.078,0.011 0.912,0.114 1.803,0.246 2.676,0.397 0.075,0.013 0.15,0.027 0.225,0.041 0.835,0.148 1.652,0.316 2.451,0.507 0.075,0.018 0.15,0.035 0.225,0.054 0.823,0.201 1.627,0.426 2.413,0.68 0.032,0.01 0.064,0.02 0.095,0.03 0.823,0.269 1.624,0.57 2.406,0.907 0.14,0.06 0.277,0.125 0.416,0.188 -0.135,-0.061 -0.268,-0.125 -0.404,-0.184 L 257.333,201.83 C 236.218,104.926 186.973,3.819 113.111,-93.601 m -277.807,-134.964 c 0.379,0.068 0.759,0.136 1.136,0.205 -0.377,-0.069 -0.756,-0.137 -1.136,-0.205 m -2.776,-0.503 c 0.405,0.073 0.81,0.146 1.212,0.218 -0.403,-0.072 -0.807,-0.145 -1.212,-0.218 m -2.791,-0.501 c 0.426,0.076 0.852,0.152 1.277,0.228 -0.425,-0.076 -0.851,-0.152 -1.277,-0.228 m -2.777,-0.496 c 0.432,0.077 0.864,0.154 1.294,0.23 -0.43,-0.076 -0.862,-0.153 -1.294,-0.23 m -2.735,-0.484 c 0.406,0.072 0.812,0.144 1.218,0.215 -0.406,-0.071 -0.812,-0.143 -1.218,-0.215 m -2.782,-0.486 c 0.366,0.063 0.73,0.128 1.095,0.191 -0.365,-0.063 -0.729,-0.128 -1.095,-0.191 m -2.829,-0.487 c 0.352,0.059 0.704,0.12 1.055,0.181 -0.351,-0.061 -0.703,-0.122 -1.055,-0.181 m -2.827,-0.482 c 0.312,0.053 0.624,0.107 0.936,0.159 -0.312,-0.052 -0.623,-0.106 -0.936,-0.159 m -2.826,-0.472 c 0.22,0.037 0.44,0.074 0.66,0.11 -0.22,-0.036 -0.44,-0.073 -0.66,-0.11 m -9.051,-1.448 c 0.124,0.02 0.248,0.038 0.373,0.058 -0.125,-0.02 -0.249,-0.038 -0.373,-0.058 m -3.126,-0.472 c 0.221,0.033 0.442,0.065 0.663,0.098 -0.221,-0.033 -0.442,-0.065 -0.663,-0.098 m -2.939,-0.43 c 0.253,0.036 0.507,0.072 0.76,0.109 -0.253,-0.037 -0.507,-0.073 -0.76,-0.109 m -2.891,-0.407 c 0.275,0.037 0.549,0.075 0.823,0.113 -0.274,-0.038 -0.548,-0.076 -0.823,-0.113 m -2.848,-0.386 c 0.287,0.038 0.573,0.076 0.86,0.114 -0.287,-0.039 -0.573,-0.076 -0.86,-0.114 m -2.805,-0.363 c 0.288,0.036 0.577,0.073 0.866,0.11 -0.289,-0.037 -0.578,-0.074 -0.866,-0.11 m -2.761,-0.339 c 0.272,0.032 0.545,0.065 0.817,0.098 -0.272,-0.033 -0.545,-0.066 -0.817,-0.098 m -2.729,-0.317 c 0.244,0.028 0.489,0.056 0.734,0.084 -0.245,-0.028 -0.49,-0.056 -0.734,-0.084 m -2.705,-0.293 c 0.203,0.022 0.409,0.044 0.613,0.066 -0.204,-0.022 -0.41,-0.044 -0.613,-0.066 m -2.653,-0.265 c 0.087,0.009 0.176,0.017 0.264,0.026 -0.088,-0.009 -0.177,-0.017 -0.264,-0.026 m -5.45,-0.467 c 0.042,0.003 0.084,0.006 0.127,0.009 -0.043,-0.003 -0.085,-0.006 -0.127,-0.009 m -2.992,-0.205 c 0.202,0.013 0.402,0.023 0.604,0.037 -0.202,-0.013 -0.402,-0.024 -0.604,-0.037 m -2.634,-0.147 c 0.256,0.013 0.51,0.025 0.768,0.038 -0.258,-0.013 -0.512,-0.025 -0.768,-0.038 m -2.494,-0.106 c 0.281,0.01 0.561,0.019 0.844,0.031 -0.283,-0.012 -0.563,-0.021 -0.844,-0.031 m -2.394,-0.068 c 0.287,0.005 0.575,0.012 0.865,0.02 -0.29,-0.008 -0.578,-0.015 -0.865,-0.02 m 75.335,10.081 c 1.298,0.236 2.588,0.47 3.861,0.703 -1.273,-0.233 -2.563,-0.467 -3.861,-0.703 m -77.658,-10.112 c 0.29,0.002 0.583,0.004 0.877,0.007 -0.294,-0.003 -0.587,-0.005 -0.877,-0.007 m -1.168,0.001 c -0.577,0.002 -1.145,0.01 -1.709,0.02 0.564,-0.01 1.132,-0.018 1.709,-0.02 m -2.663,0.038 c -0.844,0.023 -1.675,0.052 -2.486,0.094 0.81,-0.043 1.643,-0.071 2.486,-0.094 m -102.627,-203.19 c -141.476,47.819 -294.914,155.523 -412.493,290.166 -16.641,19.057 -32.317,38.32 -47.034,57.731 l 127.398,107.266 c 0.584,-0.868 1.142,-1.711 1.637,-2.494 3.788,-6.036 7.893,-9.314 11.754,-11.122 -0.145,-1.878 -0.342,-4.227 -0.658,-7.378 -0.293,-2.837 -0.441,-5.743 -0.441,-8.677 0,-36.246 21.385,-77.621 43.698,-81.461 l 10.193,-1.755 4.398,9.361 c 5.083,10.798 11.657,42.399 19.992,86.537 0,0 1.589,8.236 1.931,10.098 3.495,6.301 13.638,21.576 21.922,31.818 4.791,-20.282 13.59,-38.299 36.123,-39.763 l 15.739,-1.028 -1.344,15.789 c -0.123,1.394 -0.196,3.643 -0.196,6.231 0,1.199 0.05,2.52 0.073,3.814 3.544,-2.811 7.528,-5.765 12.539,-8.847 l 19.698,-12.124 0.977,23.124 c 0.074,1.315 0.098,2.684 0.098,4.058 0,5.717 -0.464,11.583 -0.855,16.86 -0.269,3.469 -0.635,8.285 -0.635,11.366 0,1.024 0.048,1.809 0.146,2.345 0.171,0.515 0.513,1.198 0.88,1.909 13.638,-39.572 43.209,-43.188 46.704,-43.454 l 15.937,-1.3 -1.321,15.939 c -3.153,38.637 -7.871,58.214 -10.706,69.898 -0.267,1.125 -0.537,2.271 -0.781,3.373 2.419,-0.419 5.107,-1.002 7.138,-1.442 8.258,-1.835 16.787,-3.718 24.731,-1.957 4.742,1.028 8.774,3.054 12.244,5.426 6.919,-19.002 20.272,-39.671 40.538,-62.542 V -118.9 c -0.572,-0.369 -1.101,-0.746 -1.579,-1.119 -2.29,-1.783 -4.068,-3.906 -5.477,-6.257 -10.02,3.56 -21.462,-0.118 -27.872,-2.181 l -2.83,-0.881 c -8.977,-2.497 -24.162,-12.289 -28.5,-22.572 l -1.364,-3.231 0.372,-3.484 c 0.827,-7.773 5.934,-12.256 11.331,-14.993 -8.627,-0.421 -17.27,-3.051 -20.88,-4.276 l -0.04,-0.01 c -16.933,-5.458 -28.144,-16.474 -30.757,-30.238 l -1.606,-8.454 6.963,-5.065 c 4.912,-3.568 10.408,-4.073 39.2,-3.611 l 6.235,0.079 h 0.677 c 4.048,-0.003 8.377,0.006 12.374,1.056 0.283,-0.342 0.565,-0.671 0.844,-0.971 8.139,-8.725 21.02,-8.725 32.383,-8.725 3.335,0 6.88,0.32 10.526,0.817 v -208.343 z m -615.497,744.841 0.286,90.225 c 0,0 0.016,483.706 0.016,541.755 30.155,-0.001 322.693,-0.021 615.219,-0.04 V 826.131 c -4.85,-0.496 -9.561,-0.971 -13.554,-1.375 l -18.601,-1.931 c -8.799,-1.1 -34.411,-12.268 -41.131,-24.024 -3.007,-5.255 -3.421,-10.339 -3.765,-14.444 -0.292,-3.691 -0.512,-6.355 -2.443,-9.679 -2.762,-4.741 -12.71,-15.201 -20.676,-23.609 -7.088,-7.455 -13.784,-14.516 -18.208,-20.163 -5.158,-6.55 -6.99,-12.317 -7.259,-17.23 -1.906,0.611 -3.886,1.052 -5.988,1.052 -4.986,0 -9.507,-1.931 -12.756,-5.475 -5.94,-6.452 -5.206,-15.128 -4.62,-22.069 l 0.097,-1.223 c 1.589,-19.209 32.994,-27.592 48.66,-26.517 8.163,0.563 14.494,5.23 19.308,9.85 -0.099,-0.808 -0.194,-1.589 -0.194,-2.396 0,-6.734 3.159,-13.899 7.009,-19.137 l -95.323,-80.236 c -1.557,2.026 -2.948,3.866 -4.07,5.352 -12.245,16.18 -18.99,25.101 -29.231,25.101 h -10.606 l -2.567,-10.29 c -0.317,-1.247 -0.464,-2.493 -0.464,-3.788 0,-4.276 1.614,-9.262 4.374,-17.817 2.078,-6.476 5.206,-16.227 5.377,-20.138 0.025,-0.465 0.048,-0.855 0.048,-1.247 0,-3.006 -1.197,-3.983 -12.292,-4.96 -3.177,-0.295 -6.183,-0.562 -9.018,-1.368 -4.033,-1.174 -10.926,-3.692 -18.232,-6.355 -5.573,-2.053 -13.981,-5.133 -16.009,-5.621 l -0.268,-0.049 c -1.247,3.617 -3.13,9.507 -5.843,19.234 -1.001,3.666 -3.176,7.478 -5.963,12.342 -2.321,4.057 -7.086,12.44 -7.355,15.641 0.121,0.906 0.953,2.126 2.859,4.694 3.128,4.178 7.381,9.896 9.312,18.89 0.903,4.301 1.295,12.686 1.295,22.779 0,25.784 -2.493,62.908 -4.815,72.537 -3.641,15.179 -17.401,31.283 -27.445,36.294 -6.429,3.177 -11.536,2.2 -14.664,0.83 l -4.425,-1.931 -2.199,-4.276 c -2.199,-4.277 -2.885,-9.898 -2.885,-17.865 0,-4.743 0.246,-10.314 0.563,-16.889 0.22,-4.644 0.513,-10.46 0.513,-14.688 0,-2.029 -0.073,-3.69 -0.244,-4.717 -0.293,-1.783 -0.586,-3.324 -0.904,-4.839 -1.222,2.2 -2.615,4.521 -4.375,6.966 -9.019,12.709 -33.067,34.411 -52.986,40.471 -14.859,4.547 -24.611,0.391 -29.083,-2.493 -5.572,-3.567 -9.214,-8.895 -9.996,-14.59 l -0.904,-6.624 3.836,-3.811 6.893,-6.966 c 17.451,-16.643 26.444,-27.935 26.713,-33.531 1.05,-20.847 14.761,-33.018 23.83,-41.083 l 3.299,-2.957 c -0.074,-0.588 -0.734,-1.956 -2.42,-2.812 -19.699,-9.947 -29.622,-25.539 -37.614,-38.077 -4.082,-6.429 -7.626,-11.977 -11.756,-15.91 l -2.443,-2.077 c -2.566,-2.053 -5.475,-4.401 -7.088,-8.334 l -2.298,-5.622 2.64,-5.474 c 3.91,-8.017 13.368,-13.173 20.922,-15.349 7.599,-2.174 14.321,-1.613 19.453,1.614 l 5.865,4.032 c 11.683,8.236 19.358,13.026 23.364,14.664 8.628,-5.157 31.089,-24.856 38.396,-33.801 0.392,-1.588 0.904,-4.57 1.271,-6.721 1.466,-8.724 2.712,-16.253 7.723,-21.165 1.37,-1.353 2.955,-2.624 5.532,-3.587 l -28.753,-24.202 c -2.49,-0.795 -5.099,-1.341 -7.714,-1.392 -0.511,0.711 -1.126,1.671 -1.62,2.47 -3.224,5.237 -9.936,16.127 -25.197,15.664 -23.924,-0.724 -31.659,0.686 -34.185,1.715 -3.767,3.721 -15.21,20.399 -20.813,28.57 l -10.36,14.718 c -0.556,0.714 -0.641,2.187 -0.702,5.377 -0.086,4.396 -0.203,10.416 -3.613,16.478 -5.001,8.889 -40.933,48.765 -49.932,55.41 -5.805,4.288 -20.936,8.25 -28.453,6.426 l -4.668,-1.134 -2.917,-3.814 c -2.863,-3.746 -3.718,-8.102 -3.718,-12.67 0,-3.443 0.486,-7.005 0.965,-10.518 l 0.468,-3.697 c 0.887,-8.813 8.273,-15.136 12.685,-18.914 l 0.894,-0.771 c 4.195,-3.7 4.335,-4.007 4.965,-10.961 l 0.66,-15.253 0.658,-20.357 c 1.05,-22.6 16.582,-35.829 22.702,-40.956 -1.824,-2.5 -4.399,-5.624 -7.236,-8.085 0,0 -1.112,-0.881 -1.882,-1.493 l -2.261,0.029 c -8.437,0 -22.38,-2.917 -33.054,-9.319 -10.799,-6.481 -55.521,-53.693 -60.464,-69.151 -3.471,-10.862 -5.394,-23.219 6.675,-32.533 l 3.982,-3.074 5.024,0.263 c 5.388,0.281 8.069,2.575 16.95,10.173 4.565,3.903 15.107,12.915 18.922,14.625 0.515,0.085 1.151,0.188 1.365,0.225 l 0.356,-0.085 c 2.542,-0.604 5.452,-1.193 10.573,-1.196 10.866,0 22.751,8.531 42.244,25.334 l 3.939,3.368 c 0.422,0.35 0.637,0.485 0.93,0.7 l 0.469,-0.255 c 1.191,-0.745 3.957,-4.057 5.98,-6.481 l 8.218,-9.21 1.888,-1.928 c 1.474,-1.524 3.213,-3.307 5.311,-4.911 -0.55,-2.174 -0.976,-5.161 -1.733,-10.486 -0.298,-2.097 -0.711,-4.992 -1.179,-8.015 L -950.033,201.944 c -7.522,34.492 -11.523,68.456 -11.756,101.526 m 827.58,317.989 c 0.047,0.125 0.094,0.252 0.142,0.375 -0.048,-0.123 -0.095,-0.25 -0.142,-0.375 m -0.528,-1.439 c 0.038,0.109 0.077,0.213 0.116,0.321 -0.039,-0.108 -0.078,-0.212 -0.116,-0.321 m -0.613,-1.775 c 0.03,0.088 0.059,0.178 0.089,0.265 -0.03,-0.087 -0.059,-0.177 -0.089,-0.265 m -0.587,-1.798 c 0.046,0.146 0.093,0.291 0.139,0.435 -0.046,-0.144 -0.093,-0.289 -0.139,-0.435 m -0.534,-1.705 c 0.016,0.052 0.032,0.102 0.048,0.154 -0.016,-0.052 -0.032,-0.102 -0.048,-0.154 m -0.663,-2.223 c 0.04,0.136 0.08,0.273 0.119,0.408 -0.039,-0.135 -0.079,-0.272 -0.119,-0.408 m -0.568,-1.98 c 0.042,0.148 0.084,0.295 0.126,0.442 -0.042,-0.147 -0.084,-0.294 -0.126,-0.442 m -0.586,-2.122 c 0.014,0.052 0.028,0.104 0.041,0.156 -0.013,-0.052 -0.027,-0.104 -0.041,-0.156 m -0.643,-2.412 c 0.047,0.178 0.093,0.356 0.14,0.533 -0.047,-0.177 -0.093,-0.355 -0.14,-0.533 m -0.549,-2.121 c 0.031,0.12 0.061,0.237 0.092,0.356 -0.031,-0.119 -0.061,-0.236 -0.092,-0.356 m -0.665,-2.657 c 0.041,0.168 0.083,0.337 0.124,0.504 -0.041,-0.167 -0.083,-0.336 -0.124,-0.504 M 77.306,355.795 c -0.155,-0.082 -0.313,-0.159 -0.47,-0.238 0.157,0.079 0.315,0.156 0.47,0.238 m 0.939,0.528 c -0.155,-0.091 -0.311,-0.178 -0.468,-0.266 0.157,0.088 0.313,0.175 0.468,0.266 m 0.92,0.574 c -0.154,-0.1 -0.309,-0.198 -0.465,-0.295 0.156,0.097 0.311,0.195 0.465,0.295 m 0.905,0.627 c -0.155,-0.113 -0.311,-0.225 -0.469,-0.333 0.158,0.109 0.314,0.22 0.469,0.333 m 0.901,0.689 c -0.162,-0.13 -0.324,-0.26 -0.488,-0.385 0.164,0.125 0.326,0.255 0.488,0.385 m 0.946,0.804 c -0.19,-0.171 -0.381,-0.341 -0.574,-0.503 0.193,0.162 0.384,0.332 0.574,0.503 m 1.075,1.017 c -0.266,-0.269 -0.536,-0.531 -0.809,-0.783 0.273,0.252 0.543,0.514 0.809,0.783 m 0.805,0.857 c -0.185,-0.205 -0.373,-0.404 -0.561,-0.599 0.188,0.196 0.376,0.394 0.561,0.599 m 0.786,0.919 c -0.162,-0.198 -0.326,-0.39 -0.491,-0.58 0.165,0.19 0.329,0.382 0.491,0.58 m 0.771,0.985 c -0.155,-0.207 -0.311,-0.409 -0.468,-0.608 0.157,0.199 0.313,0.401 0.468,0.608 m 0.758,1.062 c -0.154,-0.225 -0.308,-0.447 -0.465,-0.663 0.157,0.216 0.311,0.438 0.465,0.663 m 0.764,1.175 c -0.162,-0.262 -0.326,-0.522 -0.492,-0.773 0.166,0.251 0.33,0.511 0.492,0.773 m 0.915,1.548 c -0.227,-0.41 -0.458,-0.807 -0.693,-1.194 0.235,0.387 0.466,0.784 0.693,1.194 m -228.516,232.263 c 0.054,0.222 0.107,0.442 0.16,0.663 -0.053,-0.221 -0.106,-0.441 -0.16,-0.663 m -0.54,-2.278 c 0.018,0.078 0.036,0.153 0.054,0.23 -0.018,-0.077 -0.036,-0.152 -0.054,-0.23 m -0.685,-2.973 c 0.058,0.257 0.117,0.515 0.176,0.771 -0.059,-0.256 -0.118,-0.514 -0.176,-0.771 m -0.543,-2.412 c 0.061,0.272 0.121,0.541 0.182,0.811 -0.061,-0.27 -0.121,-0.539 -0.182,-0.811 m -0.667,-3.046 c 0.062,0.286 0.123,0.574 0.186,0.859 -0.063,-0.285 -0.124,-0.573 -0.186,-0.859 m -0.549,-2.568 c 0.077,0.366 0.154,0.73 0.232,1.095 -0.078,-0.365 -0.155,-0.729 -0.232,-1.095 m -0.593,-2.832 c 0.103,0.498 0.207,0.995 0.31,1.49 -0.103,-0.495 -0.207,-0.992 -0.31,-1.49 m -0.603,-2.951 c 0.089,0.439 0.178,0.879 0.267,1.317 -0.089,-0.438 -0.178,-0.878 -0.267,-1.317 m -0.488,-2.44 c 0.095,0.477 0.19,0.953 0.285,1.429 -0.095,-0.476 -0.19,-0.952 -0.285,-1.429 m -0.817,-4.195 c -0.114,-0.593 -0.227,-1.186 -0.339,-1.779 0.112,0.593 0.225,1.186 0.339,1.779 m 0.69,3.551 c -0.207,-1.052 -0.412,-2.106 -0.615,-3.161 0.203,1.055 0.408,2.109 0.615,3.161 m -6.812,-41.203 c -0.046,-0.367 -0.091,-0.728 -0.136,-1.088 -0.031,-0.253 -0.062,-0.503 -0.092,-0.753 -0.038,-0.308 -0.075,-0.615 -0.111,-0.918 -0.037,-0.316 -0.073,-0.625 -0.109,-0.934 -0.028,-0.243 -0.057,-0.49 -0.084,-0.729 -0.06,-0.529 -0.117,-1.048 -0.171,-1.558 -0.019,-0.169 -0.035,-0.332 -0.052,-0.499 -0.039,-0.369 -0.077,-0.734 -0.113,-1.092 -0.018,-0.186 -0.036,-0.369 -0.054,-0.552 -0.033,-0.334 -0.064,-0.664 -0.094,-0.988 -0.016,-0.175 -0.032,-0.35 -0.047,-0.522 -0.032,-0.355 -0.061,-0.701 -0.089,-1.043 -0.011,-0.122 -0.021,-0.248 -0.031,-0.369 -0.037,-0.458 -0.071,-0.906 -0.101,-1.339 -0.006,-0.075 -0.009,-0.146 -0.015,-0.22 -0.024,-0.354 -0.046,-0.699 -0.065,-1.034 -0.008,-0.136 -0.015,-0.266 -0.022,-0.399 -0.014,-0.268 -0.028,-0.53 -0.039,-0.785 -0.006,-0.136 -0.012,-0.271 -0.016,-0.403 -0.01,-0.252 -0.018,-0.496 -0.024,-0.734 -0.003,-0.112 -0.007,-0.226 -0.01,-0.335 -0.006,-0.338 -0.011,-0.664 -0.011,-0.971 l 0.265,-13.492 c 0.149,-4.741 0.366,-12.342 0.366,-19.796 0,-7.845 -0.292,-15.3 -1.124,-19.405 -0.285,-0.086 -0.595,-0.169 -0.914,-0.25 -0.089,-0.023 -0.179,-0.045 -0.271,-0.067 -0.295,-0.072 -0.6,-0.142 -0.92,-0.209 -0.044,-0.01 -0.087,-0.02 -0.133,-0.029 -0.337,-0.07 -0.692,-0.137 -1.054,-0.203 -0.128,-0.023 -0.258,-0.046 -0.389,-0.069 -0.304,-0.052 -0.616,-0.103 -0.935,-0.153 -0.118,-0.018 -0.236,-0.037 -0.356,-0.055 -0.357,-0.054 -0.724,-0.105 -1.097,-0.155 -0.168,-0.022 -0.339,-0.044 -0.511,-0.066 -0.293,-0.037 -0.59,-0.074 -0.891,-0.109 -0.21,-0.024 -0.421,-0.048 -0.635,-0.072 -0.344,-0.038 -0.692,-0.075 -1.045,-0.11 -0.209,-0.021 -0.42,-0.041 -0.632,-0.061 -0.279,-0.026 -0.561,-0.051 -0.844,-0.076 -0.273,-0.024 -0.548,-0.047 -0.825,-0.069 -0.339,-0.028 -0.679,-0.055 -1.022,-0.079 -0.234,-0.018 -0.469,-0.034 -0.705,-0.05 -0.272,-0.018 -0.545,-0.036 -0.818,-0.053 -0.294,-0.019 -0.588,-0.037 -0.883,-0.054 -0.355,-0.02 -0.711,-0.04 -1.069,-0.058 -0.237,-0.012 -0.474,-0.023 -0.712,-0.034 -0.285,-0.014 -0.57,-0.026 -0.856,-0.038 -0.221,-0.009 -0.442,-0.019 -0.663,-0.027 -0.436,-0.017 -0.872,-0.031 -1.308,-0.045 -0.217,-0.006 -0.434,-0.012 -0.65,-0.018 -0.315,-0.009 -0.628,-0.016 -0.94,-0.023 -0.185,-0.004 -0.372,-0.009 -0.556,-0.012 -0.455,-0.008 -0.906,-0.015 -1.354,-0.02 -0.178,-0.002 -0.354,-0.003 -0.53,-0.004 -0.351,-0.003 -0.699,-0.005 -1.044,-0.006 -0.134,0 -0.27,-0.001 -0.403,-0.001 -0.693,0.001 -1.372,0.006 -2.036,0.015 -0.044,0 -0.089,10e-4 -0.134,10e-4 -0.705,0.011 -1.391,0.026 -2.053,0.046 h -0.012 c -1.351,0.042 -2.604,0.103 -3.716,0.184 -2.127,4.595 -4.497,12.684 -5.452,18.33 0.637,-0.05 12.586,-0.904 12.586,-0.904 l 1.613,10.436 c 0.785,2.591 1.125,6.501 1.125,11.169 0,13.417 -2.69,32.97 -5.061,45.995 0.61,-0.023 15.816,-0.171 15.816,-0.171 l -0.687,10.876 16.339,-13.754 c 1.184,7.935 2.67,16.713 4.33,25.518 -2.357,-12.503 -4.359,-24.948 -5.649,-35.005 -0.022,-0.168 -0.044,-0.337 -0.065,-0.503 M -779.479,347.555 c 3.174,0.562 6.316,2.519 7.3,2.946 8.996,3.904 10.547,3.829 10.547,2.13 0,-1.697 -2.125,-22.584 -13.813,-36.215 -4.034,-4.704 -8.072,-5.449 -10.525,-3.574 3.19,7.969 5.473,32.507 6.491,34.713 m 33.872,31.404 -0.095,4.808 0.01,0.548 c 6.419,-0.429 11.701,0.719 19.652,6.916 0.125,-0.112 0.265,-0.249 0.413,-0.398 l -19.95,-16.792 c 0.02,0.584 0.032,1.162 0.032,1.72 0,1.139 -0.033,2.217 -0.062,3.198 m -64.791,73.398 c -3.911,3.477 -18.617,13.881 -19.486,32.564 -0.868,18.683 -0.489,26.649 -1.357,36.207 -0.869,9.558 -2.117,13.396 -9.504,19.913 -2.514,2.218 -8.664,7.003 -9.053,10.862 -0.565,5.618 -2.489,14.596 -0.437,17.281 2.927,0.71 13.982,-1.789 17.183,-4.155 7.762,-5.73 42.254,-44.191 46.165,-51.143 3.91,-6.952 -0.651,-15.714 5.431,-23.534 6.082,-7.821 27.103,-40.598 33.619,-45.812 6.518,-5.214 28.531,-4.861 42.868,-4.426 14.338,0.435 11.876,-17.733 24.909,-18.168 13.035,-0.435 24.331,6.953 29.544,9.558 5.214,2.609 29.242,8.61 39.234,8.61 3.91,0 13.041,-10.727 18.33,-16.972 4.746,-5.604 3.678,-27.238 5.431,-35.302 3.394,-15.614 -21.843,-12.923 -39.968,-10.642 -30.636,3.853 -76.121,4.531 -83.589,16.752 -6.736,11.024 -14.827,14.662 -23.083,8.147 -8.255,-6.516 -8.907,-3.639 -16.293,-4.074 -7.385,-0.435 -8.825,-4.699 -8.825,-14.256 0,-9.558 1.289,-14.239 -3.164,-16.466 -2.625,-1.31 -14.202,-7.293 -15.925,-7.649 -5.01,-1.023 -6.872,1.945 -12.046,7.119 -6.952,6.948 -11.73,14.771 -16.944,17.81 -5.214,3.044 -9.123,4.778 -16.945,-1.737 -7.82,-6.516 -28.364,-25.554 -37.488,-25.554 -9.124,0 -7.359,2.416 -15.614,0.679 -8.256,-1.738 -31.115,-24.325 -33.266,-24.44 -3.959,3.055 -5.735,6.083 -2.037,17.651 3.634,11.363 45.826,56.429 54.517,61.643 8.69,5.214 20.42,7.383 26.068,7.383 5.648,0 6.517,-0.864 13.034,4.781 6.517,5.647 12.601,14.337 13.469,17.378 0.869,3.042 -0.868,6.517 -4.778,9.992 m 456.76,-594.583 c 0,-6.762 -12.576,-13.763 -17.248,-17.979 -5.111,-4.62 -7.51,-7.203 -13.843,-5.05 -4.916,1.671 -14.758,3.093 -15.286,8.068 2.117,5.016 13.032,12.935 19.627,14.77 6.595,1.83 20.626,8.046 26.75,0.191 m -37.005,-48.646 c 0.626,-1.554 -0.763,-14.845 -0.376,-16.188 1.344,-4.714 -4.71,-4.555 -12.053,-4.555 -7.343,0 -34.896,-0.918 -37.453,0.938 2.714,14.294 20.369,19.434 21.825,19.927 5.834,1.979 21.152,5.394 24.918,2.52 0.943,-0.722 2.508,-1.082 3.139,-2.642 m 326.719,-22.949 c 2.297,8.502 9.484,20.091 13.526,22.382 2.778,1.028 29.88,-9.595 28.544,-23.167 -5.368,-4.174 -33.191,-3.995 -42.07,0.785 m -104.471,339.492 c 0.436,-0.209 0.885,-0.427 1.355,-0.654 -0.473,0.229 -0.917,0.443 -1.355,0.654 m -1.28,0.612 c 0.153,-0.073 0.312,-0.148 0.47,-0.224 -0.158,0.076 -0.316,0.151 -0.47,0.224 m -1.171,0.553 c 0.115,-0.055 0.23,-0.107 0.348,-0.163 -0.118,0.056 -0.232,0.108 -0.348,0.163 m -2.694,1.219 c 0.069,-0.03 0.141,-0.062 0.21,-0.092 -0.069,0.03 -0.141,0.062 -0.21,0.092 m -0.905,0.381 c 0.093,-0.04 0.189,-0.079 0.285,-0.119 -0.096,0.04 -0.192,0.079 -0.285,0.119 m -0.813,0.322 c 0.084,-0.032 0.166,-0.064 0.253,-0.098 -0.087,0.034 -0.169,0.066 -0.253,0.098 m -1.849,0.625 c 0.081,-0.023 0.166,-0.049 0.249,-0.074 -0.083,0.025 -0.168,0.051 -0.249,0.074 m -0.634,0.161 c 0.081,-0.019 0.164,-0.038 0.248,-0.06 -0.084,0.022 -0.167,0.041 -0.248,0.06 m -0.586,0.115 c 0.075,-0.013 0.149,-0.023 0.225,-0.038 -0.076,0.015 -0.15,0.025 -0.225,0.038 m -0.82,0.1 c 0.057,-0.003 0.118,-0.011 0.176,-0.017 -0.058,0.006 -0.119,0.014 -0.176,0.017 m -0.491,0.012 c 0.013,0 0.025,0.003 0.038,0.003 0.047,0 0.095,-0.003 0.142,-0.004 -0.06,10e-4 -0.121,10e-4 -0.18,10e-4 m -0.972,-0.076 c 0.032,0.005 0.065,0.011 0.097,0.015 -0.032,-0.004 -0.065,-0.01 -0.097,-0.015 m 64.884,-56.826 c 1.786,0.791 11.887,5.27 20.302,8.995 -8.399,-3.719 -18.489,-8.192 -20.302,-8.995 M 26.156,329.554 c -2.589,-5.522 -6.184,-10.73 -14.055,-11.07 -16.765,-0.734 -23.533,6.403 -28.788,7.283 -5.257,0.88 -11.659,-0.732 -9.484,-10.56 2.35,-10.581 -1.173,-13.243 -5.962,-15.519 -3.102,19.113 -17.231,4.938 -22.462,-3.813 -5.256,-8.746 -3.569,-7.648 -12.416,-9.799 -1.634,5.89 -6.205,14.689 -10.262,14.811 -6.794,0.196 -13.737,-12.491 -14.835,-20.701 -1.591,-11.559 -5.23,-14.638 -12.172,-19.895 -16.007,33.68 -34.581,40.352 -47.316,25.734 -10.363,-11.875 -6.55,-34.997 -2.174,-48.121 4.375,-13.124 -2.567,-12.756 -3.103,-16.348 -0.859,-5.525 16.617,-61.249 46.388,-76.131 29.743,-14.887 72.634,-11.365 72.634,-11.365 l -17.523,20.113 c 0,0 -13.127,25.394 -13.127,40.254 0,14.885 -3.299,39.616 20.944,53.279 23.83,13.44 66.601,7.329 80.04,-13.442 6.455,-9.995 10.662,-23.269 9.781,-43.381 -0.881,-20.138 -9.165,-40.327 -9.165,-40.327 0,0 11.706,-3.248 23.092,-3.248 11.367,0 36.369,14.343 37.223,30.963 0.514,9.361 -0.048,16.203 0,19.285 1.172,0.193 10.729,0 15.715,0 11.366,0 13.514,1.147 33.652,10.777 20.117,9.629 26.031,8.528 26.031,8.528 0,0 -37.249,-34.557 -44.429,-47.558 -7.235,-13.125 4.64,-40.181 4.64,-43.798 -2.885,-0.096 -31.186,1.124 -51.325,0.609 -23.83,-0.609 -40.764,0.028 -75.764,-12.241 -35.022,-12.246 -35.164,-19.894 -68.43,-18.939 -42.182,1.219 -76.104,33.604 -89.232,39.736 -13.121,6.111 -19.698,10.558 -29.324,7.943 -9.632,-2.639 -12.395,-12.197 -9.78,-24.438 2.641,-12.268 26.248,-19.725 38.495,-23.22 12.268,-3.517 34.824,-9.802 34.824,-9.802 0,0 -24.339,-10.751 -32.989,-18.94 -11,-10.385 -6.746,-28.422 8.99,-26.661 15.768,1.734 50.153,3.812 66.796,-1.444 16.616,-5.255 20.822,-15.762 26.885,-20.165 6.571,-4.762 39.349,-2.025 39.349,-2.025 0,0 6.693,-16.644 -14.299,-17.524 -21.019,-0.88 -33.408,6.821 -42.16,8.555 -8.747,1.761 -28.201,-1.734 -29.961,-6.11 -1.735,-4.375 -1.957,-7.675 5.914,-11.17 7.871,-3.522 59.705,-24.44 63.2,-27.935 -2.759,-3.543 -7.378,-11.17 -17.01,-9.971 -15.667,1.93 -30.401,11.975 -38.272,17.206 -7.87,5.256 -14.956,4.889 -20.186,0.513 -5.256,-4.375 -13.567,-10.607 -8.508,-14.935 5.697,-4.836 22.924,-13.148 26.885,-15.641 4.01,-2.519 9.531,-8.454 12.66,-11.583 -5.256,-5.256 -11.583,-9.876 -21.215,-3.739 -9.627,6.109 -23.803,15.322 -31.695,10.946 -7.871,-4.375 -7.871,-7.865 -4.376,-14.001 3.495,-6.136 14.028,-21.046 26.737,-34.459 -2.737,-2.737 -5.717,-8.433 -14.469,-3.177 -8.773,5.251 -15.763,23.633 -22.753,23.633 -7.018,0 -2.642,-12.246 -7.018,-20.997 -4.369,-8.746 -24.487,-35.875 -28.003,-42.011 -3.495,-6.137 1.755,-17.497 8.745,-20.993 7.018,-3.521 21.02,-8.751 28.891,-8.751 7.87,0 30.623,15.742 42.892,17.497 12.246,1.74 35.365,-12.363 32.649,-20.552 -3.76,-11.292 -12.538,-27.59 -23.898,-25.834 -11.393,1.761 -27.67,5.282 -39.057,6.136 -0.173,0.013 -0.362,0.021 -0.563,0.026 -0.083,0.002 -0.176,0.001 -0.264,0.001 -0.124,0.001 -0.246,0.003 -0.38,0 -0.119,-0.002 -0.25,-0.007 -0.376,-0.011 -0.115,-0.004 -0.227,-0.007 -0.348,-0.013 -0.145,-0.006 -0.302,-0.016 -0.456,-0.025 -0.115,-0.007 -0.226,-0.013 -0.346,-0.021 -0.171,-0.012 -0.352,-0.027 -0.532,-0.042 -0.113,-0.009 -0.224,-0.018 -0.342,-0.028 -0.195,-0.017 -0.399,-0.037 -0.605,-0.057 -0.115,-0.012 -0.227,-0.023 -0.345,-0.035 -0.22,-0.023 -0.448,-0.048 -0.679,-0.074 -0.111,-0.013 -0.221,-0.025 -0.334,-0.038 -0.248,-0.029 -0.504,-0.06 -0.764,-0.093 -0.105,-0.012 -0.209,-0.025 -0.316,-0.039 -0.276,-0.035 -0.559,-0.072 -0.846,-0.11 -0.098,-0.014 -0.196,-0.026 -0.296,-0.04 -0.312,-0.043 -0.631,-0.087 -0.958,-0.134 -0.073,-0.01 -0.147,-0.02 -0.221,-0.031 -0.35,-0.05 -0.707,-0.103 -1.072,-0.156 -0.061,-0.01 -0.122,-0.019 -0.183,-0.028 -0.386,-0.058 -0.779,-0.118 -1.182,-0.18 -0.033,-0.005 -0.068,-0.011 -0.101,-0.016 -11.578,-1.798 -29.537,-5.356 -48.252,-8.5 -0.064,-0.011 -0.128,-0.022 -0.192,-0.032 -0.694,-0.116 -1.388,-0.233 -2.083,-0.347 l -0.211,-0.035 c -0.659,-0.109 -1.319,-0.218 -1.979,-0.325 -0.115,-0.019 -0.229,-0.037 -0.343,-0.056 -0.623,-0.102 -1.246,-0.202 -1.869,-0.302 -0.145,-0.023 -0.29,-0.047 -0.435,-0.069 -0.574,-0.092 -1.148,-0.183 -1.722,-0.273 -0.194,-0.031 -0.388,-0.062 -0.583,-0.092 -0.565,-0.088 -1.13,-0.176 -1.695,-0.263 -0.193,-0.029 -0.386,-0.061 -0.58,-0.09 -0.737,-0.112 -1.472,-0.224 -2.208,-0.334 -0.551,-0.083 -1.101,-0.164 -1.651,-0.244 -0.185,-0.027 -0.372,-0.056 -0.557,-0.083 -0.56,-0.081 -1.117,-0.161 -1.675,-0.241 -0.178,-0.026 -0.357,-0.052 -0.535,-0.077 -0.568,-0.08 -1.136,-0.16 -1.703,-0.239 -0.162,-0.022 -0.325,-0.046 -0.487,-0.067 -0.563,-0.078 -1.124,-0.154 -1.685,-0.229 -0.169,-0.023 -0.338,-0.046 -0.505,-0.069 -0.554,-0.073 -1.105,-0.145 -1.656,-0.217 -0.172,-0.022 -0.344,-0.045 -0.516,-0.067 -0.559,-0.071 -1.115,-0.142 -1.671,-0.21 -0.158,-0.02 -0.317,-0.04 -0.475,-0.06 -0.561,-0.069 -1.12,-0.136 -1.678,-0.203 -0.149,-0.017 -0.3,-0.036 -0.45,-0.053 -0.56,-0.066 -1.117,-0.13 -1.674,-0.193 -0.147,-0.017 -0.294,-0.034 -0.441,-0.051 -0.551,-0.061 -1.1,-0.121 -1.646,-0.179 -0.15,-0.016 -0.3,-0.032 -0.45,-0.048 -0.55,-0.059 -1.096,-0.114 -1.64,-0.169 -0.137,-0.014 -0.274,-0.027 -0.41,-0.041 -0.553,-0.055 -1.103,-0.107 -1.65,-0.159 -0.126,-0.012 -0.251,-0.023 -0.377,-0.034 -0.554,-0.051 -1.105,-0.101 -1.652,-0.148 -0.113,-0.01 -0.225,-0.018 -0.337,-0.028 -0.561,-0.047 -1.119,-0.093 -1.673,-0.136 -0.088,-0.007 -0.175,-0.013 -0.263,-0.019 -0.572,-0.044 -1.14,-0.086 -1.703,-0.124 -0.068,-0.005 -0.135,-0.009 -0.201,-0.014 -0.585,-0.04 -1.165,-0.077 -1.739,-0.111 -0.031,-10e-4 -0.063,-0.003 -0.093,-0.005 -4.019,-0.237 -7.79,-0.332 -11.229,-0.256 -0.11,0.003 -0.22,0.005 -0.33,0.008 -0.77,0.019 -1.529,0.045 -2.265,0.083 -34.12,1.739 -56.432,10.878 -66.945,10.878 -10.481,0 -31.233,-6.598 -44.356,-6.598 -13.126,0 -25.612,-0.027 -24.734,12.22 0.857,12.267 0.756,18.891 5.132,23.267 4.375,4.37 30.476,23.241 31.335,36.146 0.878,13.222 3.516,21.018 13.147,19.257 9.606,-1.76 50.446,-20.259 62.686,-22.021 12.247,-1.761 30.062,7.139 35.318,24.637 5.256,17.523 10.507,60.388 0.88,79.646 -9.631,19.264 -67.75,65.332 -91.384,89.821 -23.63,24.513 -49.49,56.75 -53.863,86.515 -1.883,12.905 -8.504,-9.139 -23.707,-12.485 -12.048,-2.642 -35.412,9.918 -41.646,0.929 -6.232,-9.023 4.889,-14.958 10.657,-85.174 -7.211,0.583 -27.959,7.281 -36.831,40.276 -6.746,25.05 -23.291,-1.909 -25.028,-8.921 -1.759,-6.99 1.444,-23.878 0.856,-37.391 -18.695,11.508 -24.734,21.873 -27.029,21.873 -7.211,0 -6.356,-31.993 -6.014,-35.855 -14.321,0.929 -21.336,12.072 -26.492,43.332 -4.009,24.244 -44.457,-41.671 -45.312,-44.286 -0.88,-2.641 -14.321,-80.628 -21.336,-95.484 -13.71,2.343 -35.56,41.226 -32.065,75.345 3.519,34.141 -2.615,10.513 -13.124,27.129 -10.485,16.644 -38.861,49.713 -47.805,62.664 -6.501,9.409 -134.443,4.132 -143.095,5.914 -1.759,7.208 0.44,30.72 23.755,32.068 4.572,0.264 6.159,-11.658 10.925,-11.442 4.399,0.224 13.588,19.556 21.947,19.53 20.089,-0.048 44.823,-7.33 51.153,-2.838 18.842,13.397 18.306,51.644 16.668,74.838 -2.2,30.719 -22.68,51.691 -24,64.446 6.575,3.813 43.331,-27.86 53.84,-42.719 10.485,-14.885 5.377,-70.583 10.095,-84.27 4.595,-13.393 18.891,-27.008 25.881,-27.008 7.015,0 15.128,5.5 22.168,5.94 7.234,0.441 30.086,-13.175 39.715,-13.175 9.629,0 31.599,7.458 31.381,29.405 -0.221,21.946 -7.748,73.051 0.145,94.043 7.87,21.019 16.62,28.965 22.753,28.89 19.455,-0.27 77.891,-23.292 93.63,-22.414 15.765,0.857 50.248,21.926 47.268,39.911 -4.644,27.84 -63.496,41.28 -89.183,68.042 -10.704,11.17 -20.186,30.964 -21.947,35.339 -1.735,4.376 -8.382,17.744 -21.506,6.355 -13.125,-11.364 -14.371,-29.033 -15.153,-34.337 -8.358,10.019 -13.076,36.83 -17.622,77.743 -0.782,7.038 -8.137,8.772 -11.999,15.397 -4.937,8.481 -6.061,20.552 -4.594,25.466 2.614,8.748 -14.739,8.553 -22.608,7.674 -5.107,-0.561 -22.02,-2.102 -24.611,0.417 -3.446,3.395 -4.008,21.578 -6.771,25.27 -7.869,10.508 -41.007,40.057 -48.878,40.912 -7.894,0.88 -32.432,-18.086 -37.687,-21.385 -4.814,-3.006 -18.305,2.737 -20.944,8.188 0.489,1.198 3.715,3.226 6.353,5.743 14.591,13.906 20.36,38.688 46.094,51.69 9.776,4.937 13.589,17.377 5.67,24.757 -8.432,7.895 -22.044,17.378 -22.924,34.877 -0.879,17.498 -32.286,43.112 -36.66,48.439 0.513,3.618 7.381,10.289 21.678,5.94 16.472,-5.035 38.028,-24.293 45.874,-35.341 14.298,-20.139 4.765,-27.959 14.737,-28.374 8.726,-0.367 13.27,21.359 15.006,31.869 1.76,10.51 -2.811,43.283 0.734,50.151 4.179,1.832 20.113,-13.931 23.462,-27.862 3.056,-12.635 6.062,-77.035 3.421,-89.279 -2.614,-12.243 -11.682,-15.69 -12.439,-25.491 -0.783,-9.8 12.17,-26.663 13.808,-32.553 2.248,-8.163 5.865,-20.579 8.481,-26.15 2.713,-5.769 7.723,-3.911 13.564,-2.69 4.766,1.003 27.519,9.996 35.145,12.196 7.625,2.2 32.088,-1.515 31.062,21.214 -0.464,10.533 -10.557,34.362 -9.678,37.858 8.578,0 37.124,-54.257 55.845,-54.991 10.24,-0.391 18.33,-6.794 20.7,8.481 0.685,4.424 -0.904,6.916 -1.685,9.776 2.615,2.639 25.589,7.796 32.578,5.157 7.014,-2.615 18.672,0.734 18.672,5.108 0,4.374 -3.74,5.377 -3.959,8.994 4.375,3.495 21.117,8.799 26.37,9.678 5.229,0.855 0.684,4.35 -0.535,9.018 2.638,4.375 26.319,7.65 32.429,5.914 6.134,-1.759 3.496,5.548 0.39,6.916 -0.952,5.232 10.486,19.553 10.486,19.553 0,0 12.687,15.006 13.565,23.756 0.88,8.75 -4.546,6.452 -11.536,6.452 -6.988,0 -36.048,0.953 -42.185,0.856 -10.093,-0.172 -16.738,13.588 -15.86,18.842 0.88,5.255 2.957,5.133 6.526,4.668 3.641,-0.488 32.433,-2.077 40.301,-0.317 7.894,1.735 34.143,17.498 34.143,28.863 0,11.39 -21.019,22.753 -27.129,22.753 -6.133,0 -11.387,-1.734 -7.895,-5.254 3.52,-3.495 5.254,-10.485 4.376,-13.98 -0.856,-3.519 -7.868,-14.884 -15.739,-15.763 -7.871,-0.881 -42.011,0 -46.387,0 -4.375,0 -12.245,-15.225 -21.874,-15.887 -13.686,-0.927 -33.604,6.868 -34.216,14.079 -0.562,6.989 -1.515,14.101 3.739,14.101 5.254,0 15.446,-10.191 20.701,-10.191 5.255,0 4.179,5.107 3.324,10.362 -0.881,5.255 -9.727,8.945 -0.098,21.19 9.629,12.244 33.802,34.827 39.934,45.312 6.109,10.508 2.763,18.109 6.282,24.243 3.495,6.11 23.999,16.4 31.014,17.28 6.99,0.879 56.162,5.498 64.106,6.94 26.906,4.936 43.354,39.617 50.689,56.091 3.076,6.89 10.682,12.171 15.546,13.197 3.394,-4.18 0.684,-11.438 -1.178,-18.136 -1.904,-6.794 -9.382,-26.834 -12.316,-31.625 -2.959,-4.838 -7.43,-9.898 3.055,-10.777 10.508,-0.88 26.345,-1.491 30.721,2.884 4.375,4.375 62.664,51.202 71.489,59.242 2.122,-14.347 0.366,-39.909 -4.01,-50.419 -4.376,-10.485 -41.131,-58.632 -45.507,-62.126 -4.375,-3.495 0,-7.87 0,-7.87 0,0 13.122,-12.269 14.002,-17.499 0.881,-5.255 -1.368,-41.206 0.833,-54.892 2.467,-15.397 8.238,-23.854 11.706,-35.585 -6.503,-0.854 -9.579,-4.643 -6.084,-9.898 3.496,-5.254 8.088,-24.929 7.819,-29.132 -4.376,-0.881 -15.127,1.516 -11.462,-10.069 3.739,-11.805 6.062,-35.609 6.259,-47.609 -11.414,-0.44 -19.577,2.517 -16.941,-5.352 2.614,-7.87 9.165,-52.693 6.529,-61.443 -6.529,-0.269 -11.71,3.911 -14.739,-5.205 -2.663,-7.99 6.454,-37.49 11.705,-39.227 5.256,-1.758 46.387,-2.639 51.643,6.11 5.257,8.749 2.615,45.508 2.615,61.272 0,15.739 11.387,80.505 19.258,99.763 7.871,19.235 45.507,66.5 54.258,73.49 8.752,7.015 41.672,35.341 54.794,65.964 13.127,30.623 19.332,44.114 25.516,98.445 8.014,-4.743 20.844,-47.365 21.507,-52.864 1.829,-14.958 8.751,-9.483 22.435,3.983 12.39,12.172 18.256,17.965 24.61,34.289 6.916,17.866 18.94,52.497 21.141,61.247 6.99,-0.88 16.764,-14.933 16.764,-32.433 0,-17.522 -7.207,-36.512 -9.482,-41.571 -3.055,-6.819 3.792,-36.221 6.481,-40.546 3.983,-6.429 7.722,7.527 11.483,15.055 4.302,-5.157 10.803,-25.614 7.016,-37.93 -3.595,-11.732 -17.253,-42.746 -25.49,-55.259 -7.849,-11.878 -7.016,-41.987 8.746,-22.754 15.742,19.258 27.448,30.183 31.139,37.148 4.376,-35.706 -14.639,-76.252 -16.399,-86.761 -1.734,-10.509 -2.615,-16.839 0,-18.599 2.641,-1.735 8.772,5.67 13.122,12.757 1.76,-4.374 -4.668,-111.543 -20.405,-142.19 -15.762,-30.623 -31.97,-49.125 -39.836,-52.62 -7.871,-3.495 -9.631,-6.132 -3.496,-7.869 6.111,-1.758 16.617,-2.638 24.489,3.495 7.891,6.11 18.843,11.438 18.843,11.438 0,0 3.347,-14.394 -0.736,-24.44 -4.079,-10.045 -15.615,-15.739 -26.859,-22.022 -9.945,-5.548 -18.351,-16.398 -22.727,-24.266 -4.375,-7.896 -10.045,-7.53 -28.084,-8.41 -18.525,-0.88 -24.047,-5.081 -30.57,-12.803 -6.969,-8.287 3.638,-20.654 8.894,-22.414 M -994.063,968.022 c 0,-601.22 -0.025,-606.889 -0.025,-664.764 0,-327.251 344.162,-682.091 647.779,-779.071 l -0.023,-0.096 c 306.938,100.565 647.803,455.607 647.803,782.758 0,116.847 0.048,80.164 0.048,661.222 z" />
          </g>
          <g
             transform="translate(1309.084,1432.0468)"
             id="g32"
             style="fill:#000000">
            <path
               inkscape:connector-curvature="0"
               id="path34"
               style="fill:#000000;fill-opacity:1;fill-rule:nonzero;stroke:none"
               d="M 0,0 C 0.009,-0.07 0.031,-0.147 0.046,-0.221 0.063,-0.305 0.076,-0.385 0.101,-0.473 0.124,-0.556 0.158,-0.645 0.187,-0.731 0.216,-0.818 0.24,-0.902 0.276,-0.993 0.31,-1.082 0.355,-1.176 0.395,-1.268 0.437,-1.364 0.474,-1.457 0.521,-1.555 0.565,-1.647 0.619,-1.745 0.667,-1.84 0.722,-1.944 0.772,-2.047 0.832,-2.155 0.884,-2.25 0.945,-2.349 1.001,-2.446 1.067,-2.56 1.131,-2.672 1.203,-2.788 1.262,-2.885 1.33,-2.986 1.393,-3.085 1.471,-3.207 1.546,-3.326 1.629,-3.45 1.692,-3.544 1.761,-3.641 1.827,-3.737 1.919,-3.871 2.01,-4.004 2.108,-4.14 2.169,-4.226 2.235,-4.312 2.299,-4.399 2.409,-4.548 2.518,-4.698 2.633,-4.85 2.694,-4.929 2.758,-5.01 2.82,-5.09 c 0.124,-0.161 0.248,-0.321 0.378,-0.483 0.058,-0.073 0.12,-0.148 0.18,-0.221 0.14,-0.173 0.28,-0.345 0.424,-0.518 0.05,-0.06 0.102,-0.12 0.152,-0.179 0.16,-0.19 0.321,-0.38 0.486,-0.57 0.039,-0.044 0.079,-0.088 0.118,-0.133 0.179,-0.204 0.359,-0.409 0.544,-0.614 0.031,-0.034 0.063,-0.069 0.095,-0.104 0.195,-0.215 0.392,-0.431 0.592,-0.645 0.018,-0.019 0.036,-0.038 0.053,-0.057 0.215,-0.23 0.431,-0.458 0.65,-0.685 0.005,-0.005 0.01,-0.011 0.015,-0.015 2.101,-2.181 4.345,-4.203 6.128,-5.524 0.002,0 0.003,-0.001 0.004,-0.002 0.193,-0.143 0.381,-0.278 0.563,-0.404 0.011,-0.007 0.023,-0.015 0.034,-0.023 0.17,-0.117 0.334,-0.226 0.492,-0.327 0.022,-0.013 0.043,-0.027 0.065,-0.04 0.145,-0.091 0.284,-0.175 0.418,-0.25 0.031,-0.018 0.06,-0.034 0.091,-0.051 0.119,-0.065 0.234,-0.125 0.344,-0.178 0.038,-0.018 0.074,-0.034 0.111,-0.051 0.095,-0.042 0.186,-0.08 0.272,-0.111 0.042,-0.016 0.083,-0.028 0.123,-0.04 0.072,-0.022 0.141,-0.04 0.205,-0.053 0.043,-0.008 0.084,-0.013 0.123,-0.017 0.072,-0.007 0.144,-0.013 0.202,-0.005 2.466,0.391 4.567,1.638 5.887,5.841 0.041,0.129 0.075,0.278 0.1,0.444 0.016,0.097 0.023,0.212 0.033,0.322 0.007,0.076 0.018,0.144 0.023,0.226 0.007,0.137 0.007,0.29 0.008,0.442 0.001,0.07 0.005,0.132 0.004,0.204 -0.002,0.174 -0.011,0.364 -0.021,0.555 -0.003,0.061 -0.004,0.116 -0.007,0.178 -0.013,0.208 -0.032,0.43 -0.053,0.655 -0.005,0.054 -0.008,0.104 -0.013,0.159 -0.024,0.24 -0.054,0.492 -0.086,0.75 -0.006,0.046 -0.011,0.089 -0.016,0.135 -0.036,0.269 -0.076,0.548 -0.119,0.833 -0.006,0.04 -0.012,0.078 -0.018,0.119 -0.045,0.289 -0.095,0.587 -0.148,0.89 -0.007,0.041 -0.013,0.081 -0.021,0.123 -0.054,0.309 -0.114,0.626 -0.176,0.948 -0.008,0.037 -0.014,0.073 -0.021,0.111 -0.064,0.326 -0.133,0.659 -0.204,0.996 -0.008,0.036 -0.015,0.071 -0.022,0.107 -0.073,0.341 -0.15,0.687 -0.229,1.036 -0.008,0.034 -0.015,0.067 -0.023,0.101 -0.08,0.35 -0.164,0.704 -0.25,1.06 -0.009,0.036 -0.018,0.072 -0.026,0.108 -0.085,0.349 -0.174,0.702 -0.264,1.056 -0.013,0.046 -0.024,0.093 -0.036,0.139 -0.089,0.346 -0.182,0.694 -0.276,1.042 -0.014,0.054 -0.028,0.108 -0.043,0.162 -0.094,0.346 -0.191,0.693 -0.29,1.04 -0.015,0.053 -0.029,0.106 -0.044,0.159 -0.098,0.342 -0.198,0.682 -0.299,1.022 -0.018,0.062 -0.036,0.124 -0.055,0.186 -0.099,0.33 -0.2,0.658 -0.301,0.984 -0.022,0.07 -0.044,0.14 -0.066,0.21 -0.1,0.318 -0.201,0.633 -0.303,0.946 -0.025,0.077 -0.05,0.152 -0.075,0.228 -0.101,0.306 -0.202,0.608 -0.305,0.907 -0.027,0.078 -0.053,0.155 -0.08,0.233 -0.102,0.294 -0.204,0.584 -0.307,0.869 -0.029,0.079 -0.058,0.158 -0.086,0.237 -0.101,0.277 -0.204,0.55 -0.306,0.818 -0.031,0.083 -0.063,0.165 -0.094,0.247 -0.1,0.258 -0.2,0.511 -0.3,0.759 -0.034,0.086 -0.068,0.17 -0.103,0.254 -0.098,0.238 -0.195,0.472 -0.293,0.699 -0.036,0.084 -0.072,0.166 -0.108,0.249 -0.096,0.218 -0.192,0.432 -0.287,0.638 -0.039,0.082 -0.077,0.162 -0.114,0.242 -0.094,0.197 -0.187,0.389 -0.279,0.573 -0.04,0.078 -0.079,0.153 -0.118,0.228 -0.09,0.175 -0.181,0.345 -0.27,0.506 -0.04,0.073 -0.081,0.141 -0.121,0.211 -0.087,0.151 -0.173,0.297 -0.259,0.433 -0.042,0.066 -0.083,0.128 -0.125,0.191 -0.082,0.125 -0.164,0.246 -0.245,0.356 -0.044,0.059 -0.086,0.111 -0.129,0.165 -0.077,0.099 -0.154,0.194 -0.23,0.277 -0.045,0.05 -0.089,0.09 -0.133,0.134 -0.071,0.07 -0.142,0.14 -0.211,0.195 -0.048,0.038 -0.094,0.065 -0.14,0.096 -0.064,0.042 -0.127,0.085 -0.188,0.112 -0.051,0.024 -0.1,0.033 -0.15,0.046 -0.054,0.015 -0.108,0.032 -0.16,0.035 C 13,16.841 12.91,16.833 12.824,16.799 11.869,16.433 1.187,4.407 0.042,0.791 0.006,0.678 -0.015,0.555 -0.021,0.423 -0.024,0.373 -0.015,0.315 -0.014,0.263 -0.012,0.177 -0.013,0.093 0,0" />
          </g>
          <g
             transform="translate(1205.6958,876.952)"
             id="g36"
             style="fill:#000000">
            <path
               inkscape:connector-curvature="0"
               id="path38"
               style="fill:#000000;fill-opacity:1;fill-rule:nonzero;stroke:none"
               d="m 0,0 c 0.138,0.013 0.286,0.019 0.445,0.019 0.05,0 0.107,-0.007 0.158,-0.008 C 0.689,0.01 0.781,0.004 0.872,-0.001 1.029,-0.009 1.188,-0.02 1.357,-0.037 1.459,-0.047 1.564,-0.061 1.67,-0.074 1.839,-0.096 2.01,-0.12 2.188,-0.148 2.305,-0.167 2.423,-0.189 2.543,-0.211 2.72,-0.244 2.897,-0.278 3.08,-0.317 3.21,-0.345 3.341,-0.374 3.473,-0.405 3.654,-0.446 3.836,-0.49 4.021,-0.538 4.162,-0.573 4.303,-0.61 4.446,-0.649 4.626,-0.698 4.807,-0.75 4.99,-0.803 c 0.152,-0.044 0.303,-0.089 0.456,-0.136 0.176,-0.054 0.351,-0.11 0.527,-0.168 0.161,-0.053 0.322,-0.106 0.483,-0.161 0.17,-0.058 0.339,-0.119 0.508,-0.18 0.164,-0.059 0.329,-0.118 0.492,-0.18 0.165,-0.062 0.326,-0.126 0.489,-0.19 0.165,-0.065 0.33,-0.13 0.493,-0.198 0.155,-0.064 0.306,-0.13 0.458,-0.195 0.164,-0.071 0.328,-0.142 0.487,-0.214 0.145,-0.066 0.284,-0.133 0.425,-0.199 0.158,-0.075 0.317,-0.149 0.469,-0.225 0.135,-0.068 0.263,-0.136 0.393,-0.204 0.146,-0.077 0.295,-0.153 0.434,-0.23 0.129,-0.071 0.248,-0.143 0.37,-0.215 0.127,-0.074 0.257,-0.148 0.376,-0.222 0.124,-0.078 0.233,-0.155 0.348,-0.232 0.102,-0.069 0.211,-0.138 0.305,-0.206 0.122,-0.088 0.224,-0.175 0.331,-0.262 0.07,-0.057 0.149,-0.114 0.213,-0.17 0.161,-0.142 0.302,-0.283 0.419,-0.42 2.907,-3.594 8.99,-18.916 9.383,-23.559 -0.17,-10.852 -3.225,-20.775 -5.622,-24.098 -4.423,1.368 -13.419,6.672 -17.742,11.634 -5.351,6.181 -10.411,18.672 -10.411,23.85 0,4.865 5.718,16.769 10.926,17.183 m -9.395,-51.403 c 0.185,-0.189 0.392,-0.378 0.584,-0.568 0.311,-0.304 0.614,-0.61 0.945,-0.916 0.233,-0.217 0.488,-0.431 0.73,-0.647 0.312,-0.278 0.616,-0.556 0.941,-0.832 0.283,-0.239 0.584,-0.476 0.876,-0.714 0.306,-0.249 0.603,-0.5 0.918,-0.746 0.318,-0.249 0.651,-0.491 0.977,-0.737 0.305,-0.23 0.604,-0.463 0.916,-0.691 0.346,-0.251 0.704,-0.494 1.057,-0.74 0.305,-0.213 0.604,-0.43 0.913,-0.639 0.373,-0.252 0.755,-0.493 1.134,-0.738 0.297,-0.192 0.591,-0.39 0.89,-0.578 0.395,-0.247 0.794,-0.481 1.192,-0.719 0.289,-0.173 0.576,-0.353 0.865,-0.52 0.42,-0.243 0.84,-0.469 1.26,-0.701 0.269,-0.147 0.537,-0.302 0.805,-0.445 0.444,-0.235 0.884,-0.452 1.325,-0.672 0.242,-0.121 0.487,-0.252 0.729,-0.368 0.445,-0.215 0.883,-0.407 1.322,-0.604 0.233,-0.104 0.47,-0.218 0.701,-0.317 0.436,-0.186 0.861,-0.35 1.289,-0.517 0.225,-0.086 0.455,-0.186 0.677,-0.268 0.419,-0.154 0.824,-0.283 1.231,-0.416 0.219,-0.07 0.444,-0.154 0.658,-0.219 0.388,-0.117 0.759,-0.205 1.133,-0.3 0.218,-0.054 0.445,-0.123 0.657,-0.17 0.346,-0.077 0.67,-0.123 1,-0.177 0.223,-0.036 0.455,-0.087 0.669,-0.113 0.295,-0.036 0.566,-0.041 0.846,-0.056 0.25,-0.014 0.513,-0.045 0.75,-0.042 12.395,0.169 17.646,23.266 17.821,38.027 0.068,6.452 -7.457,25.955 -12.395,32.067 -0.299,0.372 -0.629,0.737 -0.984,1.096 -0.114,0.115 -0.245,0.226 -0.365,0.341 -0.252,0.24 -0.503,0.48 -0.777,0.714 -0.157,0.133 -0.328,0.261 -0.491,0.391 -0.259,0.208 -0.516,0.416 -0.792,0.618 -0.185,0.136 -0.382,0.266 -0.573,0.399 -0.273,0.189 -0.545,0.378 -0.831,0.561 -0.207,0.133 -0.422,0.26 -0.635,0.389 -0.288,0.175 -0.576,0.348 -0.873,0.517 -0.223,0.126 -0.453,0.247 -0.681,0.37 -0.302,0.162 -0.605,0.322 -0.915,0.477 -0.235,0.118 -0.473,0.231 -0.712,0.344 -0.314,0.15 -0.63,0.297 -0.95,0.439 -0.243,0.108 -0.488,0.212 -0.734,0.316 -0.325,0.137 -0.653,0.271 -0.982,0.4 -0.245,0.096 -0.491,0.19 -0.737,0.282 -0.337,0.125 -0.675,0.245 -1.013,0.362 -0.244,0.083 -0.486,0.166 -0.729,0.245 C 9.9,11.894 9.554,12 9.208,12.103 8.972,12.173 8.737,12.243 8.502,12.309 8.146,12.408 7.792,12.499 7.438,12.587 7.215,12.643 6.992,12.7 6.77,12.752 6.405,12.836 6.045,12.911 5.686,12.983 5.48,13.024 5.272,13.069 5.069,13.106 4.694,13.175 4.327,13.231 3.96,13.286 3.779,13.313 3.595,13.344 3.416,13.368 3.026,13.419 2.646,13.455 2.27,13.488 2.124,13.501 1.974,13.521 1.831,13.531 1.399,13.562 0.983,13.576 0.574,13.582 0.495,13.583 0.41,13.59 0.332,13.59 c -0.489,0.002 -0.96,-0.014 -1.409,-0.05 -14.76,-1.198 -23.438,-21.213 -23.438,-30.723 0,-9.506 6.965,-24.951 13.759,-32.748 0.423,-0.487 0.879,-0.978 1.361,-1.472" />
          </g>
          <g
             transform="translate(916.0113,1440.8827)"
             id="g40"
             style="fill:#000000">
            <path
               inkscape:connector-curvature="0"
               id="path42"
               style="fill:#000000;fill-opacity:1;fill-rule:nonzero;stroke:none"
               d="m 0,0 c -0.037,0.055 -0.074,0.109 -0.113,0.163 -0.176,0.241 -0.365,0.473 -0.574,0.69 -0.021,0.022 -0.046,0.043 -0.068,0.065 -0.198,0.2 -0.412,0.389 -0.637,0.569 C -1.438,1.524 -1.484,1.563 -1.532,1.6 -1.778,1.788 -2.037,1.965 -2.311,2.132 -2.356,2.159 -2.404,2.185 -2.45,2.212 -2.703,2.36 -2.967,2.5 -3.241,2.632 -3.288,2.655 -3.333,2.679 -3.38,2.701 -3.684,2.842 -4,2.973 -4.326,3.096 -4.393,3.121 -4.461,3.144 -4.528,3.168 -4.836,3.279 -5.152,3.384 -5.476,3.48 -5.509,3.49 -5.541,3.5 -5.574,3.51 -5.924,3.611 -6.284,3.702 -6.65,3.788 -6.734,3.807 -6.819,3.826 -6.905,3.845 -7.273,3.927 -7.646,4.003 -8.027,4.07 -8.04,4.073 -8.053,4.074 -8.066,4.077 c -0.372,0.065 -0.752,0.122 -1.136,0.174 -0.096,0.014 -0.192,0.027 -0.289,0.04 -0.384,0.049 -0.77,0.095 -1.16,0.134 -0.073,0.007 -0.145,0.013 -0.218,0.02 -0.341,0.032 -0.685,0.06 -1.03,0.086 -0.102,0.007 -0.204,0.015 -0.306,0.022 -0.388,0.026 -0.778,0.049 -1.169,0.067 -0.105,0.005 -0.21,0.009 -0.316,0.014 -0.321,0.013 -0.642,0.025 -0.963,0.034 -0.106,0.003 -0.213,0.007 -0.319,0.01 -0.375,0.009 -0.749,0.016 -1.121,0.021 -0.141,0.001 -0.282,0.003 -0.423,0.004 -0.28,0.003 -0.559,0.004 -0.837,0.005 -0.145,0 -0.29,0 -0.434,0 -0.373,0 -0.741,-0.002 -1.106,-0.005 -0.163,-0.001 -0.327,-0.002 -0.488,-0.004 -0.306,-0.003 -0.609,-0.006 -0.908,-0.01 -0.566,-0.006 -1.116,-0.012 -1.647,-0.018 -0.034,0 -0.067,0 -0.101,0 -0.432,-0.004 -0.853,-0.007 -1.256,-0.007 -1.347,0 -11.806,-0.904 -16.866,-3.861 -5.426,-3.154 -7.454,-13.907 -7.235,-18.892 0.014,-0.302 0.058,-0.599 0.129,-0.893 0.027,-0.111 0.076,-0.219 0.11,-0.329 0.057,-0.18 0.107,-0.362 0.184,-0.54 0.054,-0.125 0.131,-0.245 0.195,-0.367 0.082,-0.157 0.155,-0.317 0.253,-0.471 0.081,-0.127 0.182,-0.249 0.273,-0.374 0.104,-0.144 0.199,-0.29 0.316,-0.43 0.105,-0.125 0.228,-0.244 0.342,-0.366 0.125,-0.133 0.242,-0.269 0.377,-0.398 0.126,-0.12 0.269,-0.234 0.404,-0.351 0.144,-0.124 0.28,-0.25 0.433,-0.37 0.145,-0.114 0.304,-0.22 0.458,-0.33 0.16,-0.115 0.316,-0.233 0.485,-0.343 0.161,-0.105 0.334,-0.203 0.502,-0.304 0.178,-0.106 0.35,-0.215 0.535,-0.316 0.174,-0.096 0.359,-0.184 0.54,-0.275 0.191,-0.097 0.38,-0.197 0.579,-0.288 0.184,-0.085 0.378,-0.163 0.568,-0.243 0.206,-0.088 0.41,-0.177 0.622,-0.259 0.192,-0.074 0.39,-0.139 0.585,-0.207 0.22,-0.078 0.438,-0.157 0.663,-0.228 0.198,-0.062 0.402,-0.116 0.604,-0.173 0.229,-0.065 0.456,-0.133 0.689,-0.19 0.203,-0.051 0.411,-0.093 0.617,-0.138 0.236,-0.052 0.472,-0.106 0.71,-0.15 0.134,-0.025 0.269,-0.043 0.404,-0.065 0.073,-0.013 0.147,-0.024 0.221,-0.036 0.241,-0.038 0.482,-0.078 0.724,-0.107 0.21,-0.026 0.419,-0.042 0.629,-0.062 0.243,-0.023 0.486,-0.047 0.729,-0.061 0.212,-0.013 0.423,-0.016 0.635,-0.021 0.295,-0.009 0.59,-0.021 0.883,-0.016 7.234,0.098 8.311,0.831 11.074,4.399 1.931,2.494 4.546,3.276 8.603,2.273 4.079,-1.027 6.328,-1.589 9.727,2.249 3.395,3.861 6.111,10.753 3.055,17.083 C 0.33,-0.509 0.17,-0.25 0,0" />
          </g>
        </g>
      </g>
    </g>
  </g>
</svg>
