<?xml version="1.0" encoding="UTF-8" standalone="no"?>
<svg
   xmlns:dc="http://purl.org/dc/elements/1.1/"
   xmlns:cc="http://creativecommons.org/ns#"
   xmlns:rdf="http://www.w3.org/1999/02/22-rdf-syntax-ns#"
   xmlns:svg="http://www.w3.org/2000/svg"
   xmlns="http://www.w3.org/2000/svg"
   xmlns:sodipodi="http://sodipodi.sourceforge.net/DTD/sodipodi-0.dtd"
   xmlns:inkscape="http://www.inkscape.org/namespaces/inkscape"
   inkscape:version="1.0 (4035a4fb49, 2020-05-01)"
   sodipodi:docname="공식명함_수정(글깸).ai"
   viewBox="0 0 217.16986 103.92134"
   height="103.92133"
   width="217.16986"
   xml:space="preserve"
   id="svg2"
   version="1.1"><metadata
     id="metadata8"><rdf:RDF><cc:Work
         rdf:about=""><dc:format>image/svg+xml</dc:format><dc:type
           rdf:resource="http://purl.org/dc/dcmitype/StillImage" /><dc:title></dc:title></cc:Work></rdf:RDF></metadata><defs
     id="defs6"><clipPath
       id="clipPath20"
       clipPathUnits="userSpaceOnUse"><path
         id="path18"
         d="M 0,150.236 H 263.62 V 0 H 0 Z" /></clipPath></defs><sodipodi:namedview
     inkscape:current-layer="g10"
     inkscape:window-maximized="1"
     inkscape:window-y="-9"
     inkscape:window-x="-9"
     inkscape:cy="637.31206"
     inkscape:cx="-185.23678"
     inkscape:zoom="0.51793512"
     fit-margin-bottom="0"
     fit-margin-right="0"
     fit-margin-left="0"
     fit-margin-top="0"
     showgrid="false"
     id="namedview4"
     inkscape:window-height="1001"
     inkscape:window-width="1920"
     inkscape:pageshadow="2"
     inkscape:pageopacity="0"
     guidetolerance="10"
     gridtolerance="10"
     objecttolerance="10"
     borderopacity="1"
     bordercolor="#666666"
     pagecolor="#ffffff" /><g
     transform="matrix(1.3333333,0,0,-1.3333333,-71.706819,167.56447)"
     inkscape:label="공식명함_수정(글깸)"
     inkscape:groupmode="layer"
     id="g10"><g
       transform="translate(2.8961157,8.8693544)"
       id="g14"><g
         clip-path="url(#clipPath20)"
         id="g16"><g
           transform="translate(106.3745,103.6621)"
           id="g22"><path
             id="path24"
             style="fill:#ffffff;fill-opacity:1;fill-rule:nonzero;stroke:none"
             d="M 0,0 H -0.377 L -18.637,-2.521 -36.9,0 h -0.377 c -5.159,-0.814 -6.028,-4.986 -5.987,-7.875 l 7.614,-43.463 c 0.531,-1.121 2.423,-4.293 5.556,-0.568 l 7.701,11.318 c 0.137,0.172 1.651,2.022 3.756,2.065 2.102,-0.043 3.619,-1.893 3.754,-2.065 l 7.699,-11.318 c 3.135,-3.725 5.03,-0.553 5.559,0.568 L 5.986,-7.875 C 6.029,-4.986 5.16,-0.814 0,0" /></g><g
           transform="translate(103.3823,52.7656)"
           id="g26"><path
             id="path28"
             style="fill:#00adb9;fill-opacity:1;fill-rule:nonzero;stroke:none"
             d="m 0,0 c -0.375,-0.727 -0.865,-1.238 -1.195,-1.238 -0.282,0 -0.832,0.297 -1.553,1.138 l -7.793,11.448 -0.072,0.103 c -0.344,0.432 -2.2,2.596 -4.959,2.719 l -0.073,0.006 -0.072,-0.006 c -2.763,-0.123 -4.619,-2.287 -4.963,-2.723 L -20.719,11.402 -28.543,-0.1 c -0.719,-0.841 -1.273,-1.138 -1.553,-1.138 -0.332,0 -0.82,0.511 -1.199,1.238 l -7.685,43.879 c -0.02,4.283 2.134,5.566 3.64,6.01 0.35,0.086 0.865,0.199 1.221,0.216 l 13.719,-1.378 -3.612,-0.733 c -0.894,-0.18 -1.472,-1.053 -1.291,-1.949 0.158,-0.783 0.848,-1.322 1.619,-1.322 0.108,0 0.219,0.011 0.329,0.031 l 16.777,3.406 9.746,1.928 c 1.318,-0.219 4.543,-0.973 4.52,-6.209 z M 3.504,53.383 3.375,53.402 H 2.889 l -6.858,-1.357 c -0.07,-0.004 -0.148,-0.012 -0.222,-0.029 l -3.026,-0.612 -8.428,-1.668 -18.537,3.666 h -0.486 l -0.127,-0.019 c -4.838,-0.766 -7.568,-4.291 -7.49,-9.68 v -0.131 l 7.775,-44.377 0.037,-0.216 0.096,-0.204 c 0.996,-2.107 2.557,-3.322 4.281,-3.322 1.416,0 2.809,0.803 4.135,2.379 l 0.055,0.068 7.849,11.538 c 0.34,0.406 1.33,1.341 2.412,1.427 1.221,-0.097 2.231,-1.219 2.415,-1.433 l 7.796,-11.461 0.049,-0.071 0.053,-0.068 c 1.328,-1.576 2.719,-2.379 4.137,-2.379 1.724,0 3.285,1.215 4.281,3.322 l 0.092,0.204 7.791,44.464 0.021,0.129 0.008,0.131 c 0.07,5.389 -2.658,8.914 -7.494,9.68" /></g><path
           id="path30"
           style="fill:#d6d6d6;fill-opacity:1;fill-rule:nonzero;stroke:none"
           d="M 124.591,115.827 H 50.884 v 0.977 h 73.707 z" /><path
           id="path32"
           style="fill:#d6d6d6;fill-opacity:1;fill-rule:nonzero;stroke:none"
           d="M 124.591,38.863 H 50.884 v 0.975 h 73.707 z" /><g
           transform="translate(148.8809,98.5391)"
           id="g34"><path
             id="path36"
             style="fill:#727273;fill-opacity:1;fill-rule:nonzero;stroke:none"
             d="M 0,0 H 2.925 V 4.375 H 5.288 V -9.473 H 2.925 v 7.526 H 0 Z m -6.653,-13.828 c -0.224,0 -0.373,0.041 -0.448,0.124 -0.078,0.083 -0.114,0.238 -0.114,0.456 v 5.162 h 2.365 v -3.751 H 5.661 v -1.991 z m -1.909,13.187 h 5.432 v 2.466 h -6.012 v 1.947 h 7.733 c 0.208,0 0.356,-0.043 0.444,-0.133 0.092,-0.09 0.136,-0.239 0.136,-0.447 v -5.12 c 0,-0.221 -0.044,-0.373 -0.136,-0.458 -0.088,-0.08 -0.236,-0.122 -0.444,-0.122 h -5.41 v -2.383 h 2.217 c 0.402,0 0.857,0.016 1.368,0.049 0.513,0.036 1.027,0.081 1.557,0.136 0.522,0.044 1.036,0.096 1.532,0.166 0.499,0.068 0.935,0.138 1.307,0.206 V -6.261 C 0.804,-6.329 0.367,-6.396 -0.145,-6.459 -0.654,-6.521 -1.201,-6.573 -1.781,-6.611 -2.378,-6.67 -2.985,-6.717 -3.607,-6.759 -4.229,-6.8 -4.83,-6.819 -5.41,-6.819 c -0.153,0 -0.395,-0.006 -0.725,-0.01 -0.334,-0.01 -0.67,-0.012 -1.018,-0.012 h -0.952 -0.457 c -0.221,0 -0.376,0.041 -0.456,0.124 -0.086,0.08 -0.124,0.236 -0.124,0.456 v 5.037 c 0,0.21 0.038,0.357 0.124,0.448 0.08,0.088 0.235,0.135 0.456,0.135" /></g><g
           transform="translate(140.0732,92.0293)"
           id="g38"><path
             id="path40"
             style="fill:#727272;fill-opacity:1;fill-rule:nonzero;stroke:none"
             d="m 0,0 c 0,0 0.056,-0.035 0.246,-0.035 h 1.408 c 0.345,0 0.679,0.002 1.011,0.01 0.338,0.005 0.578,0.008 0.732,0.008 0.572,0 1.17,0.022 1.785,0.064 C 5.8,0.089 6.41,0.135 6.998,0.19 7.575,0.232 8.119,0.285 8.627,0.345 9.02,0.393 9.371,0.442 9.674,0.495 V 1.823 C 9.382,1.773 9.056,1.726 8.705,1.677 8.207,1.607 7.687,1.55 7.152,1.511 6.631,1.455 6.104,1.409 5.593,1.373 5.079,1.34 4.612,1.323 4.206,1.323 H 1.69 v 2.975 h 5.708 c 0.155,0 0.227,0.026 0.247,0.047 0,0 0.038,0.05 0.038,0.237 v 5.12 c 0,0.185 -0.044,0.233 -0.05,0.237 C 7.631,9.944 7.584,9.986 7.398,9.986 h -7.44 V 8.63 H 5.974 V 5.573 H 0.246 C 0.058,5.573 0.008,5.532 0.006,5.532 -0.011,5.515 -0.042,5.44 -0.042,5.286 V 0.249 C -0.042,0.059 -0.002,0.003 0,0 M 1.654,-0.627 H 0.246 c -0.308,0 -0.524,0.069 -0.666,0.21 -0.141,0.142 -0.21,0.359 -0.21,0.666 v 5.037 c 0,0.287 0.067,0.5 0.202,0.647 0.144,0.156 0.362,0.228 0.674,0.228 H 5.383 V 8.039 H -0.63 v 2.539 h 8.028 c 0.289,0 0.509,-0.075 0.655,-0.222 C 8.199,10.21 8.274,9.992 8.274,9.702 V 4.582 C 8.274,4.272 8.199,4.052 8.045,3.91 7.896,3.772 7.687,3.706 7.398,3.706 H 2.281 V 1.911 h 1.925 c 0.392,0 0.848,0.02 1.348,0.053 0.506,0.033 1.022,0.077 1.544,0.136 0.53,0.04 1.039,0.095 1.525,0.162 0.49,0.069 0.925,0.137 1.295,0.204 l 0.348,0.067 V 0.005 L 10.025,-0.041 C 9.661,-0.109 9.216,-0.18 8.697,-0.243 8.183,-0.306 7.625,-0.355 7.048,-0.399 6.46,-0.453 5.844,-0.502 5.223,-0.544 4.596,-0.585 3.979,-0.607 3.397,-0.607 c -0.15,0 -0.389,0 -0.718,-0.008 C 2.345,-0.624 2.003,-0.627 1.654,-0.627 M 12.028,-2.67 h 1.773 V 10.591 H 12.028 V 6.215 H 9.103 V 4.858 h 2.925 z m 2.364,-0.591 H 11.437 V 4.267 H 8.515 v 2.538 h 2.922 v 4.374 h 2.955 z M 1.929,-6.995 c 0.002,0 0.059,-0.028 0.225,-0.028 h 12.019 v 1.398 H 3.663 v 3.753 H 1.889 v -4.866 c 0,-0.188 0.034,-0.249 0.04,-0.257 M 14.764,-7.614 H 2.154 c -0.311,0 -0.53,0.072 -0.666,0.22 -0.13,0.138 -0.19,0.354 -0.19,0.656 v 5.457 h 2.955 v -3.75 h 10.511 z" /></g><g
           transform="translate(170.9824,89.4775)"
           id="g42"><path
             id="path44"
             style="fill:#727273;fill-opacity:1;fill-rule:nonzero;stroke:none"
             d="M 0,0 V 7.156 H -4.77 V 9.125 H 0 v 4.312 H 2.345 V 0 Z m -9.6,-4.767 c -0.22,0 -0.37,0.041 -0.444,0.124 -0.078,0.083 -0.113,0.239 -0.113,0.456 v 5.515 h 2.36 V -2.775 H 2.718 v -1.992 z m -1.844,17.457 h 8.108 V 10.701 H -9.724 V 4.853 l 2.259,0.063 c 0.569,0.011 1.143,0.033 1.733,0.061 0.587,0.028 1.145,0.069 1.67,0.127 0.525,0.038 1.005,0.087 1.441,0.143 0.434,0.053 0.79,0.116 1.066,0.185 V 3.526 C -1.789,3.457 -2.135,3.389 -2.593,3.319 -3.046,3.248 -3.56,3.187 -4.126,3.132 -4.706,3.076 -5.322,3.03 -5.971,2.988 -6.622,2.946 -7.263,2.925 -7.898,2.925 -8.051,2.911 -8.318,2.902 -8.697,2.895 -9.077,2.887 -9.467,2.883 -9.867,2.883 h -1.08 -0.52 c -0.218,0 -0.367,0.042 -0.444,0.124 -0.075,0.084 -0.113,0.235 -0.113,0.46 v 8.643 c 0,0.207 0.042,0.354 0.124,0.445 0.084,0.091 0.234,0.135 0.456,0.135" /></g><g
           transform="translate(159.292,92.6846)"
           id="g46"><path
             id="path48"
             style="fill:#727272;fill-opacity:1;fill-rule:nonzero;stroke:none"
             d="m 0,0 c 0.003,0 0.061,-0.028 0.224,-0.028 h 1.599 c 0.398,0 0.786,0.004 1.166,0.011 C 3.359,-0.012 3.618,0 3.764,0.01 L 3.792,0.014 C 4.419,0.014 5.06,0.035 5.7,0.074 6.347,0.115 6.965,0.165 7.537,0.22 8.098,0.275 8.605,0.336 9.054,0.405 9.373,0.452 9.636,0.5 9.84,0.546 V 1.858 C 9.625,1.822 9.379,1.78 9.105,1.744 8.669,1.692 8.181,1.64 7.65,1.601 7.129,1.546 6.563,1.502 5.971,1.475 5.383,1.446 4.798,1.428 4.233,1.414 L 1.671,1.342 v 6.446 h 6.386 v 1.4 H 0.246 C 0.059,9.188 0.006,9.146 0.006,9.146 -0.012,9.129 -0.038,9.058 -0.038,8.903 V 0.26 C -0.038,0.068 -0.006,0.008 0,0 M 1.823,-0.619 H 0.224 c -0.31,0 -0.528,0.074 -0.662,0.221 -0.128,0.141 -0.192,0.356 -0.192,0.658 v 8.643 c 0,0.285 0.067,0.497 0.202,0.644 0.144,0.158 0.365,0.232 0.674,0.232 H 8.647 V 7.196 H 2.263 V 1.949 l 1.955,0.053 c 0.56,0.013 1.14,0.036 1.726,0.062 0.577,0.029 1.134,0.071 1.654,0.124 0.525,0.042 1.006,0.09 1.433,0.145 0.42,0.052 0.768,0.116 1.032,0.18 l 0.369,0.091 V 0.1 L 10.218,0.035 C 9.968,-0.036 9.616,-0.108 9.144,-0.181 8.686,-0.249 8.163,-0.313 7.595,-0.368 7.015,-0.426 6.391,-0.473 5.738,-0.515 5.09,-0.556 4.438,-0.578 3.806,-0.578 3.644,-0.591 3.378,-0.603 2.999,-0.608 2.615,-0.614 2.224,-0.619 1.823,-0.619 m 10.163,-2.292 h 1.751 V 9.936 H 11.986 V 5.622 H 7.219 V 4.245 h 4.767 z m 2.342,-0.591 H 11.395 V 3.65 H 6.626 v 2.56 h 4.769 v 4.313 h 2.933 z M 1.864,-7.65 c 0.006,0 0.061,-0.029 0.227,-0.029 H 14.109 V -6.28 H 3.602 v 4.105 H 1.829 v -5.219 c 0,-0.187 0.032,-0.249 0.035,-0.256 M 14.701,-8.27 H 2.091 c -0.31,0 -0.528,0.073 -0.662,0.221 -0.13,0.138 -0.195,0.354 -0.195,0.655 v 5.811 h 2.955 v -4.104 h 10.512 z" /></g><path
           id="path50"
           style="fill:#727273;fill-opacity:1;fill-rule:nonzero;stroke:none"
           d="m 192.878,84.357 h -2.387 v 18.557 h 2.387 z m -12.732,18.307 h 5.765 v -1.905 h -5.765 z m -2.157,-3.421 h 10.1 v -1.989 h -3.773 v -0.767 c 0,-1.368 0.393,-2.657 1.179,-3.867 0.787,-1.21 1.867,-2.159 3.237,-2.849 l -1.622,-1.619 c -0.965,0.621 -1.786,1.297 -2.463,2.033 -0.678,0.731 -1.207,1.504 -1.579,2.323 -0.343,-0.804 -0.87,-1.609 -1.574,-2.417 -0.708,-0.81 -1.597,-1.602 -2.671,-2.372 l -1.892,1.593 c 1.508,0.873 2.688,1.906 3.539,3.098 0.846,1.196 1.278,2.558 1.295,4.077 v 0.767 h -3.776 z" /><path
           id="path52"
           style="fill:#727272;fill-opacity:1;fill-rule:nonzero;stroke:none"
           d="m 180.444,101.055 h 5.173 v 1.314 h -5.173 z m 5.761,-0.591 h -6.355 v 2.496 h 6.355 z m -8.766,-11.193 1.392,-1.176 c 0.975,0.712 1.793,1.452 2.44,2.189 0.681,0.781 1.195,1.569 1.526,2.34 l 0.266,0.61 0.278,-0.605 c 0.356,-0.785 0.868,-1.539 1.518,-2.243 0.615,-0.66 1.355,-1.283 2.215,-1.856 l 1.164,1.165 c -1.244,0.695 -2.246,1.622 -2.991,2.765 -0.817,1.251 -1.226,2.607 -1.226,4.027 v 1.063 h 3.769 v 1.398 h -9.503 V 97.55 h 3.774 v -1.063 c -0.015,-1.578 -0.471,-3.005 -1.351,-4.245 -0.805,-1.127 -1.9,-2.127 -3.271,-2.971 m 1.365,-1.928 -2.384,2.016 0.365,0.21 c 1.46,0.845 2.618,1.859 3.441,3.015 0.812,1.141 1.23,2.455 1.243,3.905 v 0.47 h -3.776 v 2.58 h 10.688 v -2.58 h -3.776 v -0.472 c 0,-1.303 0.384,-2.549 1.139,-3.707 0.754,-1.16 1.804,-2.082 3.118,-2.745 l 0.367,-0.187 -2.077,-2.072 -0.198,0.128 c -0.986,0.635 -1.837,1.33 -2.527,2.079 -0.542,0.588 -0.994,1.21 -1.354,1.857 -0.339,-0.651 -0.795,-1.299 -1.358,-1.945 -0.715,-0.821 -1.63,-1.636 -2.724,-2.416 z m 11.986,-2.69 h 1.792 v 17.967 h -1.792 z m 2.383,-0.591 h -2.978 v 19.146 h 2.978 z" /><g
           transform="translate(213.4658,93.377)"
           id="g54"><path
             id="path56"
             style="fill:#727273;fill-opacity:1;fill-rule:nonzero;stroke:none"
             d="m 0,0 h -2.491 v -9.02 h -2.32 V 9.559 h 2.32 V 2.074 H 0 Z m -7.445,8.479 c 0.207,0 0.356,-0.044 0.447,-0.132 C -6.906,8.255 -6.862,8.106 -6.862,7.898 -6.906,6.242 -6.989,4.662 -7.114,3.162 -7.238,1.662 -7.409,0.199 -7.631,-1.223 h -2.405 c 0.086,0.51 0.166,1.09 0.249,1.731 0.083,0.641 0.157,1.305 0.229,1.98 0.052,0.691 0.105,1.381 0.155,2.072 0.049,0.69 0.072,1.341 0.072,1.95 h -7.195 V 8.479 Z M -17.456,-3.275 h 3.358 v 5.907 h 2.32 v -5.907 c 0.347,0 0.806,0.017 1.378,0.049 0.574,0.037 1.174,0.075 1.793,0.117 0.624,0.042 1.226,0.091 1.816,0.143 0.589,0.055 1.072,0.118 1.461,0.189 v -1.971 c -0.472,-0.068 -1.049,-0.135 -1.742,-0.194 -0.689,-0.065 -1.467,-0.126 -2.324,-0.178 -0.841,-0.042 -1.752,-0.08 -2.736,-0.116 -0.977,-0.033 -1.994,-0.05 -3.046,-0.05 h -2.278 z" /></g><g
           transform="translate(203.7754,92.4482)"
           id="g58"><path
             id="path60"
             style="fill:#727272;fill-opacity:1;fill-rule:nonzero;stroke:none"
             d="m 0,0 h 1.806 c 0.199,1.338 0.359,2.721 0.475,4.115 0.124,1.489 0.21,3.077 0.248,4.72 0,0.175 -0.041,0.225 -0.044,0.23 C 2.46,9.087 2.386,9.111 2.245,9.111 H -6.54 V 7.734 H 0.657 V 7.438 C 0.657,6.828 0.629,6.166 0.583,5.472 0.533,4.775 0.48,4.086 0.425,3.393 0.356,2.702 0.279,2.03 0.193,1.398 0.129,0.891 0.063,0.421 0,0 m 2.312,-0.59 h -3.005 l 0.057,0.342 c 0.078,0.498 0.164,1.078 0.246,1.721 0.08,0.63 0.159,1.293 0.227,1.974 0.056,0.683 0.107,1.373 0.152,2.063 0.044,0.572 0.07,1.119 0.072,1.633 H -7.13 v 2.56 H 2.245 C 2.532,9.703 2.75,9.631 2.902,9.485 3.05,9.335 3.12,9.115 3.12,8.827 3.082,7.168 2.996,5.568 2.872,4.065 2.748,2.569 2.574,1.089 2.35,-0.339 Z m -9.786,-3.472 h 1.987 c 1.044,0 2.068,0.017 3.035,0.05 0.972,0.036 1.89,0.074 2.733,0.113 0.834,0.055 1.613,0.116 2.313,0.177 0.565,0.053 1.056,0.105 1.47,0.16 v 1.365 C 3.739,-2.247 3.358,-2.291 2.924,-2.329 2.342,-2.385 1.729,-2.435 1.107,-2.477 0.48,-2.518 -0.119,-2.557 -0.691,-2.589 -1.271,-2.625 -1.737,-2.645 -2.088,-2.645 H -2.384 V 3.266 H -4.112 V -2.645 H -7.474 Z M 5.173,-7.795 h 1.734 v 9.02 H 9.396 V 2.707 H 6.907 v 7.484 H 5.173 Z M 7.495,-8.387 H 4.584 v 4.303 L 4.404,-4.111 C 3.936,-4.18 3.342,-4.246 2.648,-4.31 1.941,-4.374 1.154,-4.432 0.314,-4.487 c -0.847,-0.041 -1.77,-0.08 -2.745,-0.117 -0.977,-0.032 -2.002,-0.048 -3.056,-0.048 h -2.575 v 2.601 h 3.359 v 5.906 h 2.911 v -5.904 c 0.295,0.006 0.65,0.026 1.063,0.048 0.574,0.036 1.17,0.074 1.792,0.112 0.619,0.044 1.229,0.092 1.806,0.148 0.577,0.054 1.064,0.116 1.44,0.182 l 0.275,0.05 V 10.782 H 7.495 V 3.299 H 9.986 V 0.634 H 7.495 Z" /></g><g
           transform="translate(143.6982,55.1689)"
           id="g62"><path
             id="path64"
             style="fill:#00adb9;fill-opacity:1;fill-rule:nonzero;stroke:none"
             d="M 0,0 H 1.46 C 2.512,0 3.282,0.253 3.775,0.752 4.267,1.255 4.513,1.964 4.513,2.875 4.513,3.937 4.187,4.689 3.535,5.14 2.887,5.586 1.986,5.799 0.836,5.772 H 0 Z M -1.065,6.74 H 1.112 C 2.637,6.74 3.823,6.41 4.675,5.751 5.523,5.091 5.95,4.135 5.95,2.885 5.95,1.62 5.523,0.661 4.675,0.008 3.823,-0.643 2.637,-0.97 1.112,-0.97 h -2.177 c -0.13,0 -0.22,0.02 -0.268,0.056 -0.045,0.037 -0.07,0.112 -0.07,0.22 v 7.159 c 0,0.101 0.025,0.172 0.07,0.214 0.048,0.042 0.138,0.061 0.268,0.061" /></g><g
           transform="translate(152.1875,57.4424)"
           id="g66"><path
             id="path68"
             style="fill:#00adb9;fill-opacity:1;fill-rule:nonzero;stroke:none"
             d="M 0,0 H 3.185 C 3.153,0.388 3.006,0.705 2.742,0.955 2.481,1.202 2.091,1.325 1.57,1.325 1.075,1.325 0.692,1.191 0.438,0.916 0.178,0.646 0.031,0.342 0,0 m 4.623,-0.622 c 0,-0.097 -0.025,-0.17 -0.075,-0.214 -0.05,-0.049 -0.126,-0.073 -0.227,-0.073 h -4.363 c 0,-0.439 0.133,-0.817 0.396,-1.126 C 0.617,-2.343 1.06,-2.5 1.685,-2.5 c 0.359,0 0.661,0.098 0.906,0.297 0.247,0.198 0.431,0.497 0.559,0.909 H 4.623 C 4.389,-2.052 4.007,-2.594 3.476,-2.927 2.938,-3.259 2.275,-3.43 1.474,-3.43 c -0.508,0 -0.948,0.081 -1.32,0.235 -0.369,0.156 -0.676,0.37 -0.918,0.635 -0.252,0.266 -0.433,0.566 -0.551,0.906 -0.118,0.339 -0.177,0.695 -0.177,1.062 0,0.353 0.065,0.701 0.19,1.039 0.123,0.341 0.313,0.644 0.563,0.909 0.25,0.262 0.561,0.477 0.942,0.64 0.38,0.165 0.824,0.248 1.333,0.248 0.531,0 0.995,-0.073 1.387,-0.224 C 3.316,1.869 3.638,1.666 3.887,1.408 4.137,1.148 4.321,0.845 4.442,0.495 4.562,0.143 4.623,-0.227 4.623,-0.622" /></g><g
           transform="translate(159.5107,59.5215)"
           id="g70"><path
             id="path72"
             style="fill:#00adb9;fill-opacity:1;fill-rule:nonzero;stroke:none"
             d="m 0,0 v -0.468 c 0.185,0.206 0.422,0.36 0.711,0.468 0.295,0.11 0.641,0.165 1.039,0.165 0.742,0 1.304,-0.18 1.689,-0.536 0.383,-0.358 0.576,-0.852 0.576,-1.483 v -3.49 H 2.626 v 3.236 c 0,0.503 -0.091,0.851 -0.27,1.054 -0.178,0.199 -0.492,0.3 -0.942,0.3 -0.351,0 -0.677,-0.128 -0.982,-0.384 -0.304,-0.254 -0.455,-0.657 -0.455,-1.209 V -5.344 H -1.348 V 0 Z" /></g><g
           transform="translate(166.9873,61.0117)"
           id="g74"><path
             id="path76"
             style="fill:#00adb9;fill-opacity:1;fill-rule:nonzero;stroke:none"
             d="M 0,0 V -1.458 H 1.374 V -2.387 H 0 v -3.021 c 0,-0.29 0.042,-0.473 0.131,-0.551 0.088,-0.081 0.231,-0.117 0.432,-0.117 0.114,0 0.253,0.005 0.407,0.017 0.156,0.013 0.314,0.059 0.48,0.13 V -6.845 C 1.308,-6.892 1.136,-6.925 0.93,-6.949 0.727,-6.976 0.558,-6.987 0.425,-6.987 c -0.242,0 -0.471,0.02 -0.687,0.065 -0.218,0.035 -0.403,0.113 -0.562,0.223 -0.159,0.101 -0.286,0.24 -0.378,0.415 -0.089,0.177 -0.139,0.401 -0.139,0.663 v 3.234 H -2.55 v 0.929 h 1.209 V 0 Z" /></g><g
           transform="translate(170.252,55.6982)"
           id="g78"><path
             id="path80"
             style="fill:#00adb9;fill-opacity:1;fill-rule:nonzero;stroke:none"
             d="m 0,0 c 0,-0.308 0.084,-0.508 0.256,-0.609 0.169,-0.097 0.43,-0.147 0.781,-0.147 0.325,0 0.589,0.047 0.794,0.141 0.203,0.101 0.361,0.226 0.482,0.391 0.107,0.163 0.181,0.348 0.22,0.554 0.045,0.209 0.066,0.422 0.066,0.649 H 1.885 C 1.594,0.979 1.308,0.95 1.023,0.897 0.739,0.851 0.497,0.758 0.297,0.616 0.1,0.476 0,0.273 0,0 M 2.56,1.897 V 2.132 C 2.526,2.501 2.411,2.754 2.216,2.882 2.021,3.007 1.734,3.069 1.362,3.069 1.037,3.069 0.773,3.016 0.58,2.904 0.384,2.796 0.264,2.549 0.225,2.161 h -1.451 c 0.016,0.32 0.103,0.596 0.261,0.825 0.161,0.232 0.36,0.424 0.602,0.576 0.238,0.14 0.511,0.247 0.818,0.318 0.301,0.071 0.612,0.108 0.93,0.108 0.751,0 1.356,-0.159 1.82,-0.474 C 3.666,3.194 3.896,2.728 3.887,2.1 v -2.715 c 0,-0.119 0,-0.258 0.014,-0.413 0.002,-0.16 0.037,-0.321 0.085,-0.493 H 2.622 l -0.01,0.51 C 2.511,-1.161 2.303,-1.31 1.984,-1.457 1.669,-1.608 1.308,-1.686 0.898,-1.686 c -0.798,0 -1.386,0.153 -1.768,0.447 -0.379,0.297 -0.569,0.713 -0.569,1.258 0,0.367 0.125,0.691 0.376,0.975 0.25,0.283 0.577,0.492 0.989,0.636 0.214,0.085 0.45,0.142 0.702,0.18 0.255,0.038 0.503,0.064 0.747,0.077 0.231,0.009 0.453,0.01 0.661,0.01 z" /></g><path
           id="path82"
           style="fill:#00adb9;fill-opacity:1;fill-rule:nonzero;stroke:none"
           d="m 177.051,54.199 h -1.364 v 7.812 h 1.364 z" /><g
           transform="translate(189.3271,59.8281)"
           id="g84"><path
             id="path86"
             style="fill:#00adb9;fill-opacity:1;fill-rule:nonzero;stroke:none"
             d="M 0,0 H -1.463 C -1.546,0.449 -1.756,0.771 -2.1,0.965 -2.441,1.157 -2.851,1.257 -3.32,1.257 -3.815,1.257 -4.227,1.168 -4.558,0.99 -4.887,0.813 -5.146,0.582 -5.337,0.296 -5.539,0.009 -5.678,-0.313 -5.76,-0.674 c -0.087,-0.358 -0.125,-0.728 -0.125,-1.1 0,-0.38 0.038,-0.753 0.125,-1.112 0.082,-0.361 0.221,-0.685 0.423,-0.97 0.191,-0.285 0.45,-0.514 0.779,-0.686 0.331,-0.178 0.743,-0.263 1.238,-0.263 0.469,0 0.875,0.094 1.209,0.284 0.332,0.185 0.565,0.537 0.699,1.052 h 1.461 c -0.06,-0.387 -0.187,-0.724 -0.385,-1.01 -0.203,-0.294 -0.457,-0.531 -0.767,-0.723 -0.305,-0.196 -0.651,-0.342 -1.037,-0.439 -0.382,-0.093 -0.786,-0.142 -1.21,-0.142 -0.708,0 -1.318,0.107 -1.818,0.327 -0.507,0.216 -0.922,0.511 -1.243,0.889 -0.326,0.364 -0.567,0.792 -0.717,1.272 -0.147,0.482 -0.224,0.989 -0.224,1.521 0,0.51 0.079,1.006 0.232,1.492 0.157,0.486 0.396,0.916 0.717,1.294 0.328,0.372 0.744,0.674 1.247,0.901 0.503,0.228 1.108,0.34 1.806,0.34 0.401,0 0.788,-0.041 1.169,-0.132 C -1.802,2.032 -1.458,1.898 -1.148,1.714 -0.841,1.529 -0.586,1.298 -0.382,1.017 -0.177,0.733 -0.049,0.396 0,0" /></g><path
           id="path88"
           style="fill:#00adb9;fill-opacity:1;fill-rule:nonzero;stroke:none"
           d="m 191.879,54.199 h -1.364 v 7.812 h 1.364 z" /><path
           id="path90"
           style="fill:#00adb9;fill-opacity:1;fill-rule:nonzero;stroke:none"
           d="m 193.418,59.655 h 1.36 v -5.456 h -1.36 z m 1.408,1.132 h -1.461 v 1.131 h 1.461 z" /><g
           transform="translate(197.7158,59.5215)"
           id="g92"><path
             id="path94"
             style="fill:#00adb9;fill-opacity:1;fill-rule:nonzero;stroke:none"
             d="m 0,0 v -0.468 c 0.182,0.206 0.421,0.36 0.714,0.468 0.291,0.11 0.635,0.165 1.036,0.165 0.741,0 1.304,-0.18 1.687,-0.536 0.384,-0.358 0.575,-0.852 0.575,-1.483 v -3.49 H 2.624 v 3.236 c 0,0.503 -0.091,0.851 -0.268,1.054 -0.177,0.199 -0.492,0.3 -0.943,0.3 -0.35,0 -0.68,-0.128 -0.983,-0.384 -0.305,-0.254 -0.455,-0.657 -0.455,-1.209 V -5.344 H -1.354 V 0 Z" /></g><path
           id="path96"
           style="fill:#00adb9;fill-opacity:1;fill-rule:nonzero;stroke:none"
           d="m 203.342,59.655 h 1.362 v -5.456 h -1.362 z m 1.413,1.132 h -1.464 v 1.131 h 1.464 z" /><g
           transform="translate(211.5195,57.585)"
           id="g98"><path
             id="path100"
             style="fill:#00adb9;fill-opacity:1;fill-rule:nonzero;stroke:none"
             d="m 0,0 h -1.453 c -0.031,0.448 -0.159,0.758 -0.384,0.928 -0.219,0.172 -0.542,0.255 -0.967,0.255 -0.449,0 -0.806,-0.177 -1.081,-0.532 -0.27,-0.354 -0.406,-0.814 -0.406,-1.385 0,-0.567 0.132,-1.023 0.401,-1.376 0.265,-0.355 0.625,-0.533 1.076,-0.533 0.389,0 0.703,0.089 0.929,0.261 0.231,0.175 0.374,0.487 0.432,0.945 h 1.475 c -0.125,-0.718 -0.442,-1.25 -0.952,-1.603 -0.506,-0.355 -1.122,-0.532 -1.848,-0.532 -0.5,0 -0.932,0.081 -1.307,0.234 -0.37,0.156 -0.68,0.37 -0.93,0.636 -0.242,0.265 -0.421,0.565 -0.544,0.905 -0.119,0.339 -0.182,0.695 -0.182,1.063 0,0.352 0.065,0.701 0.193,1.039 0.13,0.341 0.317,0.643 0.569,0.909 0.256,0.262 0.582,0.476 0.956,0.64 0.38,0.165 0.818,0.248 1.32,0.248 0.351,0 0.682,-0.047 1,-0.143 C -1.386,1.861 -1.109,1.727 -0.865,1.552 -0.623,1.373 -0.427,1.154 -0.271,0.894 -0.117,0.631 -0.026,0.334 0,0" /></g><g
           transform="translate(142.3477,64.8428)"
           id="g102"><path
             id="path104"
             style="fill:#00adb9;fill-opacity:1;fill-rule:nonzero;stroke:none"
             d="m 0,0 c -0.176,0 -0.292,0.027 -0.348,0.074 -0.059,0.047 -0.09,0.141 -0.09,0.28 V 9.946 H 1.385 V 1.251 H 6.963 V 0 Z" /></g><g
           transform="translate(142.4063,65.3438)"
           id="g106"><path
             id="path108"
             style="fill:#00adb9;fill-opacity:1;fill-rule:nonzero;stroke:none"
             d="M 0,0 H 6.407 V 0.252 H 0.829 V 8.947 H 0 Z m 7.405,-1.003 h -7.464 c -0.19,0 -0.462,0.022 -0.665,0.188 -0.179,0.148 -0.27,0.372 -0.27,0.669 v 10.09 h 2.82 V 1.249 h 5.579 z" /></g><g
           transform="translate(152.3105,69.8164)"
           id="g110"><path
             id="path112"
             style="fill:#00adb9;fill-opacity:1;fill-rule:nonzero;stroke:none"
             d="m 0,0 c 0,-0.519 0.062,-1.013 0.187,-1.49 0.123,-0.471 0.325,-0.887 0.604,-1.247 0.278,-0.359 0.638,-0.642 1.077,-0.857 0.441,-0.21 0.974,-0.314 1.599,-0.314 0.612,0 1.139,0.104 1.577,0.314 0.443,0.215 0.803,0.498 1.084,0.857 0.278,0.36 0.483,0.776 0.62,1.247 C 6.884,-1.013 6.95,-0.519 6.95,0 6.95,0.508 6.884,0.996 6.748,1.468 6.611,1.937 6.406,2.348 6.128,2.713 5.847,3.069 5.487,3.358 5.044,3.577 4.606,3.799 4.079,3.908 3.467,3.908 2.842,3.908 2.309,3.799 1.868,3.577 1.429,3.358 1.069,3.069 0.791,2.713 0.512,2.348 0.31,1.937 0.187,1.468 0.062,0.996 0,0.508 0,0 M 8.852,0 C 8.852,-0.763 8.729,-1.464 8.481,-2.098 8.234,-2.734 7.882,-3.281 7.432,-3.736 6.969,-4.191 6.4,-4.543 5.729,-4.796 5.061,-5.046 4.297,-5.171 3.449,-5.171 c -0.872,0 -1.635,0.125 -2.297,0.375 -0.66,0.253 -1.217,0.605 -1.669,1.06 -0.453,0.455 -0.793,1.002 -1.025,1.638 -0.229,0.634 -0.346,1.335 -0.346,2.098 0,0.754 0.117,1.45 0.346,2.085 0.232,0.638 0.572,1.185 1.025,1.638 0.452,0.455 1.009,0.811 1.669,1.065 C 1.814,5.04 2.577,5.17 3.449,5.17 4.297,5.17 5.061,5.04 5.729,4.788 6.4,4.534 6.969,4.178 7.432,3.723 7.882,3.27 8.234,2.723 8.481,2.085 8.729,1.45 8.852,0.754 8.852,0" /></g><g
           transform="translate(155.7773,73.2217)"
           id="g114"><path
             id="path116"
             style="fill:#00adb9;fill-opacity:1;fill-rule:nonzero;stroke:none"
             d="m 0,0 c -0.544,0 -1.005,-0.092 -1.374,-0.271 -0.373,-0.188 -0.677,-0.432 -0.91,-0.732 -0.236,-0.304 -0.41,-0.664 -0.517,-1.062 -0.108,-0.427 -0.166,-0.877 -0.166,-1.34 0,-0.475 0.058,-0.932 0.166,-1.36 0.107,-0.406 0.281,-0.767 0.517,-1.072 0.235,-0.298 0.526,-0.531 0.902,-0.711 0.371,-0.177 0.836,-0.265 1.382,-0.265 0.534,0 0.991,0.088 1.364,0.265 0.372,0.18 0.669,0.413 0.905,0.711 0.233,0.307 0.413,0.669 0.533,1.081 0.12,0.429 0.182,0.882 0.182,1.351 0,0.458 -0.062,0.905 -0.182,1.33 C 2.684,-1.671 2.502,-1.313 2.265,-1 2.033,-0.703 1.726,-0.459 1.356,-0.271 0.987,-0.092 0.53,0 0,0 m 0,-7.811 c -0.694,0 -1.304,0.122 -1.812,0.362 -0.513,0.246 -0.935,0.581 -1.26,1 -0.318,0.412 -0.554,0.892 -0.696,1.432 -0.131,0.51 -0.196,1.051 -0.196,1.612 0,0.55 0.065,1.086 0.196,1.592 0.142,0.533 0.378,1.013 0.696,1.424 0.325,0.417 0.745,0.756 1.253,1.008 0.506,0.253 1.119,0.38 1.819,0.38 0.688,0 1.293,-0.127 1.802,-0.38 C 2.307,0.367 2.729,0.028 3.054,-0.389 3.372,-0.798 3.608,-1.276 3.761,-1.801 3.909,-2.315 3.98,-2.854 3.98,-3.405 3.98,-3.968 3.909,-4.51 3.761,-5.03 3.608,-5.564 3.372,-6.04 3.054,-6.449 2.729,-6.868 2.305,-7.203 1.794,-7.449 1.287,-7.689 0.686,-7.811 0,-7.811 m -0.018,9.076 c -0.804,0 -1.515,-0.115 -2.116,-0.349 -0.595,-0.227 -1.097,-0.547 -1.495,-0.948 -0.398,-0.403 -0.705,-0.896 -0.91,-1.457 -0.21,-0.58 -0.316,-1.224 -0.316,-1.916 0,-0.701 0.106,-1.351 0.316,-1.927 0.205,-0.564 0.512,-1.055 0.91,-1.458 0.398,-0.403 0.899,-0.721 1.492,-0.941 0.598,-0.231 1.315,-0.348 2.119,-0.348 0.787,0 1.497,0.117 2.11,0.348 0.603,0.22 1.113,0.54 1.521,0.947 0.399,0.397 0.714,0.891 0.936,1.462 0.224,0.576 0.338,1.218 0.338,1.917 0,0.688 -0.114,1.33 -0.338,1.906 C 4.33,-0.933 4.012,-0.438 3.61,-0.032 3.205,0.367 2.691,0.688 2.088,0.916 1.475,1.148 0.769,1.265 -0.018,1.265 m 0,-10.34 c -0.927,0 -1.759,0.139 -2.473,0.408 -0.726,0.275 -1.346,0.67 -1.846,1.174 -0.503,0.509 -0.882,1.12 -1.138,1.817 -0.249,0.688 -0.378,1.455 -0.378,2.271 0,0.81 0.129,1.569 0.378,2.254 0.256,0.701 0.635,1.312 1.138,1.82 0.5,0.505 1.117,0.901 1.843,1.18 0.717,0.273 1.549,0.416 2.476,0.416 0.907,0 1.735,-0.143 2.457,-0.416 C 3.176,1.571 3.806,1.176 4.316,0.674 4.816,0.167 5.208,-0.442 5.479,-1.142 5.746,-1.83 5.884,-2.594 5.884,-3.405 5.884,-4.227 5.746,-4.993 5.479,-5.684 5.208,-6.381 4.816,-6.988 4.319,-7.493 3.806,-7.997 3.174,-8.394 2.439,-8.67 1.717,-8.938 0.889,-9.075 -0.018,-9.075" /></g><g
           transform="translate(170.8203,67.8955)"
           id="g118"><path
             id="path120"
             style="fill:#00adb9;fill-opacity:1;fill-rule:nonzero;stroke:none"
             d="M 0,0 0.531,-0.971 0.484,0.038 v 6.856 h 1.788 v -9.565 c 0,-0.14 -0.028,-0.232 -0.087,-0.284 -0.058,-0.048 -0.167,-0.07 -0.331,-0.07 H 0.563 C 0.403,-3.025 0.286,-3 0.208,-2.947 0.135,-2.894 0.08,-2.82 0.05,-2.724 l -4.664,6.593 -0.53,0.975 0.049,-1.015 v -6.882 h -1.791 v 9.591 c 0,0.131 0.029,0.225 0.079,0.275 0.057,0.054 0.167,0.081 0.34,0.081 h 1.243 c 0.15,0 0.261,-0.03 0.336,-0.087 0.076,-0.055 0.137,-0.129 0.178,-0.216 z" /></g><g
           transform="translate(171.3271,65.3691)"
           id="g122"><path
             id="path124"
             style="fill:#00adb9;fill-opacity:1;fill-rule:nonzero;stroke:none"
             d="m 0,0 h 0.056 0.25 L -0.929,2.261 -5.646,8.86 -5.664,8.898 C -5.67,8.903 -5.67,8.914 -5.675,8.92 -5.688,8.922 -5.707,8.922 -5.73,8.922 h -0.2 L -4.695,6.659 -0.01,0.029 Z M 0.6,0 H 1.265 V 8.922 H 0.475 V 2.58 Z m -7.494,-0.025 h 0.792 v 6.367 l -0.119,2.58 h -0.673 z m 1.79,-1.003 h -2.79 V 9.064 c 0,0.269 0.079,0.481 0.234,0.634 0.204,0.195 0.49,0.221 0.686,0.221 h 1.244 c 0.258,0 0.475,-0.063 0.638,-0.188 0.128,-0.095 0.23,-0.215 0.303,-0.353 L -0.523,3.406 V 9.919 H 2.266 V -0.145 c 0,-0.294 -0.091,-0.521 -0.27,-0.668 C 1.837,-0.939 1.631,-0.999 1.347,-0.999 H 0.056 c -0.269,0 -0.477,0.057 -0.639,0.169 -0.14,0.1 -0.25,0.236 -0.316,0.395 l -4.205,5.944 z" /></g><g
           transform="translate(178.0918,66.0938)"
           id="g126"><path
             id="path128"
             style="fill:#00adb9;fill-opacity:1;fill-rule:nonzero;stroke:none"
             d="M 0,0 H 1.887 C 3.241,0 4.236,0.324 4.87,0.974 5.506,1.621 5.82,2.532 5.82,3.71 5.82,5.081 5.401,6.05 4.565,6.631 3.725,7.208 2.563,7.479 1.082,7.445 H 0 Z M -1.37,8.695 H 1.435 C 3.402,8.695 4.933,8.271 6.032,7.422 7.125,6.57 7.674,5.336 7.674,3.723 7.674,2.093 7.125,0.856 6.032,0.013 4.933,-0.832 3.402,-1.251 1.435,-1.251 H -1.37 c -0.172,0 -0.288,0.027 -0.346,0.074 -0.059,0.047 -0.088,0.141 -0.088,0.281 V 8.34 c 0,0.131 0.029,0.224 0.088,0.274 0.058,0.055 0.174,0.081 0.346,0.081" /></g><g
           transform="translate(178.5918,66.5928)"
           id="g130"><path
             id="path132"
             style="fill:#00adb9;fill-opacity:1;fill-rule:nonzero;stroke:none"
             d="M 0,0 H 1.387 C 2.595,0 3.478,0.275 4.012,0.824 4.558,1.381 4.823,2.161 4.823,3.211 4.823,4.413 4.478,5.236 3.779,5.72 3.035,6.235 1.957,6.48 0.591,6.448 H 0 Z m 1.387,-0.997 h -2.388 v 8.44 H 0.582 C 0.658,7.446 0.743,7.449 0.83,7.449 2.293,7.449 3.474,7.145 4.348,6.54 5.323,5.866 5.817,4.746 5.817,3.211 5.817,1.904 5.45,0.867 4.728,0.128 3.998,-0.622 2.874,-0.997 1.387,-0.997 m -3.194,-0.252 h 2.742 c 1.844,0 3.29,0.387 4.293,1.155 0.975,0.751 1.45,1.839 1.45,3.318 0,1.463 -0.475,2.546 -1.45,3.3 C 4.223,7.305 2.779,7.698 0.935,7.698 H -1.807 Z M 0.935,-2.252 H -1.87 c -0.187,0 -0.458,0.022 -0.661,0.188 -0.182,0.148 -0.271,0.372 -0.271,0.668 v 9.237 c 0,0.282 0.083,0.496 0.255,0.651 0.206,0.181 0.482,0.203 0.677,0.203 H 0.935 C 3.009,8.695 4.654,8.23 5.84,7.316 7.057,6.369 7.674,4.991 7.674,3.224 7.674,1.436 7.057,0.055 5.834,-0.882 4.654,-1.788 3.007,-2.252 0.935,-2.252" /></g><g
           transform="translate(190.0215,69.8164)"
           id="g134"><path
             id="path136"
             style="fill:#00adb9;fill-opacity:1;fill-rule:nonzero;stroke:none"
             d="m 0,0 c 0,-0.519 0.063,-1.013 0.188,-1.49 0.123,-0.471 0.324,-0.887 0.605,-1.247 0.278,-0.359 0.638,-0.642 1.081,-0.857 0.439,-0.21 0.973,-0.314 1.595,-0.314 0.611,0 1.143,0.104 1.581,0.314 0.441,0.215 0.798,0.498 1.08,0.857 0.28,0.36 0.486,0.776 0.622,1.247 0.13,0.477 0.2,0.971 0.2,1.49 0,0.508 -0.07,0.996 -0.2,1.468 C 6.616,1.937 6.41,2.348 6.13,2.713 5.848,3.069 5.491,3.358 5.05,3.577 4.612,3.799 4.08,3.908 3.469,3.908 2.847,3.908 2.313,3.799 1.874,3.577 1.431,3.358 1.071,3.069 0.793,2.713 0.512,2.348 0.311,1.937 0.188,1.468 0.063,0.996 0,0.508 0,0 M 8.854,0 C 8.854,-0.763 8.729,-1.464 8.483,-2.098 8.235,-2.734 7.89,-3.281 7.437,-3.736 6.976,-4.191 6.406,-4.543 5.734,-4.796 5.063,-5.046 4.303,-5.171 3.453,-5.171 c -0.868,0 -1.635,0.125 -2.299,0.375 -0.661,0.253 -1.216,0.605 -1.668,1.06 -0.451,0.455 -0.792,1.002 -1.023,1.638 -0.232,0.634 -0.349,1.335 -0.349,2.098 0,0.754 0.117,1.45 0.349,2.085 0.231,0.638 0.572,1.185 1.023,1.638 0.452,0.455 1.007,0.811 1.668,1.065 C 1.818,5.04 2.585,5.17 3.453,5.17 4.303,5.17 5.063,5.04 5.734,4.788 6.406,4.534 6.976,4.178 7.437,3.723 7.89,3.27 8.235,2.723 8.483,2.085 8.729,1.45 8.854,0.754 8.854,0" /></g><g
           transform="translate(193.4902,73.2217)"
           id="g138"><path
             id="path140"
             style="fill:#00adb9;fill-opacity:1;fill-rule:nonzero;stroke:none"
             d="m 0,0 c -0.544,0 -1.005,-0.092 -1.371,-0.271 -0.375,-0.188 -0.678,-0.432 -0.911,-0.732 -0.239,-0.304 -0.41,-0.664 -0.517,-1.062 -0.111,-0.427 -0.171,-0.877 -0.171,-1.34 0,-0.472 0.06,-0.93 0.171,-1.36 0.107,-0.406 0.278,-0.767 0.517,-1.072 0.233,-0.298 0.528,-0.531 0.899,-0.711 0.373,-0.177 0.837,-0.265 1.383,-0.265 0.534,0 0.995,0.088 1.367,0.265 0.372,0.18 0.668,0.413 0.902,0.711 0.236,0.307 0.418,0.669 0.533,1.081 0.121,0.427 0.184,0.882 0.184,1.351 0,0.458 -0.063,0.905 -0.184,1.33 C 2.687,-1.671 2.505,-1.313 2.269,-1 2.035,-0.703 1.729,-0.459 1.359,-0.271 0.992,-0.092 0.532,0 0,0 m 0,-7.811 c -0.692,0 -1.304,0.122 -1.813,0.362 -0.509,0.246 -0.934,0.581 -1.258,1 -0.318,0.412 -0.553,0.892 -0.694,1.432 -0.134,0.51 -0.199,1.055 -0.199,1.612 0,0.55 0.068,1.086 0.199,1.592 0.141,0.533 0.376,1.013 0.694,1.424 0.322,0.417 0.746,0.756 1.254,1.008 0.505,0.253 1.118,0.38 1.817,0.38 0.69,0 1.294,-0.127 1.805,-0.38 C 2.307,0.367 2.729,0.028 3.054,-0.389 3.372,-0.798 3.608,-1.276 3.762,-1.801 3.904,-2.312 3.98,-2.854 3.98,-3.405 3.98,-3.968 3.904,-4.51 3.762,-5.03 3.608,-5.564 3.372,-6.04 3.054,-6.449 2.729,-6.868 2.307,-7.203 1.797,-7.449 1.288,-7.689 0.685,-7.811 0,-7.811 m -0.016,9.076 c -0.806,0 -1.517,-0.115 -2.12,-0.349 -0.593,-0.227 -1.092,-0.547 -1.493,-0.948 -0.398,-0.403 -0.705,-0.896 -0.908,-1.457 -0.212,-0.58 -0.318,-1.224 -0.318,-1.916 0,-0.701 0.106,-1.351 0.318,-1.927 0.203,-0.564 0.51,-1.055 0.908,-1.458 0.401,-0.403 0.899,-0.721 1.491,-0.941 0.603,-0.231 1.314,-0.348 2.122,-0.348 0.787,0 1.497,0.117 2.107,0.348 0.604,0.22 1.116,0.54 1.525,0.947 0.396,0.4 0.711,0.891 0.936,1.462 0.222,0.576 0.336,1.218 0.336,1.917 0,0.688 -0.114,1.33 -0.336,1.906 C 4.327,-0.933 4.012,-0.438 3.61,-0.032 3.205,0.367 2.692,0.688 2.088,0.916 1.477,1.148 0.769,1.265 -0.016,1.265 m 0,-10.34 c -0.929,0 -1.759,0.139 -2.475,0.408 -0.725,0.275 -1.347,0.67 -1.846,1.174 -0.5,0.505 -0.886,1.12 -1.138,1.817 -0.252,0.688 -0.377,1.455 -0.377,2.271 0,0.81 0.125,1.569 0.377,2.254 0.252,0.701 0.638,1.312 1.138,1.82 0.499,0.505 1.121,0.901 1.844,1.18 0.716,0.273 1.548,0.416 2.477,0.416 0.904,0 1.731,-0.143 2.458,-0.416 C 3.176,1.571 3.81,1.176 4.313,0.674 4.816,0.167 5.207,-0.442 5.48,-1.142 5.749,-1.83 5.884,-2.594 5.884,-3.405 5.884,-4.227 5.749,-4.993 5.48,-5.684 5.207,-6.381 4.816,-6.988 4.321,-7.493 3.81,-7.997 3.176,-8.394 2.44,-8.67 1.714,-8.938 0.888,-9.075 -0.016,-9.075" /></g><g
           transform="translate(208.5342,67.8955)"
           id="g142"><path
             id="path144"
             style="fill:#00adb9;fill-opacity:1;fill-rule:nonzero;stroke:none"
             d="M 0,0 0.529,-0.971 0.483,0.038 v 6.856 h 1.791 v -9.565 c 0,-0.14 -0.031,-0.232 -0.09,-0.284 -0.058,-0.048 -0.173,-0.07 -0.33,-0.07 H 0.561 C 0.405,-3.025 0.284,-3 0.21,-2.947 0.134,-2.894 0.08,-2.82 0.051,-2.724 l -4.66,6.593 -0.537,0.975 0.052,-1.015 v -6.882 h -1.791 v 9.591 c 0,0.131 0.026,0.225 0.083,0.275 0.05,0.054 0.163,0.081 0.333,0.081 h 1.242 c 0.155,0 0.264,-0.03 0.342,-0.087 0.074,-0.055 0.134,-0.129 0.176,-0.216 z" /></g><g
           transform="translate(209.043,65.3691)"
           id="g146"><path
             id="path148"
             style="fill:#00adb9;fill-opacity:1;fill-rule:nonzero;stroke:none"
             d="m 0,0 h 0.052 0.25 L -0.932,2.261 -5.645,8.86 -5.664,8.898 c -0.004,0.005 -0.008,0.016 -0.014,0.022 -0.01,0.002 -0.028,0.002 -0.057,0.002 h -0.198 l 1.234,-2.263 4.688,-6.63 z M 0.6,0 H 1.266 V 8.922 H 0.472 V 2.58 Z m -7.496,-0.025 h 0.792 v 6.367 l -0.121,2.58 h -0.671 z m 1.792,-1.003 H -7.893 V 9.064 c 0,0.269 0.078,0.485 0.234,0.637 0.198,0.192 0.487,0.218 0.681,0.218 h 1.243 c 0.259,0 0.475,-0.063 0.643,-0.188 0.125,-0.095 0.227,-0.215 0.302,-0.353 L -0.526,3.406 V 9.919 H 2.263 V -0.145 C 2.263,-0.439 2.174,-0.666 1.991,-0.813 1.835,-0.939 1.63,-0.999 1.346,-0.999 H 0.052 c -0.265,0 -0.476,0.057 -0.638,0.169 -0.141,0.1 -0.25,0.236 -0.317,0.395 l -4.201,5.944 z" /></g></g></g></g></svg>
