<?xml version="1.0" encoding="UTF-8" standalone="no"?>
<svg
   xmlns:dc="http://purl.org/dc/elements/1.1/"
   xmlns:cc="http://creativecommons.org/ns#"
   xmlns:rdf="http://www.w3.org/1999/02/22-rdf-syntax-ns#"
   xmlns:svg="http://www.w3.org/2000/svg"
   xmlns="http://www.w3.org/2000/svg"
   xmlns:sodipodi="http://sodipodi.sourceforge.net/DTD/sodipodi-0.dtd"
   xmlns:inkscape="http://www.inkscape.org/namespaces/inkscape"
   inkscape:version="1.0 (4035a4fb49, 2020-05-01)"
   sodipodi:docname="스티커.ai"
   viewBox="0 0 493.81612 695.56226"
   height="695.56226"
   width="493.81613"
   xml:space="preserve"
   id="svg2"
   version="1.1"><metadata
     id="metadata8"><rdf:RDF><cc:Work
         rdf:about=""><dc:format>image/svg+xml</dc:format><dc:type
           rdf:resource="http://purl.org/dc/dcmitype/StillImage" /><dc:title></dc:title></cc:Work></rdf:RDF></metadata><defs
     id="defs6"><clipPath
       id="clipPath18"
       clipPathUnits="userSpaceOnUse"><path
         id="path16"
         d="M 0,595.28 H 841.89 V 0 H 0 Z" /></clipPath></defs><sodipodi:namedview
     inkscape:current-layer="g10"
     inkscape:window-maximized="1"
     inkscape:window-y="-9"
     inkscape:window-x="-9"
     inkscape:cy="450.3655"
     inkscape:cx="256.57068"
     inkscape:zoom="1.0457264"
     fit-margin-bottom="0"
     fit-margin-right="0"
     fit-margin-left="0"
     fit-margin-top="0"
     inkscape:pagecheckerboard="true"
     showgrid="false"
     id="namedview4"
     inkscape:window-height="1001"
     inkscape:window-width="1920"
     inkscape:pageshadow="2"
     inkscape:pageopacity="0"
     guidetolerance="10"
     gridtolerance="10"
     objecttolerance="10"
     borderopacity="1"
     bordercolor="#666666"
     pagecolor="#ffffff" /><g
     transform="matrix(1.3333333,0,0,-1.3333333,-304.68933,748.03465)"
     inkscape:label="스티커"
     inkscape:groupmode="layer"
     id="g10"><g
       id="g12"><g
         clip-path="url(#clipPath18)"
         id="g14"><g
           transform="translate(327.1074,181.9355)"
           id="g20"><path
             id="path22"
             style="fill:#00adb9;fill-opacity:1;fill-rule:nonzero;stroke:none"
             d="m 0,0 h 9.177 v 13.733 h 7.42 V -29.746 H 9.177 V -6.119 H 0 Z m -20.894,-43.415 c -0.694,0 -1.161,0.131 -1.399,0.391 -0.239,0.26 -0.358,0.738 -0.358,1.431 v 16.207 h 7.421 v -11.781 h 32.999 v -6.248 z m -5.988,41.396 h 17.054 v 7.746 h -18.877 v 6.119 h 24.279 c 0.651,0 1.116,-0.142 1.399,-0.423 0.281,-0.282 0.423,-0.749 0.423,-1.4 V -6.055 c 0,-0.694 -0.142,-1.171 -0.423,-1.431 -0.283,-0.26 -0.748,-0.391 -1.399,-0.391 h -16.989 v -7.484 h 6.965 c 1.258,0 2.69,0.053 4.296,0.162 1.605,0.108 3.233,0.249 4.882,0.424 1.649,0.129 3.254,0.302 4.816,0.52 1.562,0.216 2.93,0.433 4.102,0.651 v -6.053 c -1.13,-0.218 -2.497,-0.424 -4.102,-0.618 -1.606,-0.197 -3.319,-0.359 -5.142,-0.489 -1.866,-0.174 -3.775,-0.325 -5.728,-0.456 -1.952,-0.13 -3.839,-0.195 -5.662,-0.195 -0.478,0 -1.237,-0.011 -2.279,-0.033 -1.041,-0.022 -2.104,-0.031 -3.189,-0.031 h -2.994 -1.432 c -0.695,0 -1.171,0.129 -1.432,0.39 -0.26,0.26 -0.391,0.737 -0.391,1.432 v 15.816 c 0,0.651 0.131,1.117 0.391,1.4 0.261,0.282 0.737,0.422 1.432,0.422" /></g><g
           transform="translate(396.4917,153.4912)"
           id="g24"><path
             id="path26"
             style="fill:#00adb9;fill-opacity:1;fill-rule:nonzero;stroke:none"
             d="m 0,0 v 22.456 h -14.97 v 6.183 H 0 V 42.178 H 7.355 V 0 Z m -30.136,-14.971 c -0.695,0 -1.161,0.131 -1.4,0.391 -0.238,0.261 -0.358,0.738 -0.358,1.432 V 4.166 h 7.421 V -8.723 h 33 v -6.248 z m -5.792,54.805 h 25.449 V 33.586 H -30.526 V 15.231 l 7.095,0.195 c 1.778,0.043 3.589,0.108 5.434,0.195 1.845,0.086 3.59,0.217 5.24,0.391 1.648,0.13 3.157,0.282 4.523,0.456 1.368,0.173 2.484,0.368 3.353,0.586 V 11.065 C -5.62,10.848 -6.704,10.63 -8.136,10.414 -9.568,10.196 -11.174,10.001 -12.953,9.828 -14.775,9.654 -16.706,9.503 -18.745,9.373 -20.786,9.242 -22.803,9.178 -24.799,9.178 -25.276,9.134 -26.112,9.101 -27.304,9.08 -28.499,9.058 -29.724,9.047 -30.982,9.047 h -3.385 -1.627 c -0.695,0 -1.161,0.131 -1.399,0.391 -0.239,0.26 -0.358,0.737 -0.358,1.431 v 27.143 c 0,0.65 0.13,1.117 0.39,1.399 0.26,0.281 0.737,0.423 1.433,0.423" /></g><path
           id="path28"
           style="fill:#00adb9;fill-opacity:1;fill-rule:nonzero;stroke:none"
           d="m 465.226,137.414 h -7.485 v 58.255 h 7.485 z m -39.964,57.474 h 18.094 V 188.9 h -18.094 z m -6.77,-10.74 h 31.697 v -6.249 h -11.845 v -2.408 c 0,-4.296 1.236,-8.343 3.71,-12.139 2.473,-3.797 5.858,-6.781 10.154,-8.95 l -5.077,-5.077 c -3.038,1.952 -5.62,4.078 -7.745,6.379 -2.128,2.3 -3.776,4.73 -4.948,7.29 -1.084,-2.517 -2.733,-5.044 -4.946,-7.583 -2.214,-2.538 -5.012,-5.022 -8.397,-7.453 l -5.923,5.013 c 4.729,2.733 8.429,5.976 11.098,9.73 2.668,3.753 4.024,8.016 4.068,12.79 v 2.408 h -11.846 z" /><g
           transform="translate(529.8594,165.7275)"
           id="g30"><path
             id="path32"
             style="fill:#00adb9;fill-opacity:1;fill-rule:nonzero;stroke:none"
             d="m 0,0 h -7.811 v -28.313 h -7.291 v 58.319 h 7.291 V 6.509 H 0 Z m -23.367,26.622 c 0.65,0 1.116,-0.142 1.399,-0.424 0.281,-0.283 0.423,-0.748 0.423,-1.399 -0.13,-5.207 -0.391,-10.165 -0.781,-14.873 -0.391,-4.709 -0.934,-9.297 -1.628,-13.766 h -7.55 c 0.261,1.605 0.521,3.418 0.781,5.435 0.26,2.017 0.498,4.09 0.716,6.216 0.173,2.169 0.335,4.339 0.488,6.509 0.152,2.169 0.229,4.208 0.229,6.118 h -22.587 v 6.184 z m -31.439,-36.906 h 10.544 V 8.267 h 7.291 v -18.551 c 1.083,0 2.527,0.055 4.328,0.163 1.801,0.108 3.678,0.227 5.63,0.357 1.953,0.131 3.851,0.283 5.696,0.457 1.843,0.172 3.373,0.368 4.588,0.585 v -6.183 c -1.475,-0.218 -3.298,-0.423 -5.467,-0.618 -2.17,-0.196 -4.6,-0.381 -7.29,-0.553 -2.647,-0.131 -5.511,-0.25 -8.592,-0.359 -3.081,-0.108 -6.271,-0.163 -9.568,-0.163 h -7.16 z" /></g><g
           transform="translate(465.2383,491.5776)"
           id="g34"><path
             id="path36"
             style="fill:#ffffff;fill-opacity:1;fill-rule:nonzero;stroke:none"
             d="M 0,0 H -1.029 L -51.106,-6.918 -101.184,0 h -1.031 c -14.147,-2.228 -16.532,-13.67 -16.418,-21.597 l 20.875,-119.169 c 1.456,-3.08 6.652,-11.779 15.237,-1.567 l 21.114,31.033 c 0.379,0.474 4.53,5.536 10.301,5.661 5.768,-0.125 9.923,-5.187 10.298,-5.661 l 21.115,-31.033 c 8.587,-10.212 13.781,-1.513 15.237,1.567 L 16.419,-21.597 C 16.534,-13.67 14.15,-2.228 0,0" /></g><g
           transform="translate(457.0449,352.0151)"
           id="g38"><path
             id="path40"
             style="fill:#00adb9;fill-opacity:1;fill-rule:nonzero;stroke:none"
             d="m 0,0 c -1.042,-1.999 -2.381,-3.4 -3.286,-3.4 -0.77,0 -2.288,0.827 -4.264,3.127 l -21.362,31.399 -0.198,0.269 c -0.942,1.189 -6.028,7.124 -13.603,7.459 l -0.2,0.01 -0.2,-0.01 c -7.582,-0.335 -12.664,-6.273 -13.604,-7.461 l -0.107,-0.128 -21.455,-31.538 c -1.973,-2.304 -3.492,-3.127 -4.261,-3.127 -0.907,0 -2.244,1.401 -3.284,3.4 l -21.078,120.322 c -0.055,11.746 5.857,15.258 9.987,16.479 0.954,0.232 2.368,0.543 3.346,0.595 l 37.617,-3.777 -9.901,-2.012 c -2.456,-0.496 -4.042,-2.89 -3.543,-5.344 0.437,-2.147 2.326,-3.631 4.438,-3.631 0.298,0 0.603,0.032 0.905,0.091 l 46.005,9.335 26.728,5.284 c 3.612,-0.602 12.464,-2.666 12.395,-17.02 z m 9.6,146.375 -0.352,0.057 H 7.911 l -18.807,-3.719 c -0.2,-0.012 -0.402,-0.034 -0.604,-0.077 l -8.303,-1.683 -23.11,-4.57 -50.825,10.049 h -1.338 l -0.351,-0.057 c -13.265,-2.091 -20.75,-11.763 -20.537,-26.536 l 0.003,-0.358 21.318,-121.69 0.106,-0.6 0.261,-0.552 c 2.73,-5.784 7.008,-9.107 11.736,-9.107 3.883,0 7.7,2.197 11.341,6.528 l 0.151,0.178 21.52,31.634 c 0.936,1.12 3.65,3.677 6.615,3.916 3.352,-0.264 6.119,-3.337 6.624,-3.931 l 21.382,-31.427 0.129,-0.192 0.147,-0.178 c 3.642,-4.328 7.459,-6.528 11.345,-6.528 4.727,0 9.007,3.323 11.733,9.107 l 0.263,0.552 21.363,121.933 0.059,0.357 0.004,0.358 c 0.213,14.773 -7.272,24.445 -20.536,26.536" /></g><path
           id="path42"
           style="fill:#d6d6d6;fill-opacity:1;fill-rule:nonzero;stroke:none"
           d="M 515.183,524.94 H 313.079 v 2.675 h 202.104 z" /><path
           id="path44"
           style="fill:#d6d6d6;fill-opacity:1;fill-rule:nonzero;stroke:none"
           d="M 515.183,313.892 H 313.079 v 2.672 h 202.104 z" /><g
           transform="translate(314.499,229.2803)"
           id="g46"><path
             id="path48"
             style="fill:#727273;fill-opacity:1;fill-rule:nonzero;stroke:none"
             d="m 0,0 h 4.386 c 3.149,0 5.461,0.754 6.936,2.264 1.474,1.508 2.212,3.63 2.212,6.362 0,3.182 -0.975,5.445 -2.924,6.791 -1.95,1.347 -4.65,1.979 -8.098,1.897 H 0 Z m -3.188,20.221 h 6.524 c 4.574,0 8.135,-0.991 10.685,-2.968 2.549,-1.979 3.824,-4.844 3.824,-8.596 0,-3.793 -1.275,-6.669 -3.824,-8.626 C 11.471,-1.928 7.91,-2.905 3.336,-2.905 h -6.524 c -0.4,0 -0.668,0.056 -0.805,0.168 -0.138,0.112 -0.207,0.331 -0.207,0.658 v 21.474 c 0,0.306 0.069,0.519 0.207,0.641 0.137,0.123 0.405,0.185 0.805,0.185" /></g><g
           transform="translate(339.9551,236.1016)"
           id="g50"><path
             id="path52"
             style="fill:#727273;fill-opacity:1;fill-rule:nonzero;stroke:none"
             d="M 0,0 H 9.56 C 9.459,1.163 9.017,2.115 8.229,2.86 7.442,3.605 6.273,3.977 4.724,3.977 3.225,3.977 2.087,3.569 1.313,2.753 0.537,1.938 0.1,1.021 0,0 m 13.872,-1.865 c 0,-0.286 -0.076,-0.5 -0.226,-0.643 -0.149,-0.142 -0.374,-0.214 -0.674,-0.214 H -0.113 c 0,-1.326 0.393,-2.453 1.181,-3.381 0.787,-0.927 2.119,-1.39 3.994,-1.39 1.073,0 1.98,0.295 2.717,0.887 0.737,0.59 1.293,1.499 1.668,2.722 h 4.425 c -0.7,-2.264 -1.85,-3.896 -3.45,-4.894 -1.6,-1 -3.599,-1.499 -5.999,-1.499 -1.524,0 -2.842,0.233 -3.955,0.703 -1.112,0.47 -2.031,1.1 -2.756,1.896 -0.75,0.796 -1.299,1.703 -1.649,2.723 -0.35,1.019 -0.525,2.08 -0.525,3.182 0,1.059 0.188,2.1 0.563,3.12 0.375,1.019 0.937,1.926 1.687,2.722 0.75,0.795 1.693,1.438 2.831,1.927 C 1.755,6.485 3.086,6.73 4.611,6.73 6.21,6.73 7.597,6.506 8.772,6.058 9.947,5.608 10.91,4.997 11.66,4.222 12.41,3.446 12.965,2.534 13.328,1.483 13.69,0.434 13.872,-0.684 13.872,-1.865" /></g><g
           transform="translate(361.9243,242.3428)"
           id="g54"><path
             id="path56"
             style="fill:#727273;fill-opacity:1;fill-rule:nonzero;stroke:none"
             d="m 0,0 v -1.408 c 0.549,0.613 1.262,1.081 2.137,1.408 0.875,0.325 1.912,0.489 3.112,0.489 2.224,0 3.912,-0.535 5.062,-1.606 1.149,-1.071 1.724,-2.554 1.724,-4.45 V -16.029 H 7.874 v 9.697 c 0,1.509 -0.27,2.563 -0.806,3.165 -0.539,0.603 -1.482,0.902 -2.832,0.902 -1.048,0 -2.03,-0.381 -2.942,-1.146 -0.912,-0.765 -1.369,-1.973 -1.369,-3.625 v -8.993 H -4.049 V 0 Z" /></g><g
           transform="translate(384.3442,246.8086)"
           id="g58"><path
             id="path60"
             style="fill:#727273;fill-opacity:1;fill-rule:nonzero;stroke:none"
             d="M 0,0 V -4.374 H 4.124 V -7.158 H 0 v -9.055 c 0,-0.877 0.131,-1.433 0.393,-1.667 0.263,-0.234 0.694,-0.351 1.295,-0.351 0.348,0 0.754,0.019 1.218,0.061 0.462,0.04 0.943,0.173 1.443,0.398 v -2.754 c -0.425,-0.143 -0.944,-0.249 -1.556,-0.321 -0.613,-0.071 -1.119,-0.107 -1.519,-0.107 -0.724,0 -1.412,0.06 -2.062,0.183 -0.65,0.124 -1.212,0.347 -1.687,0.673 -0.475,0.306 -0.849,0.724 -1.125,1.255 -0.275,0.53 -0.411,1.193 -0.411,1.988 v 9.697 h -3.637 v 2.784 h 3.637 V 0 Z" /></g><g
           transform="translate(394.1299,230.8711)"
           id="g62"><path
             id="path64"
             style="fill:#727273;fill-opacity:1;fill-rule:nonzero;stroke:none"
             d="m 0,0 c 0,-0.918 0.256,-1.524 0.768,-1.82 0.512,-0.296 1.294,-0.443 2.344,-0.443 0.974,0 1.767,0.142 2.38,0.428 0.612,0.285 1.092,0.673 1.444,1.162 0.324,0.489 0.549,1.045 0.674,1.667 0.125,0.622 0.188,1.27 0.188,1.943 H 5.661 C 4.785,2.937 3.924,2.854 3.074,2.691 2.224,2.549 1.5,2.269 0.899,1.851 0.3,1.433 0,0.815 0,0 M 7.686,5.69 V 6.394 C 7.585,7.515 7.241,8.265 6.654,8.642 6.066,9.019 5.211,9.207 4.086,9.207 3.112,9.207 2.33,9.044 1.743,8.719 1.155,8.392 0.799,7.647 0.675,6.485 h -4.35 c 0.05,0.958 0.312,1.785 0.788,2.478 0.474,0.693 1.074,1.265 1.8,1.714 0.724,0.427 1.542,0.749 2.455,0.963 0.912,0.214 1.842,0.321 2.793,0.321 2.25,0 4.068,-0.475 5.455,-1.423 1.387,-0.948 2.068,-2.36 2.043,-4.236 v -8.137 c 0,-0.367 0.012,-0.785 0.038,-1.255 0.024,-0.468 0.113,-0.958 0.262,-1.468 H 7.873 l -0.038,1.53 C 7.536,-3.476 6.911,-3.925 5.96,-4.374 5.011,-4.823 3.924,-5.047 2.699,-5.047 c -2.399,0 -4.168,0.443 -5.305,1.33 -1.138,0.887 -1.706,2.147 -1.706,3.779 0,1.101 0.375,2.075 1.125,2.92 0.749,0.847 1.736,1.485 2.962,1.913 C 0.425,5.14 1.13,5.317 1.894,5.43 2.656,5.542 3.398,5.618 4.124,5.659 4.823,5.68 5.486,5.69 6.11,5.69 Z" /></g><path
           id="path66"
           style="fill:#727273;fill-opacity:1;fill-rule:nonzero;stroke:none"
           d="m 414.525,226.375 h -4.087 v 23.432 h 4.087 z" /><g
           transform="translate(451.3418,243.2598)"
           id="g68"><path
             id="path70"
             style="fill:#727273;fill-opacity:1;fill-rule:nonzero;stroke:none"
             d="m 0,0 h -4.388 c -0.249,1.347 -0.887,2.311 -1.911,2.891 -1.025,0.582 -2.25,0.872 -3.675,0.872 -1.475,0 -2.706,-0.266 -3.692,-0.795 -0.987,-0.531 -1.769,-1.224 -2.344,-2.08 -0.599,-0.857 -1.025,-1.826 -1.275,-2.907 -0.249,-1.081 -0.374,-2.182 -0.374,-3.303 0,-1.143 0.125,-2.253 0.374,-3.334 0.25,-1.081 0.676,-2.051 1.275,-2.907 0.575,-0.856 1.357,-1.544 2.344,-2.065 0.986,-0.519 2.217,-0.779 3.692,-0.779 1.425,0 2.637,0.279 3.637,0.841 1,0.56 1.7,1.616 2.1,3.166 h 4.386 c -0.174,-1.163 -0.562,-2.177 -1.162,-3.044 -0.599,-0.867 -1.363,-1.586 -2.287,-2.157 -0.925,-0.59 -1.963,-1.029 -3.111,-1.315 -1.151,-0.286 -2.362,-0.429 -3.637,-0.429 -2.126,0 -3.944,0.327 -5.455,0.98 -1.513,0.653 -2.756,1.54 -3.73,2.661 -0.976,1.101 -1.688,2.376 -2.138,3.824 -0.45,1.447 -0.675,2.968 -0.675,4.558 0,1.529 0.232,3.022 0.693,4.481 0.462,1.458 1.182,2.748 2.157,3.869 0.974,1.122 2.218,2.025 3.73,2.707 1.513,0.684 3.318,1.026 5.418,1.026 1.199,0 2.367,-0.134 3.505,-0.398 C -5.406,6.098 -4.375,5.689 -3.449,5.14 -2.525,4.589 -1.757,3.891 -1.145,3.044 -0.531,2.197 -0.15,1.183 0,0" /></g><path
           id="path72"
           style="fill:#727273;fill-opacity:1;fill-rule:nonzero;stroke:none"
           d="m 458.989,226.375 h -4.087 v 23.432 h 4.087 z" /><path
           id="path74"
           style="fill:#727273;fill-opacity:1;fill-rule:nonzero;stroke:none"
           d="m 463.601,242.74 h 4.087 v -16.365 h -4.087 z m 4.236,3.395 h -4.387 v 3.396 h 4.387 z" /><g
           transform="translate(476.498,242.3428)"
           id="g76"><path
             id="path78"
             style="fill:#727273;fill-opacity:1;fill-rule:nonzero;stroke:none"
             d="m 0,0 v -1.408 c 0.549,0.613 1.262,1.081 2.136,1.408 0.875,0.325 1.912,0.489 3.112,0.489 2.225,0 3.911,-0.535 5.062,-1.606 1.149,-1.071 1.724,-2.554 1.724,-4.45 V -16.029 H 7.872 v 9.697 c 0,1.509 -0.268,2.563 -0.806,3.165 -0.537,0.603 -1.48,0.902 -2.83,0.902 -1.049,0 -2.032,-0.381 -2.943,-1.146 -0.912,-0.765 -1.368,-1.973 -1.368,-3.625 v -8.993 H -4.05 V 0 Z" /></g><path
           id="path80"
           style="fill:#727273;fill-opacity:1;fill-rule:nonzero;stroke:none"
           d="m 493.368,242.74 h 4.087 v -16.365 h -4.087 z m 4.237,3.395 h -4.387 v 3.396 h 4.387 z" /><g
           transform="translate(517.8877,236.5303)"
           id="g82"><path
             id="path84"
             style="fill:#727273;fill-opacity:1;fill-rule:nonzero;stroke:none"
             d="m 0,0 h -4.349 c -0.1,1.346 -0.481,2.274 -1.143,2.783 -0.662,0.51 -1.632,0.765 -2.905,0.765 -1.35,0 -2.432,-0.53 -3.244,-1.591 -0.812,-1.06 -1.218,-2.446 -1.218,-4.159 0,-1.694 0.399,-3.07 1.2,-4.13 0.799,-1.061 1.874,-1.59 3.223,-1.59 1.175,0 2.107,0.26 2.793,0.779 0.687,0.52 1.119,1.463 1.294,2.83 H 0.075 C -0.3,-6.454 -1.25,-8.056 -2.773,-9.115 c -1.527,-1.061 -3.375,-1.591 -5.55,-1.591 -1.499,0 -2.806,0.233 -3.918,0.703 -1.112,0.47 -2.043,1.101 -2.793,1.897 -0.726,0.795 -1.269,1.703 -1.631,2.722 -0.362,1.02 -0.543,2.08 -0.543,3.182 0,1.059 0.193,2.1 0.581,3.12 0.387,1.02 0.956,1.927 1.706,2.723 0.774,0.795 1.73,1.437 2.867,1.926 1.138,0.49 2.456,0.735 3.955,0.735 1.05,0 2.05,-0.143 3,-0.429 C -4.149,5.588 -3.312,5.18 -2.587,4.65 -1.862,4.119 -1.269,3.461 -0.806,2.677 -0.344,1.891 -0.075,0.999 0,0" /></g><g
           transform="translate(312.127,258.2988)"
           id="g86"><path
             id="path88"
             style="fill:#727273;fill-opacity:1;fill-rule:nonzero;stroke:none"
             d="m 0,0 c -0.516,0 -0.863,0.073 -1.04,0.216 -0.177,0.146 -0.266,0.428 -0.266,0.85 V 29.827 H 4.158 V 3.748 H 20.89 V 0 Z" /></g><g
           transform="translate(311.999,259.4785)"
           id="g90"><path
             id="path92"
             style="fill:#727273;fill-opacity:1;fill-rule:nonzero;stroke:none"
             d="M 0,0 C 0.038,-0.001 0.081,-0.002 0.128,-0.002 H 19.84 V 1.391 H 3.108 V 27.47 H 0 Z M 22.195,-2.357 H 0.128 c -0.814,0 -1.38,0.152 -1.783,0.48 -0.466,0.382 -0.7,0.974 -0.7,1.764 V 29.825 H 5.464 V 3.746 h 16.731 z" /></g><g
           transform="translate(342.0103,273.2129)"
           id="g94"><path
             id="path96"
             style="fill:#727273;fill-opacity:1;fill-rule:nonzero;stroke:none"
             d="m 0,0 c 0,-1.553 0.185,-3.038 0.556,-4.459 0.37,-1.42 0.975,-2.67 1.814,-3.748 0.837,-1.079 1.917,-1.933 3.238,-2.565 1.323,-0.63 2.917,-0.948 4.788,-0.948 1.838,0 3.417,0.318 4.739,0.948 1.322,0.632 2.402,1.486 3.24,2.565 0.837,1.078 1.458,2.328 1.862,3.748 0.402,1.421 0.604,2.906 0.604,4.459 0,1.525 -0.202,2.991 -0.604,4.398 -0.404,1.407 -1.025,2.65 -1.862,3.73 -0.838,1.077 -1.918,1.945 -3.24,2.603 -1.322,0.658 -2.901,0.986 -4.739,0.986 -1.871,0 -3.465,-0.328 -4.788,-0.986 C 4.287,10.073 3.207,9.205 2.37,8.128 1.531,7.048 0.926,5.805 0.556,4.398 0.185,2.991 0,1.525 0,0 m 26.547,0 c 0,-2.289 -0.371,-4.387 -1.111,-6.294 -0.744,-1.906 -1.791,-3.544 -3.144,-4.912 -1.387,-1.368 -3.087,-2.426 -5.102,-3.175 -2.016,-0.752 -4.295,-1.125 -6.842,-1.125 -2.612,0 -4.908,0.373 -6.891,1.125 -1.982,0.749 -3.651,1.807 -5.005,3.175 -1.353,1.368 -2.377,3.006 -3.07,4.912 -0.694,1.907 -1.04,4.005 -1.04,6.294 0,2.261 0.346,4.348 1.04,6.253 0.693,1.908 1.717,3.544 3.07,4.911 1.354,1.368 3.023,2.433 5.005,3.196 1.983,0.763 4.279,1.145 6.891,1.145 2.547,0 4.826,-0.382 6.842,-1.145 2.015,-0.763 3.715,-1.828 5.102,-3.196 1.353,-1.367 2.4,-3.003 3.144,-4.911 C 26.176,4.348 26.547,2.261 26.547,0" /></g><g
           transform="translate(352.4063,283.7529)"
           id="g98"><path
             id="path100"
             style="fill:#727273;fill-opacity:1;fill-rule:nonzero;stroke:none"
             d="m 0,0 c -1.677,0 -3.111,-0.291 -4.264,-0.863 -1.155,-0.576 -2.109,-1.34 -2.832,-2.272 -0.738,-0.949 -1.278,-2.062 -1.606,-3.306 -0.342,-1.302 -0.516,-2.681 -0.516,-4.099 0,-1.447 0.174,-2.847 0.517,-4.162 0.328,-1.258 0.868,-2.375 1.605,-3.322 0.719,-0.927 1.666,-1.676 2.817,-2.226 1.156,-0.552 2.597,-0.832 4.279,-0.832 1.65,0 3.074,0.28 4.232,0.832 1.149,0.551 2.098,1.3 2.816,2.225 0.741,0.953 1.299,2.079 1.66,3.348 0.372,1.311 0.56,2.703 0.56,4.137 0,1.405 -0.188,2.776 -0.56,4.075 -0.36,1.254 -0.919,2.375 -1.66,3.331 C 6.324,-2.204 5.37,-1.439 4.214,-0.863 3.063,-0.291 1.645,0 0,0 m 0,-23.438 c -2.036,0 -3.816,0.358 -5.294,1.062 -1.486,0.711 -2.717,1.688 -3.662,2.906 -0.934,1.201 -1.615,2.605 -2.023,4.173 -0.395,1.509 -0.594,3.109 -0.594,4.757 0,1.621 0.199,3.202 0.594,4.699 0.409,1.553 1.09,2.949 2.023,4.151 0.943,1.213 2.168,2.201 3.643,2.935 1.482,0.736 3.27,1.109 5.313,1.109 2.012,0 3.783,-0.373 5.264,-1.109 1.476,-0.735 2.701,-1.723 3.644,-2.934 0.926,-1.195 1.62,-2.582 2.064,-4.127 0.433,-1.51 0.651,-3.1 0.651,-4.724 0,-1.651 -0.218,-3.26 -0.649,-4.78 -0.445,-1.562 -1.14,-2.957 -2.066,-4.15 -0.946,-1.218 -2.177,-2.194 -3.66,-2.904 C 3.769,-23.08 2.004,-23.438 0,-23.438 M -0.048,3.787 c -2.454,0 -4.63,-0.358 -6.469,-1.065 -1.816,-0.701 -3.361,-1.685 -4.589,-2.925 -1.229,-1.242 -2.171,-2.751 -2.801,-4.485 -0.643,-1.767 -0.969,-3.736 -0.969,-5.852 0,-2.143 0.326,-4.124 0.968,-5.892 0.632,-1.736 1.574,-3.245 2.802,-4.486 1.225,-1.238 2.767,-2.215 4.584,-2.901 1.836,-0.697 4.014,-1.049 6.474,-1.049 2.397,0 4.56,0.353 6.43,1.05 1.851,0.689 3.428,1.669 4.687,2.91 1.222,1.236 2.192,2.754 2.873,4.502 0.684,1.761 1.032,3.736 1.032,5.866 0,2.104 -0.348,4.065 -1.033,5.827 -0.679,1.745 -1.649,3.263 -2.882,4.51 C 9.807,1.031 8.229,2.019 6.377,2.719 4.505,3.428 2.344,3.787 -0.048,3.787 m 0,-31.011 c -2.746,0 -5.204,0.405 -7.308,1.202 -2.135,0.807 -3.96,1.967 -5.425,3.448 -1.468,1.484 -2.592,3.28 -3.34,5.338 -0.737,2.025 -1.11,4.278 -1.11,6.696 0,2.393 0.373,4.632 1.11,6.656 0.747,2.056 1.871,3.852 3.34,5.336 1.464,1.48 3.287,2.647 5.419,3.467 2.109,0.811 4.57,1.223 7.314,1.223 2.677,0 5.119,-0.411 7.259,-1.22 2.161,-0.818 4.015,-1.983 5.512,-3.459 1.471,-1.487 2.616,-3.274 3.413,-5.322 0.792,-2.037 1.193,-4.284 1.193,-6.681 0,-2.423 -0.401,-4.684 -1.192,-6.72 -0.8,-2.051 -1.944,-3.839 -3.404,-5.314 -1.508,-1.488 -3.365,-2.646 -5.528,-3.451 -2.134,-0.795 -4.574,-1.199 -7.253,-1.199" /></g><g
           transform="translate(397.5225,267.4531)"
           id="g102"><path
             id="path104"
             style="fill:#727273;fill-opacity:1;fill-rule:nonzero;stroke:none"
             d="M 0,0 1.595,-2.921 1.45,0.118 V 20.673 H 6.817 V -8.011 C 6.817,-8.43 6.729,-8.714 6.551,-8.859 6.373,-9.003 6.044,-9.075 5.561,-9.075 H 1.692 c -0.485,0 -0.839,0.078 -1.065,0.236 -0.225,0.157 -0.387,0.381 -0.483,0.672 l -13.975,19.766 -1.595,2.92 0.144,-3.039 V -9.154 h -5.366 v 28.761 c 0,0.395 0.08,0.671 0.24,0.829 0.163,0.157 0.501,0.237 1.016,0.237 h 3.725 c 0.449,0 0.789,-0.086 1.015,-0.257 0.224,-0.172 0.403,-0.389 0.531,-0.651 z" /></g><g
           transform="translate(398.8218,259.585)"
           id="g106"><path
             id="path108"
             style="fill:#727273;fill-opacity:1;fill-rule:nonzero;stroke:none"
             d="m 0,0 c 0.019,0 0.14,-0.029 0.393,-0.029 h 1.28 L -2.299,7.24 -16.477,27.115 c -0.046,0.094 -0.105,0.166 -0.184,0.231 0.008,-0.014 -0.089,0.017 -0.306,0.017 h -1.136 L -14.129,20.092 -0.093,0.238 -0.038,0.071 C -0.029,0.046 -0.017,0.015 -0.002,0 Z m 1.713,-0.029 h 2.548 c 0.029,0 0.055,0 0.08,0.001 V 27.363 H 1.328 V 7.986 Z M -20.77,-0.108 h 3.011 v 19.457 l -0.382,8.014 h -2.55 -0.079 z m 5.366,-2.356 h -7.721 v 29.94 c 0,0.72 0.2,1.282 0.593,1.668 0.533,0.516 1.305,0.575 1.841,0.575 h 3.724 c 0.709,0 1.289,-0.165 1.724,-0.493 0.351,-0.271 0.628,-0.598 0.831,-0.978 L -1.026,9.511 -1.027,29.719 H 6.696 V -0.143 C 6.696,-0.931 6.461,-1.522 5.998,-1.901 5.586,-2.232 5.038,-2.385 4.261,-2.385 H 0.393 c -0.74,0 -1.309,0.148 -1.74,0.449 -0.386,0.27 -0.673,0.634 -0.857,1.082 l -13.201,18.669 z" /></g><g
           transform="translate(419.3291,262.0469)"
           id="g110"><path
             id="path112"
             style="fill:#727273;fill-opacity:1;fill-rule:nonzero;stroke:none"
             d="m 0,0 h 5.658 c 4.061,0 7.043,0.973 8.946,2.92 1.901,1.945 2.852,4.681 2.852,8.206 0,4.103 -1.258,7.022 -3.772,8.758 C 11.17,21.621 7.688,22.436 3.239,22.33 H 0 Z m -4.11,26.079 h 8.414 c 5.898,0 10.493,-1.277 13.781,-3.828 C 21.373,19.7 23.017,16.005 23.017,11.166 23.017,6.273 21.373,2.563 18.085,0.04 14.797,-2.486 10.202,-3.748 4.304,-3.748 H -4.11 c -0.515,0 -0.863,0.073 -1.04,0.216 -0.178,0.146 -0.266,0.428 -0.266,0.85 v 27.696 c 0,0.394 0.088,0.671 0.266,0.828 0.177,0.157 0.525,0.237 1.04,0.237" /></g><g
           transform="translate(420.5063,263.2246)"
           id="g114"><path
             id="path116"
             style="fill:#727273;fill-opacity:1;fill-rule:nonzero;stroke:none"
             d="m 0,0 h 4.481 c 3.713,0 6.44,0.863 8.103,2.565 1.67,1.709 2.518,4.193 2.518,7.383 0,3.725 -1.068,6.274 -3.265,7.789 -2.292,1.584 -5.57,2.337 -9.747,2.239 H 0 Z M 4.481,-2.355 H -2.355 V 22.33 h 4.417 c 0.236,0.007 0.496,0.01 0.753,0.01 4.317,0 7.803,-0.898 10.361,-2.665 2.84,-1.96 4.281,-5.234 4.281,-9.727 0,-3.827 -1.073,-6.865 -3.189,-9.029 -2.122,-2.173 -5.415,-3.274 -9.787,-3.274 m -9.897,-1.391 c 0.039,-10e-4 0.082,-0.002 0.128,-0.002 h 8.414 c 5.608,0 10.003,1.192 13.064,3.544 3.01,2.31 4.473,5.644 4.473,10.192 0,4.496 -1.465,7.818 -4.477,10.155 -3.063,2.376 -7.457,3.581 -13.06,3.581 h -8.414 c -0.047,0 -0.089,0 -0.128,-0.002 z m 8.542,-2.358 h -8.414 c -0.811,0 -1.377,0.153 -1.78,0.479 -0.468,0.384 -0.703,0.976 -0.703,1.766 v 27.695 c 0,0.745 0.224,1.322 0.664,1.711 0.409,0.362 0.988,0.532 1.819,0.532 h 8.414 c 6.138,0 11.018,-1.371 14.504,-4.075 3.575,-2.775 5.387,-6.817 5.387,-12.016 0,-5.256 -1.813,-9.312 -5.392,-12.059 -3.482,-2.676 -8.36,-4.033 -14.499,-4.033" /></g><g
           transform="translate(455.1113,273.2129)"
           id="g118"><path
             id="path120"
             style="fill:#727273;fill-opacity:1;fill-rule:nonzero;stroke:none"
             d="m 0,0 c 0,-1.553 0.186,-3.038 0.557,-4.459 0.37,-1.42 0.973,-2.67 1.813,-3.748 0.837,-1.079 1.917,-1.933 3.239,-2.565 1.322,-0.63 2.917,-0.948 4.788,-0.948 1.837,0 3.416,0.318 4.739,0.948 1.321,0.632 2.401,1.486 3.24,2.565 0.837,1.078 1.457,2.328 1.861,3.748 0.403,1.421 0.604,2.906 0.604,4.459 0,1.525 -0.201,2.991 -0.604,4.398 -0.404,1.407 -1.024,2.65 -1.861,3.73 -0.839,1.077 -1.919,1.945 -3.24,2.603 -1.323,0.658 -2.902,0.986 -4.739,0.986 -1.871,0 -3.466,-0.328 -4.788,-0.986 C 4.287,10.073 3.207,9.205 2.37,8.128 1.53,7.048 0.927,5.805 0.557,4.398 0.186,2.991 0,1.525 0,0 m 26.547,0 c 0,-2.289 -0.371,-4.387 -1.111,-6.294 -0.743,-1.906 -1.79,-3.544 -3.144,-4.912 -1.387,-1.368 -3.086,-2.426 -5.101,-3.175 -2.015,-0.752 -4.296,-1.125 -6.843,-1.125 -2.612,0 -4.908,0.373 -6.892,1.125 -1.98,0.749 -3.648,1.807 -5.003,3.175 -1.354,1.368 -2.379,3.006 -3.071,4.912 -0.693,1.907 -1.039,4.005 -1.039,6.294 0,2.261 0.346,4.348 1.039,6.253 0.692,1.908 1.717,3.544 3.071,4.911 1.355,1.368 3.023,2.433 5.003,3.196 1.984,0.763 4.28,1.145 6.892,1.145 2.547,0 4.828,-0.382 6.843,-1.145 2.015,-0.763 3.714,-1.828 5.101,-3.196 C 23.646,9.797 24.693,8.161 25.436,6.253 26.176,4.348 26.547,2.261 26.547,0" /></g><g
           transform="translate(465.5088,283.7529)"
           id="g122"><path
             id="path124"
             style="fill:#727273;fill-opacity:1;fill-rule:nonzero;stroke:none"
             d="m 0,0 c -1.678,0 -3.112,-0.291 -4.264,-0.863 -1.156,-0.575 -2.11,-1.34 -2.834,-2.272 -0.736,-0.948 -1.277,-2.061 -1.605,-3.306 -0.343,-1.306 -0.517,-2.686 -0.517,-4.099 0,-1.441 0.174,-2.843 0.518,-4.162 0.329,-1.259 0.868,-2.376 1.604,-3.322 0.72,-0.927 1.667,-1.676 2.818,-2.226 1.157,-0.552 2.596,-0.832 4.28,-0.832 1.648,0 3.073,0.28 4.231,0.833 1.149,0.549 2.096,1.298 2.817,2.225 0.74,0.952 1.298,2.079 1.659,3.347 0.37,1.309 0.56,2.701 0.56,4.137 0,1.407 -0.189,2.778 -0.56,4.075 C 8.347,-5.211 7.789,-4.09 7.048,-3.134 6.323,-2.203 5.369,-1.438 4.213,-0.863 3.062,-0.291 1.644,0 0,0 m 0,-23.438 c -2.037,0 -3.817,0.358 -5.295,1.063 -1.485,0.71 -2.717,1.687 -3.662,2.905 -0.934,1.199 -1.614,2.603 -2.023,4.173 -0.395,1.515 -0.595,3.114 -0.595,4.757 0,1.616 0.2,3.196 0.596,4.698 0.409,1.555 1.088,2.952 2.022,4.153 0.942,1.212 2.169,2.2 3.644,2.934 1.481,0.736 3.268,1.109 5.313,1.109 2.011,0 3.781,-0.373 5.262,-1.109 1.475,-0.734 2.701,-1.722 3.645,-2.934 0.926,-1.195 1.621,-2.583 2.064,-4.127 0.431,-1.509 0.65,-3.097 0.65,-4.724 0,-1.652 -0.219,-3.261 -0.648,-4.78 -0.445,-1.561 -1.139,-2.956 -2.065,-4.15 C 7.961,-20.688 6.729,-21.665 5.246,-22.375 3.767,-23.08 2.002,-23.438 0,-23.438 M -0.05,3.787 c -2.453,0 -4.63,-0.358 -6.469,-1.065 -1.814,-0.7 -3.359,-1.685 -4.588,-2.926 -1.23,-1.241 -2.172,-2.75 -2.801,-4.484 -0.644,-1.769 -0.969,-3.737 -0.969,-5.852 0,-2.14 0.325,-4.123 0.969,-5.892 0.63,-1.736 1.572,-3.246 2.801,-4.485 1.227,-1.239 2.768,-2.217 4.584,-2.902 1.836,-0.697 4.015,-1.049 6.473,-1.049 2.399,0 4.562,0.353 6.432,1.05 1.849,0.688 3.427,1.668 4.685,2.91 1.224,1.237 2.194,2.755 2.874,4.501 0.683,1.763 1.031,3.738 1.031,5.867 0,2.104 -0.347,4.064 -1.032,5.827 -0.678,1.745 -1.648,3.262 -2.882,4.51 C 9.806,1.031 8.228,2.019 6.377,2.719 4.505,3.428 2.343,3.787 -0.05,3.787 m 0,-31.011 c -2.745,0 -5.204,0.405 -7.308,1.202 -2.132,0.806 -3.956,1.967 -5.423,3.448 -1.469,1.484 -2.594,3.28 -3.341,5.339 -0.737,2.026 -1.11,4.28 -1.11,6.695 0,2.39 0.373,4.63 1.11,6.656 0.746,2.057 1.871,3.852 3.342,5.337 1.465,1.48 3.287,2.646 5.416,3.466 2.11,0.811 4.571,1.223 7.314,1.223 2.678,0 5.121,-0.411 7.261,-1.22 2.159,-0.818 4.014,-1.983 5.511,-3.459 1.472,-1.488 2.617,-3.275 3.414,-5.322 0.79,-2.037 1.191,-4.284 1.191,-6.681 0,-2.422 -0.4,-4.683 -1.191,-6.72 -0.798,-2.05 -1.943,-3.838 -3.404,-5.314 -1.507,-1.488 -3.365,-2.646 -5.528,-3.451 -2.133,-0.795 -4.574,-1.199 -7.254,-1.199" /></g><g
           transform="translate(510.623,267.4531)"
           id="g126"><path
             id="path128"
             style="fill:#727273;fill-opacity:1;fill-rule:nonzero;stroke:none"
             d="M 0,0 1.596,-2.921 1.451,0.118 V 20.673 H 6.818 V -8.011 C 6.818,-8.43 6.729,-8.714 6.552,-8.859 6.375,-9.003 6.045,-9.075 5.561,-9.075 H 1.693 c -0.483,0 -0.839,0.078 -1.064,0.236 -0.226,0.157 -0.389,0.381 -0.483,0.672 l -13.977,19.766 -1.594,2.92 0.146,-3.039 V -9.154 h -5.368 v 28.761 c 0,0.395 0.079,0.671 0.242,0.829 0.16,0.157 0.498,0.237 1.013,0.237 h 3.724 c 0.452,0 0.791,-0.086 1.017,-0.257 0.224,-0.172 0.403,-0.389 0.532,-0.651 z" /></g><g
           transform="translate(511.9219,259.585)"
           id="g130"><path
             id="path132"
             style="fill:#727273;fill-opacity:1;fill-rule:nonzero;stroke:none"
             d="M 0,0 C 0.019,0 0.14,-0.029 0.395,-0.029 H 1.674 L -2.299,7.24 -16.478,27.117 c -0.044,0.093 -0.102,0.164 -0.181,0.227 0.01,-0.012 -0.086,0.019 -0.308,0.019 h -1.134 l 3.972,-7.272 14.04,-19.856 0.055,-0.168 C -0.021,0.024 -0.009,0.007 -0.002,0 Z m 1.712,-0.029 h 2.55 c 0.028,0 0.054,0 0.08,0.001 V 27.363 H 1.33 V 7.986 Z m -22.481,-0.079 h 3.013 v 19.457 l -0.386,8.014 h -2.548 -0.079 z m 5.369,-2.356 h -7.724 v 29.94 c 0,0.725 0.202,1.289 0.601,1.674 0.519,0.509 1.294,0.569 1.833,0.569 h 3.723 c 0.71,0 1.29,-0.165 1.726,-0.493 0.351,-0.271 0.629,-0.598 0.832,-0.979 L -1.023,9.509 -1.025,29.719 H 6.697 V -0.143 C 6.697,-0.929 6.463,-1.521 6.001,-1.9 5.59,-2.232 5.04,-2.385 4.262,-2.385 H 0.395 c -0.741,0 -1.311,0.148 -1.742,0.451 -0.379,0.264 -0.673,0.635 -0.856,1.08 l -13.199,18.667 z" /></g><path
           id="path134"
           style="fill:#727273;fill-opacity:1;fill-rule:nonzero;stroke:none"
           d="M 241.709,102.555 H 586.553 V 551.026 H 241.709 Z m 354.844,-10 H 231.709 v 468.471 h 364.844 z" /><g
           transform="translate(251.873,48.7949)"
           id="g136"><path
             id="path138"
             style="fill:#727273;fill-opacity:1;fill-rule:nonzero;stroke:none"
             d="m 0,0 c 0,-0.809 -0.375,-1.213 -1.213,-1.213 h -2.05 c -0.837,0 -1.212,0.404 -1.212,1.213 v 17.437 c 0,0.808 0.375,1.212 1.212,1.212 h 2.05 C -0.375,18.649 0,18.245 0,17.437 Z m -15.532,6.553 c 1.963,0 3.522,1.357 3.522,4.301 0,2.946 -1.559,4.302 -3.522,4.302 -1.963,0 -3.522,-1.356 -3.522,-4.302 0,-2.944 1.559,-4.301 3.522,-4.301 M -0.693,-5.485 c 0.779,0 1.213,-0.375 1.213,-1.213 V -7.68 c 0,-0.837 -0.434,-1.213 -1.213,-1.213 H -16.6 c -1.935,0 -2.743,0.781 -2.743,2.686 v 5.601 c 0,0.808 0.375,1.212 1.213,1.212 h 2.107 c 0.837,0 1.212,-0.404 1.212,-1.212 v -4.36 c 0,-0.433 0.116,-0.519 0.52,-0.519 z m -14.839,23.932 c 4.446,0 7.824,-2.829 7.824,-7.593 0,-4.763 -3.378,-7.592 -7.824,-7.592 -4.446,0 -7.824,2.829 -7.824,7.592 0,4.764 3.378,7.593 7.824,7.593" /></g><g
           transform="translate(281.5576,40.6826)"
           id="g140"><path
             id="path142"
             style="fill:#727273;fill-opacity:1;fill-rule:nonzero;stroke:none"
             d="m 0,0 c 0,-0.809 -0.375,-1.213 -1.212,-1.213 h -1.819 c -0.838,0 -1.213,0.404 -1.213,1.213 v 25.549 c 0,0.808 0.375,1.213 1.213,1.213 h 1.819 C -0.375,26.762 0,26.357 0,25.549 Z m -6.265,0.952 c 0,-0.808 -0.375,-1.212 -1.212,-1.212 h -1.761 c -0.838,0 -1.213,0.404 -1.213,1.212 v 12.674 h -2.569 c -0.78,0 -1.213,0.375 -1.213,1.213 v 1.126 c 0,0.837 0.433,1.212 1.213,1.212 h 2.569 v 8.199 c 0,0.809 0.375,1.213 1.213,1.213 h 1.761 c 0.837,0 1.212,-0.404 1.212,-1.213 z m -9.988,22.287 h 3.06 c 0.779,0 1.212,-0.375 1.212,-1.212 v -1.01 c 0,-0.837 -0.433,-1.212 -1.212,-1.212 h -3.06 v -3.061 c 0,-3.724 1.125,-6.236 4.099,-8.574 0.549,-0.434 0.549,-1.039 0.259,-1.415 l -0.923,-1.184 c -0.347,-0.462 -1.011,-0.634 -1.675,-0.173 -1.501,1.04 -3.204,3.147 -4.012,4.879 -1.184,-2.367 -2.888,-4.07 -4.793,-5.283 -0.606,-0.404 -1.27,-0.375 -1.645,0.145 l -0.867,1.154 c -0.288,0.404 -0.317,1.039 0.145,1.386 3.869,2.743 5.023,5.341 5.023,9.065 v 3.061 h -3.406 c -0.78,0 -1.213,0.375 -1.213,1.212 v 1.01 c 0,0.837 0.433,1.212 1.213,1.212 h 3.406 v 2.743 c 0,0.809 0.375,1.213 1.213,1.213 h 1.963 c 0.837,0 1.213,-0.404 1.213,-1.213 z" /></g><g
           transform="translate(310.5786,40.6826)"
           id="g144"><path
             id="path146"
             style="fill:#727273;fill-opacity:1;fill-rule:nonzero;stroke:none"
             d="m 0,0 c 0,-0.809 -0.375,-1.213 -1.213,-1.213 h -1.819 c -0.837,0 -1.212,0.404 -1.212,1.213 v 25.549 c 0,0.808 0.375,1.213 1.212,1.213 h 1.819 C -0.375,26.762 0,26.357 0,25.549 Z m -18.304,9.209 c 1.819,0 2.397,2.627 2.397,6.929 0,4.301 -0.578,6.813 -2.397,6.813 -1.76,0 -2.396,-2.512 -2.396,-6.813 0,-4.302 0.636,-6.929 2.396,-6.929 M -6.005,0.952 c 0,-0.808 -0.375,-1.212 -1.213,-1.212 h -1.761 c -0.837,0 -1.212,0.404 -1.212,1.212 v 13.511 h -1.877 c -0.317,-5.456 -2.28,-8.574 -6.236,-8.574 -4.503,0 -6.582,3.782 -6.582,10.249 0,6.466 2.079,10.133 6.582,10.133 3.898,0 5.861,-2.945 6.236,-8.17 h 1.877 v 7.275 c 0,0.809 0.375,1.213 1.212,1.213 h 1.761 c 0.838,0 1.213,-0.404 1.213,-1.213 z" /></g><g
           transform="translate(341.6509,62.7676)"
           id="g148"><path
             id="path150"
             style="fill:#727273;fill-opacity:1;fill-rule:nonzero;stroke:none"
             d="m 0,0 c 0,0.347 -0.087,0.433 -0.433,0.433 h -10.191 c -0.347,0 -0.433,-0.086 -0.433,-0.433 v -4.417 c 0,-0.347 0.086,-0.434 0.433,-0.434 h 10.191 c 0.346,0 0.433,0.087 0.433,0.434 z m 4.475,-5.254 c 0,-1.992 -0.982,-2.945 -3.003,-2.945 H -12.53 c -2.02,0 -3.002,0.953 -3.002,2.945 v 6.091 c 0,1.992 0.982,2.945 3.002,2.945 H 1.472 c 2.021,0 3.003,-0.953 3.003,-2.945 z m -7.737,-9.065 v -7.766 c 0,-0.809 -0.376,-1.213 -1.213,-1.213 h -2.223 c -0.837,0 -1.213,0.404 -1.213,1.213 v 7.766 h -9.988 c -0.78,0 -1.213,0.375 -1.213,1.213 v 0.981 c 0,0.837 0.433,1.212 1.213,1.212 H 6.698 c 0.779,0 1.212,-0.375 1.212,-1.212 v -0.981 c 0,-0.838 -0.433,-1.213 -1.212,-1.213 z" /></g><g
           transform="translate(377.5425,40.6826)"
           id="g152"><path
             id="path154"
             style="fill:#727273;fill-opacity:1;fill-rule:nonzero;stroke:none"
             d="m 0,0 c 0,-0.809 -0.375,-1.213 -1.212,-1.213 h -1.819 c -0.838,0 -1.213,0.404 -1.213,1.213 V 12.355 H -6.467 V 0.952 c 0,-0.808 -0.346,-1.212 -1.183,-1.212 h -1.79 c -0.838,0 -1.213,0.404 -1.213,1.212 v 24.424 c 0,0.809 0.375,1.213 1.213,1.213 h 1.761 c 0.837,0 1.212,-0.404 1.212,-1.213 v -9.44 h 2.223 v 9.613 c 0,0.808 0.375,1.213 1.213,1.213 h 1.819 C -0.375,26.762 0,26.357 0,25.549 Z m -19.025,7.246 c 2.079,0 2.829,1.79 2.829,4.042 0,2.251 -0.75,4.041 -2.829,4.041 -2.079,0 -2.829,-1.79 -2.829,-4.041 0,-2.252 0.75,-4.042 2.829,-4.042 m 0,11.433 c 4.417,0 6.958,-2.859 6.958,-7.391 0,-4.533 -2.541,-7.391 -6.958,-7.391 -4.417,0 -6.958,2.858 -6.958,7.391 0,4.532 2.541,7.391 6.958,7.391 m 6.063,4.532 c 0.779,0 1.212,-0.375 1.212,-1.213 v -0.981 c 0,-0.837 -0.433,-1.212 -1.212,-1.212 h -12.155 c -0.779,0 -1.212,0.375 -1.212,1.212 v 0.981 c 0,0.838 0.433,1.213 1.212,1.213 h 4.042 v 2.714 c 0,0.807 0.375,1.212 1.213,1.212 h 1.934 c 0.837,0 1.213,-0.405 1.213,-1.212 v -2.714 z" /></g><g
           transform="translate(403.7627,48.2461)"
           id="g156"><path
             id="path158"
             style="fill:#727273;fill-opacity:1;fill-rule:nonzero;stroke:none"
             d="m 0,0 c 0,-0.809 -0.375,-1.213 -1.212,-1.213 h -2.05 c -0.837,0 -1.213,0.404 -1.213,1.213 v 17.985 c 0,0.809 0.376,1.213 1.213,1.213 h 2.05 C -0.375,19.198 0,18.794 0,17.985 v -7.188 h 3.292 c 0.779,0 1.212,-0.375 1.212,-1.212 V 8.546 C 4.504,7.708 4.071,7.333 3.292,7.333 H 0 Z m -14.608,4.792 c 2.223,0 3.233,1.04 3.233,2.367 0,1.328 -1.01,2.368 -3.233,2.368 -2.223,0 -3.233,-1.04 -3.233,-2.368 0,-1.327 1.01,-2.367 3.233,-2.367 M -0.26,-4.937 c 0.78,0 1.213,-0.375 1.213,-1.212 v -0.982 c 0,-0.837 -0.433,-1.213 -1.213,-1.213 h -15.965 c -1.934,0 -2.742,0.781 -2.742,2.686 v 4.33 c 0,0.808 0.375,1.213 1.213,1.213 h 2.107 c 0.837,0 1.212,-0.405 1.212,-1.213 v -3.089 c 0,-0.434 0.116,-0.52 0.52,-0.52 z m -14.348,17.639 c 5.024,0 7.535,-2.482 7.535,-5.543 0,-3.059 -2.511,-5.543 -7.535,-5.543 -5.023,0 -7.535,2.484 -7.535,5.543 0,3.061 2.512,5.543 7.535,5.543 m 7.247,4.274 c 0.779,0 1.212,-0.376 1.212,-1.213 v -0.982 c 0,-0.837 -0.433,-1.213 -1.212,-1.213 h -14.811 c -0.779,0 -1.212,0.376 -1.212,1.213 v 0.982 c 0,0.837 0.433,1.213 1.212,1.213 h 5.313 v 1.962 c 0,0.809 0.375,1.213 1.212,1.213 h 2.05 c 0.837,0 1.212,-0.404 1.212,-1.213 v -1.962 z" /></g><g
           transform="translate(441.0127,54.6553)"
           id="g160"><path
             id="path162"
             style="fill:#727273;fill-opacity:1;fill-rule:nonzero;stroke:none"
             d="m 0,0 c 0,-0.809 -0.375,-1.213 -1.212,-1.213 h -2.05 c -0.838,0 -1.213,0.404 -1.213,1.213 v 11.576 c 0,0.809 0.375,1.213 1.213,1.213 h 2.05 C -0.375,12.789 0,12.385 0,11.576 V 7.708 h 3.291 c 0.779,0 1.213,-0.375 1.213,-1.213 V 5.456 C 4.504,4.619 4.07,4.244 3.291,4.244 H 0 Z m -4.59,-7.246 c 0.202,0 0.231,0.058 0.231,0.202 v 1.212 c 0,0.144 -0.029,0.202 -0.231,0.202 h -13.309 c -0.78,0 -1.155,0.347 -1.155,1.155 v 0.867 c 0,0.807 0.375,1.154 1.155,1.154 H -2.627 C -0.692,-2.454 0,-3.118 0,-5.023 v -2.772 c 0,-1.905 -0.692,-2.569 -2.627,-2.569 h -12.125 c -0.174,0 -0.231,-0.03 -0.231,-0.202 v -1.357 c 0,-0.174 0.057,-0.202 0.231,-0.202 h 14.29 c 0.779,0 1.155,-0.347 1.155,-1.155 v -0.866 c 0,-0.809 -0.376,-1.155 -1.155,-1.155 h -16.254 c -1.933,0 -2.627,0.664 -2.627,2.57 v 2.916 c 0,1.905 0.694,2.569 2.627,2.569 z M -17.033,9.383 v 1.731 c 0,0.809 0.376,1.213 1.213,1.213 h 2.078 c 0.838,0 1.213,-0.404 1.213,-1.213 V 9.7 c 0,-3.06 1.501,-5.081 5.6,-7.073 0.837,-0.404 0.809,-1.011 0.549,-1.559 l -0.519,-1.01 c -0.347,-0.693 -0.924,-0.924 -1.762,-0.607 -1.934,0.722 -4.417,2.281 -6.063,4.821 -1.558,-2.482 -4.272,-4.359 -6.409,-5.168 -0.577,-0.23 -1.327,-0.288 -1.703,0.347 L -23.5,0.52 c -0.26,0.432 -0.288,1.183 0.289,1.472 3.753,1.79 6.178,3.984 6.178,7.391" /></g><g
           transform="translate(470.1787,43.3096)"
           id="g164"><path
             id="path166"
             style="fill:#727273;fill-opacity:1;fill-rule:nonzero;stroke:none"
             d="M 0,0 C 0.779,0 1.212,-0.375 1.212,-1.213 V -2.194 C 1.212,-3.031 0.779,-3.407 0,-3.407 h -17.38 c -1.934,0 -2.742,0.78 -2.742,2.685 v 6.063 c 0,0.808 0.375,1.212 1.212,1.212 h 2.107 c 0.838,0 1.213,-0.404 1.213,-1.212 V 0.52 c 0,-0.462 0.145,-0.52 0.52,-0.52 z m -4.591,19.603 c 0,0.49 -0.115,0.577 -0.548,0.577 h -13.627 c -0.779,0 -1.212,0.375 -1.212,1.213 v 0.923 c 0,0.837 0.433,1.212 1.212,1.212 h 15.937 c 1.905,0 2.887,-0.952 2.887,-2.886 v -1.559 c 0,-1.56 -0.26,-4.417 -0.954,-6.323 h 3.234 c 0.78,0 1.213,-0.375 1.213,-1.212 V 10.624 C 3.551,9.787 3.118,9.411 2.338,9.411 H -2.454 V 4.647 c 0,-0.807 -0.375,-1.211 -1.213,-1.211 H -5.63 c -0.837,0 -1.213,0.404 -1.213,1.211 V 9.411 H -9.787 V 4.647 C -9.787,3.84 -10.162,3.436 -11,3.436 h -1.963 c -0.837,0 -1.212,0.404 -1.212,1.211 v 4.764 h -8.084 c -0.779,0 -1.213,0.376 -1.213,1.213 v 0.924 c 0,0.837 0.434,1.212 1.213,1.212 h 16.802 c 0.578,1.386 0.866,3.811 0.866,5.283 z" /></g><g
           transform="translate(491.4043,64.2402)"
           id="g168"><path
             id="path170"
             style="fill:#727273;fill-opacity:1;fill-rule:nonzero;stroke:none"
             d="m 0,0 c 0,-3.32 3.897,-5.37 8.574,-6.641 0.75,-0.202 0.924,-0.894 0.635,-1.558 L 8.66,-9.47 c -0.288,-0.634 -0.894,-0.664 -1.529,-0.549 -2.801,0.492 -7.535,2.714 -9.441,5.457 -1.674,-2.656 -6.409,-4.965 -9.527,-5.485 -0.837,-0.144 -1.241,0.145 -1.501,0.693 l -0.462,1.125 c -0.26,0.636 -0.144,1.3 0.577,1.531 5.688,1.732 8.546,3.58 8.546,6.698 v 1.241 c 0,0.78 0.404,1.241 1.241,1.241 h 2.194 C -0.404,2.482 0,2.021 0,1.241 Z m 0.028,-15.879 v -7.679 c 0,-0.808 -0.375,-1.213 -1.212,-1.213 h -2.223 c -0.837,0 -1.212,0.405 -1.212,1.213 v 7.679 h -9.989 c -0.78,0 -1.213,0.376 -1.213,1.213 v 0.981 c 0,0.837 0.433,1.213 1.213,1.213 H 9.988 c 0.78,0 1.213,-0.376 1.213,-1.213 v -0.981 c 0,-0.837 -0.433,-1.213 -1.213,-1.213 z" /></g><g
           transform="translate(537.748,54.251)"
           id="g172"><path
             id="path174"
             style="fill:#727273;fill-opacity:1;fill-rule:nonzero;stroke:none"
             d="m 0,0 c 0,-0.809 -0.375,-1.213 -1.212,-1.213 h -2.05 c -0.838,0 -1.213,0.404 -1.213,1.213 v 11.98 c 0,0.809 0.375,1.213 1.213,1.213 h 2.05 C -0.375,13.193 0,12.789 0,11.98 Z m -14.954,-11.057 c 0,-0.259 0.058,-0.318 0.317,-0.318 h 9.99 c 0.259,0 0.317,0.059 0.317,0.318 v 1.906 h -10.624 z m -0.577,14.088 c 2.05,0 3.521,1.328 3.521,3.378 0,2.05 -1.471,3.378 -3.521,3.378 -2.05,0 -3.523,-1.328 -3.523,-3.378 0,-2.079 1.473,-3.378 3.523,-3.378 M 0,-12.01 c 0,-1.905 -0.809,-2.684 -2.742,-2.684 h -13.8 c -1.935,0 -2.743,0.779 -2.743,2.684 v 8.142 c 0,0.807 0.376,1.212 1.213,1.212 h 1.905 c 0.838,0 1.213,-0.405 1.213,-1.212 V -5.86 H -4.33 v 1.992 c 0,0.807 0.375,1.212 1.213,1.212 h 1.905 C -0.375,-2.656 0,-3.061 0,-3.868 Z m -15.531,25.116 c 4.359,0 7.823,-2.453 7.823,-6.697 0,-4.244 -3.464,-6.698 -7.823,-6.698 -4.36,0 -7.824,2.426 -7.824,6.698 0,4.273 3.464,6.697 7.824,6.697" /></g><g
           transform="translate(561.8906,66.2314)"
           id="g176"><path
             id="path178"
             style="fill:#727273;fill-opacity:1;fill-rule:nonzero;stroke:none"
             d="M 0,0 C 0,0.809 0.375,1.213 1.213,1.213 H 3.32 C 4.157,1.213 4.532,0.809 4.532,0 v -25.549 c 0,-0.808 -0.375,-1.213 -1.212,-1.213 H 1.213 C 0.375,-26.762 0,-26.357 0,-25.549 Z m -14.579,-18.649 c -2.021,0 -3.061,1.039 -3.061,3.031 v 14.319 c 0,0.809 0.376,1.213 1.213,1.213 h 2.108 c 0.837,0 1.213,-0.404 1.213,-1.213 v -13.28 c 0,-0.462 0.085,-0.52 0.519,-0.52 h 0.837 c 3.003,-0.028 6.236,0.318 8.43,0.664 0.924,0.145 1.415,-0.086 1.53,-0.866 l 0.144,-1.096 c 0.116,-0.809 -0.259,-1.213 -0.981,-1.386 -1.963,-0.491 -6.381,-0.866 -9.498,-0.866 z" /></g><g
           transform="translate(589.4961,66.2314)"
           id="g180"><path
             id="path182"
             style="fill:#727273;fill-opacity:1;fill-rule:nonzero;stroke:none"
             d="M 0,0 C 0,0.809 0.376,1.213 1.213,1.213 H 3.32 C 4.157,1.213 4.533,0.809 4.533,0 V -7.679 H 8.17 c 0.78,0 1.213,-0.376 1.213,-1.213 v -1.154 c 0,-0.838 -0.433,-1.213 -1.213,-1.213 H 4.533 v -14.29 c 0,-0.808 -0.376,-1.213 -1.213,-1.213 H 1.213 C 0.376,-26.762 0,-26.357 0,-25.549 Z m -12.76,-3.377 c -0.404,0 -0.462,-0.059 -0.462,-0.462 v -11.519 c 0,-0.405 0.058,-0.462 0.462,-0.462 h 1.155 c 3.002,-0.029 6.236,0.289 8.429,0.664 0.953,0.174 1.415,-0.058 1.53,-0.866 l 0.145,-1.069 c 0.115,-0.865 -0.231,-1.212 -0.981,-1.386 -1.963,-0.49 -6.38,-0.865 -9.498,-0.836 h -2.686 c -2.021,0 -3.06,1.01 -3.06,3.002 v 13.338 c 0,1.992 1.039,3.002 3.06,3.002 h 9.729 c 0.78,0 1.213,-0.375 1.213,-1.213 v -0.981 c 0,-0.837 -0.433,-1.212 -1.213,-1.212 z" /></g></g></g></g></svg>
