<!DOCTYPE svg PUBLIC "-//W3C//DTD SVG 20010904//EN" "http://www.w3.org/TR/2001/REC-SVG-20010904/DTD/svg10.dtd">
<svg version="1.0" xmlns="http://www.w3.org/2000/svg" width="150px" height="150px" viewBox="0 0 1500 1500" preserveAspectRatio="xMidYMid meet">
<g id="layer101" fill="#00adb9" stroke="none">
 <path d="M405 1428 c-2 -7 -13 -78 -25 -158 -11 -80 -32 -191 -45 -247 -14 -57 -22 -109 -19 -116 7 -20 49 -37 89 -37 l35 0 0 -85 0 -85 -45 0 c-63 0 -95 -32 -95 -95 l0 -45 -64 0 -65 0 -7 -46 c-27 -184 81 -327 247 -328 58 0 76 5 140 38 99 52 159 53 261 3 93 -45 125 -51 193 -37 74 15 133 61 168 130 26 51 28 61 24 145 -3 74 -10 102 -35 156 -80 171 -138 382 -177 640 -13 87 -26 163 -30 169 -3 5 -17 10 -30 10 -27 0 -23 14 -80 -290 -22 -119 -43 -205 -54 -219 -60 -84 -165 -86 -218 -5 -9 15 -35 123 -60 252 -23 124 -45 234 -49 244 -6 21 -52 25 -59 6z m305 -888 l0 -170 28 0 c15 0 65 -18 112 -40 47 -22 91 -40 98 -40 7 0 12 -13 12 -30 0 -41 -24 -40 -130 10 -72 34 -95 40 -150 40 -55 0 -78 -6 -150 -40 -105 -49 -130 -51 -130 -11 0 25 5 31 31 36 17 4 56 20 86 36 30 16 73 32 94 35 l39 7 0 168 0 169 30 0 30 0 0 -170z"/>
 <path d="M181 910 c-13 -43 -57 -84 -103 -95 -41 -10 -39 -50 3 -59 40 -8 97 -65 105 -105 5 -24 12 -31 29 -31 18 0 24 7 29 33 8 42 61 95 104 103 47 10 42 38 -11 62 -51 22 -97 74 -97 108 0 19 -5 24 -23 24 -19 0 -26 -8 -36 -40z m65 -91 l32 -31 -34 -35 c-20 -19 -36 -33 -37 -31 -1 2 -15 17 -30 34 l-28 31 28 31 c15 16 30 30 33 31 2 0 19 -13 36 -30z"/>
 <path d="M1290 323 c0 -38 -41 -85 -91 -106 -62 -27 -64 -52 -4 -73 46 -15 83 -54 92 -95 9 -48 44 -39 70 19 22 48 64 82 102 82 16 0 21 6 21 25 0 19 -7 26 -27 31 -47 11 -91 51 -104 94 -10 32 -17 40 -36 40 -15 0 -23 -6 -23 -17z m59 -176 l-32 -34 -33 33 -33 33 32 33 32 33 33 -32 33 -33 -32 -33z"/>
 </g>
<g id="layer102" fill="#000000" stroke="none">
 </g>

</svg>