<!DOCTYPE svg PUBLIC "-//W3C//DTD SVG 20010904//EN" "http://www.w3.org/TR/2001/REC-SVG-20010904/DTD/svg10.dtd">
<svg version="1.0" xmlns="http://www.w3.org/2000/svg" width="150px" height="150px" viewBox="0 0 1500 1500" preserveAspectRatio="xMidYMid meet">
<g id="layer101" fill="#00adb9" stroke="none">
 <path d="M646 1483 c-13 -44 -17 -93 -9 -93 11 0 226 -37 259 -45 24 -5 24 -9 -7 118 l-10 37 -114 0 c-100 0 -114 -2 -119 -17z"/>
 <path d="M609 1311 c-6 -13 -9 -36 -7 -50 3 -24 9 -26 171 -59 93 -18 171 -31 174 -28 7 6 -17 106 -25 107 -4 0 -74 13 -155 28 l-149 28 -9 -26z"/>
 <path d="M577 1163 c-19 -70 -19 -72 15 -78 18 -3 114 -21 213 -39 99 -18 181 -33 182 -32 1 1 -3 21 -9 46 l-10 45 -177 34 c-97 19 -183 36 -193 39 -10 2 -18 -3 -21 -15z"/>
 <path d="M545 1018 c-3 -7 -10 -40 -18 -73 l-13 -60 -34 3 c-19 2 -66 10 -105 18 -100 20 -129 18 -164 -12 -38 -31 -43 -52 -77 -288 -24 -163 -26 -200 -17 -261 20 -137 91 -247 198 -303 68 -36 189 -37 326 -3 l96 23 74 -25 c190 -64 342 -35 466 89 65 64 87 112 103 219 18 118 -1 314 -46 472 -25 92 -76 109 -234 79 -41 -8 -78 -12 -82 -10 -4 3 -8 16 -8 30 0 33 -13 38 -242 79 -223 40 -217 39 -223 23z"/>
 </g>
<g id="layer102" fill="#000000" stroke="none">
 </g>

</svg>