<!DOCTYPE svg PUBLIC "-//W3C//DTD SVG 20010904//EN" "http://www.w3.org/TR/2001/REC-SVG-20010904/DTD/svg10.dtd">
<svg version="1.0" xmlns="http://www.w3.org/2000/svg" width="150px" height="150px" viewBox="0 0 1500 1500" preserveAspectRatio="xMidYMid meet">
<g id="layer101" fill="#00adb9" stroke="none">
 <path d="M415 1395 c-10 -77 10 -363 31 -440 9 -33 31 -85 50 -116 66 -106 55 -209 -39 -344 -84 -122 -117 -177 -111 -187 7 -12 61 -3 184 28 183 47 236 45 532 -22 43 -10 81 -14 85 -11 10 11 -13 53 -77 141 -90 124 -113 181 -108 269 3 62 9 80 40 132 56 90 69 158 75 400 4 183 3 207 -9 190 -36 -50 -73 -182 -113 -404 -14 -79 -34 -160 -45 -181 -75 -147 -258 -145 -325 4 -13 28 -35 116 -49 196 -29 156 -64 290 -95 360 l-19 43 -7 -58z"/>
 <path d="M291 1363 c-17 -43 -49 -189 -61 -283 -30 -224 -59 -321 -135 -452 -52 -89 -64 -136 -65 -233 0 -167 63 -275 199 -339 56 -26 80 -31 164 -34 130 -6 216 19 303 84 42 32 65 30 121 -10 81 -58 160 -79 283 -74 95 3 112 6 172 36 148 73 215 217 189 407 -8 58 -20 92 -45 134 -85 141 -119 241 -141 411 -15 120 -54 309 -73 360 -6 17 -11 -25 -15 -145 -9 -228 -33 -345 -92 -433 -54 -82 -37 -144 88 -320 90 -127 99 -193 36 -246 -49 -41 -84 -42 -242 -5 -193 45 -274 45 -464 0 -161 -38 -199 -36 -245 9 -23 23 -28 37 -28 75 0 55 14 84 92 192 106 148 121 216 64 299 -56 83 -84 227 -88 457 -1 75 -3 137 -4 137 -1 0 -7 -12 -13 -27z"/>
 </g>
<g id="layer102" fill="#000000" stroke="none">
 </g>

</svg>