<!DOCTYPE svg PUBLIC "-//W3C//DTD SVG 20010904//EN" "http://www.w3.org/TR/2001/REC-SVG-20010904/DTD/svg10.dtd">
<svg version="1.0" xmlns="http://www.w3.org/2000/svg" width="150px" height="150px" viewBox="0 0 1500 1500" preserveAspectRatio="xMidYMid meet">
<g id="layer101" fill="#00adb9" stroke="none">
 <path d="M338 1355 c-27 -19 -64 -56 -83 -83 -59 -80 -68 -122 -70 -347 -1 -208 -8 -250 -56 -375 -65 -169 -35 -318 85 -428 79 -72 146 -95 256 -90 73 4 96 10 161 41 100 48 137 48 243 0 77 -36 86 -38 181 -38 86 0 106 4 145 24 105 55 164 127 195 235 22 77 15 147 -25 258 -49 132 -53 161 -55 373 -2 223 -11 268 -68 351 -51 74 -167 144 -167 101 0 -7 11 -64 24 -128 32 -155 50 -325 41 -394 -3 -31 -21 -85 -40 -122 -32 -63 -33 -69 -20 -101 8 -18 24 -47 36 -63 27 -38 19 -76 -16 -85 -29 -7 -50 7 -76 50 -19 31 -18 32 -34 -20 -3 -8 2 -31 10 -51 18 -43 13 -66 -18 -80 -46 -21 -87 35 -87 116 0 38 -2 40 -22 32 -29 -10 -45 -5 -58 20 -16 28 3 55 53 77 64 28 112 76 147 144 26 53 30 72 30 142 0 86 -17 207 -52 374 -21 102 -21 102 -53 102 -18 0 -38 -6 -44 -14 -7 -9 -12 -71 -14 -172 -2 -149 -4 -161 -25 -192 -30 -41 -70 -62 -122 -62 -32 0 -48 7 -78 34 -37 34 -37 34 -42 206 -5 155 -7 173 -24 186 -11 8 -32 14 -47 14 -25 0 -28 -4 -43 -72 -54 -235 -70 -445 -41 -516 37 -88 103 -152 188 -183 48 -17 61 -32 53 -64 -8 -30 -44 -41 -87 -26 -28 10 -30 9 -24 -7 17 -41 29 -143 19 -159 -36 -57 -74 -39 -91 43 -6 32 -18 77 -26 99 -14 40 -14 40 -26 3 -27 -83 -88 -117 -113 -63 -10 21 -8 32 10 64 12 21 27 69 34 108 11 65 10 73 -10 114 -52 108 -51 249 3 515 14 65 25 125 25 132 0 22 -34 12 -82 -23z"/>
 </g>
<g id="layer102" fill="#ffffff" stroke="none">
 </g>

</svg>