<!DOCTYPE svg PUBLIC "-//W3C//DTD SVG 20010904//EN" "http://www.w3.org/TR/2001/REC-SVG-20010904/DTD/svg10.dtd">
<svg version="1.0" xmlns="http://www.w3.org/2000/svg" width="150px" height="150px" viewBox="0 0 1500 1500" preserveAspectRatio="xMidYMid meet">
<g id="layer101" fill="#00adb9" stroke="none">
 <path d="M324 1475 c-56 -57 -143 -298 -184 -511 -35 -185 -72 -425 -77 -504 -12 -177 79 -351 220 -419 82 -40 149 -47 267 -27 l95 17 83 82 c46 45 91 96 100 112 11 20 18 65 22 135 4 89 8 105 23 108 15 3 17 -7 17 -95 0 -137 -10 -165 -88 -245 -36 -37 -63 -70 -61 -71 2 -2 43 -16 91 -32 77 -24 97 -27 190 -23 129 5 191 31 282 117 73 70 100 120 121 220 31 147 15 282 -82 696 -76 328 -120 436 -185 459 -83 29 -133 -45 -212 -315 -41 -136 -90 -192 -169 -192 -94 0 -167 85 -232 269 -21 60 -49 130 -61 156 -43 86 -110 113 -160 63z m804 -561 c5 -39 58 -94 92 -94 14 0 31 -5 38 -12 17 -17 -4 -38 -37 -38 -35 0 -88 -55 -93 -95 -2 -19 -9 -30 -18 -30 -9 0 -16 11 -18 30 -5 41 -57 93 -96 97 -23 2 -31 8 -31 23 0 15 8 21 30 23 40 5 95 58 95 92 0 50 33 53 38 4z m-688 -471 c1 -40 60 -101 102 -105 43 -4 45 -32 3 -36 -40 -5 -105 -67 -105 -102 0 -15 -3 -30 -7 -33 -11 -12 -33 15 -33 41 0 40 -56 92 -98 92 -26 0 -33 4 -30 18 2 11 14 18 33 20 40 5 95 58 95 92 0 30 7 40 27 40 7 0 13 -11 13 -27z"/>
 </g>
<g id="layer102" fill="#ffffff" stroke="none">
 </g>

</svg>