<?xml version="1.0" encoding="UTF-8" standalone="no"?>
<svg
   xmlns:dc="http://purl.org/dc/elements/1.1/"
   xmlns:cc="http://creativecommons.org/ns#"
   xmlns:rdf="http://www.w3.org/1999/02/22-rdf-syntax-ns#"
   xmlns:svg="http://www.w3.org/2000/svg"
   xmlns="http://www.w3.org/2000/svg"
   xmlns:sodipodi="http://sodipodi.sourceforge.net/DTD/sodipodi-0.dtd"
   xmlns:inkscape="http://www.inkscape.org/namespaces/inkscape"
   inkscape:version="1.0 (4035a4fb49, 2020-05-01)"
   sodipodi:docname="정면간판_1.ai"
   viewBox="0 0 1274.4947 177.35333"
   height="177.35333"
   width="1274.4948"
   xml:space="preserve"
   id="svg2"
   version="1.1"><metadata
     id="metadata8"><rdf:RDF><cc:Work
         rdf:about=""><dc:format>image/svg+xml</dc:format><dc:type
           rdf:resource="http://purl.org/dc/dcmitype/StillImage" /><dc:title></dc:title></cc:Work></rdf:RDF></metadata><defs
     id="defs6"><clipPath
       id="clipPath18"
       clipPathUnits="userSpaceOnUse"><path
         id="path16"
         d="M 0,208.49 H 1069.446 V 0 H 0 Z" /></clipPath></defs><sodipodi:namedview
     inkscape:current-layer="g10"
     inkscape:window-maximized="1"
     inkscape:window-y="-9"
     inkscape:window-x="-9"
     inkscape:cy="236.61214"
     inkscape:cx="931.64049"
     inkscape:zoom="0.94744961"
     inkscape:pagecheckerboard="true"
     fit-margin-bottom="0"
     fit-margin-right="0"
     fit-margin-left="0"
     fit-margin-top="0"
     showgrid="false"
     id="namedview4"
     inkscape:window-height="1001"
     inkscape:window-width="1920"
     inkscape:pageshadow="2"
     inkscape:pageopacity="0"
     guidetolerance="10"
     gridtolerance="10"
     objecttolerance="10"
     borderopacity="1"
     bordercolor="#666666"
     pagecolor="#ffffff" /><g
     transform="matrix(1.3333333,0,0,-1.3333333,-77.001331,226.22799)"
     inkscape:label="정면간판_1"
     inkscape:groupmode="layer"
     id="g10"><g
       id="g12"><g
         clip-path="url(#clipPath18)"
         id="g14"><g
           transform="translate(283.3711,128.0771)"
           id="g20"><path
             id="path22"
             style="fill:#727273;fill-opacity:1;fill-rule:nonzero;stroke:none"
             d="M 0,0 H 14.837 V 22.203 H 26.834 V -48.092 H 14.837 V -9.893 H 0 Z m -33.78,-70.19 c -1.122,0 -1.877,0.211 -2.262,0.631 -0.386,0.421 -0.579,1.194 -0.579,2.316 v 26.202 h 11.996 V -60.088 H 28.728 V -70.19 Z m -9.681,66.927 H -15.89 V 9.26 h -30.517 v 9.891 h 39.251 c 1.052,0 1.805,-0.228 2.262,-0.683 0.456,-0.457 0.685,-1.21 0.685,-2.263 V -9.787 c 0,-1.123 -0.229,-1.895 -0.685,-2.316 -0.457,-0.42 -1.21,-0.63 -2.262,-0.63 h -27.466 v -12.102 h 11.26 c 2.034,0 4.349,0.087 6.945,0.263 2.595,0.175 5.226,0.403 7.893,0.684 2.666,0.21 5.262,0.49 7.787,0.842 2.526,0.35 4.736,0.7 6.63,1.052 v -9.786 c -1.825,-0.352 -4.035,-0.685 -6.63,-1 -2.596,-0.316 -5.367,-0.579 -8.313,-0.789 -3.017,-0.282 -6.103,-0.527 -9.261,-0.737 -3.156,-0.211 -6.208,-0.316 -9.155,-0.316 -0.772,0 -1.999,-0.018 -3.683,-0.053 -1.684,-0.036 -3.403,-0.052 -5.156,-0.052 h -4.841 -2.315 c -1.123,0 -1.894,0.21 -2.315,0.631 -0.421,0.421 -0.631,1.193 -0.631,2.316 v 25.571 c 0,1.052 0.21,1.806 0.631,2.263 0.421,0.455 1.192,0.683 2.315,0.683" /></g><g
           transform="translate(238.6626,95.0352)"
           id="g24"><path
             id="path26"
             style="fill:#727272;fill-opacity:1;fill-rule:nonzero;stroke:none"
             d="m 0,0 c 0.005,0 0.282,-0.185 1.248,-0.185 h 7.155 c 1.743,0 3.451,0.016 5.124,0.052 1.7,0.035 2.937,0.053 3.716,0.053 2.9,0 5.946,0.105 9.055,0.313 3.14,0.208 6.242,0.455 9.221,0.733 2.926,0.209 5.698,0.472 8.272,0.785 1.999,0.243 3.778,0.498 5.311,0.763 V 9.26 C 47.616,9.009 45.967,8.758 44.177,8.51 41.658,8.159 39.008,7.872 36.302,7.659 33.66,7.38 30.985,7.148 28.393,6.973 25.785,6.796 23.415,6.707 21.347,6.707 H 8.587 v 15.102 h 28.966 c 0.782,0 1.151,0.147 1.246,0.234 -10e-4,0 0.2,0.259 0.2,1.212 v 25.992 c 0,0.93 -0.221,1.178 -0.247,1.204 -0.021,0.021 -0.27,0.242 -1.199,0.242 H -0.199 V 43.802 H 30.318 V 28.279 H 1.248 c -0.958,0 -1.216,-0.203 -1.218,-0.206 -0.081,-0.088 -0.229,-0.457 -0.229,-1.24 V 1.262 C -0.199,0.286 -0.01,0.014 0,0 M 8.403,-3.185 H 1.248 c -1.552,0 -2.656,0.35 -3.376,1.071 -0.721,0.72 -1.071,1.824 -1.071,3.376 v 25.571 c 0,1.455 0.337,2.528 1.028,3.279 0.728,0.786 1.845,1.167 3.419,1.167 h 26.07 v 9.523 H -3.199 v 12.891 h 40.752 c 1.456,0 2.573,-0.377 3.321,-1.12 0.748,-0.751 1.125,-1.868 1.125,-3.326 V 23.255 c 0,-1.574 -0.381,-2.692 -1.166,-3.417 -0.752,-0.693 -1.825,-1.029 -3.28,-1.029 H 11.587 V 9.707 h 9.76 c 2,0 4.303,0.087 6.843,0.259 2.556,0.173 5.193,0.401 7.837,0.68 2.685,0.212 5.275,0.492 7.737,0.836 2.493,0.345 4.701,0.695 6.564,1.04 l 1.774,0.33 V 0.023 L 50.885,-0.211 C 49.04,-0.566 46.774,-0.908 44.153,-1.228 41.53,-1.546 38.708,-1.813 35.765,-2.023 32.792,-2.301 29.663,-2.55 26.498,-2.761 23.323,-2.973 20.209,-3.08 17.243,-3.08 c -0.766,0 -1.982,-0.018 -3.652,-0.053 -1.694,-0.036 -3.424,-0.052 -5.188,-0.052 M 61.046,-13.55 h 8.996 V 53.745 H 61.046 V 31.542 H 46.208 v -6.893 h 14.838 z m 11.996,-3 H 58.046 V 21.649 H 43.208 V 34.542 H 58.046 V 56.745 H 73.042 Z M 9.779,-35.509 c 0.022,0 0.315,-0.139 1.15,-0.139 h 61.008 v 7.102 H 18.584 V -9.499 H 9.588 v -24.702 c 0,-0.956 0.165,-1.267 0.19,-1.308 z m 65.158,-3.139 H 10.929 c -1.579,0 -2.681,0.366 -3.369,1.12 -0.654,0.711 -0.972,1.8 -0.972,3.327 v 27.702 h 14.996 v -19.047 h 53.353 z" /></g><g
           transform="translate(395.5474,82.0908)"
           id="g28"><path
             id="path30"
             style="fill:#727273;fill-opacity:1;fill-rule:nonzero;stroke:none"
             d="m 0,0 v 36.305 h -24.204 v 9.997 H 0 V 68.189 H 11.891 V 0 Z m -48.723,-24.204 c -1.122,0 -1.877,0.211 -2.262,0.632 -0.386,0.421 -0.578,1.193 -0.578,2.315 V 6.734 h 11.996 v -20.836 h 53.352 v -10.102 z m -9.365,88.605 h 41.146 V 54.299 H -49.354 V 24.624 l 11.471,0.315 c 2.875,0.07 5.803,0.175 8.786,0.316 2.981,0.14 5.805,0.35 8.472,0.632 2.665,0.21 5.103,0.455 7.313,0.736 2.21,0.279 4.015,0.596 5.419,0.947 v -9.681 c -1.193,-0.352 -2.946,-0.702 -5.261,-1.052 -2.315,-0.353 -4.911,-0.668 -7.787,-0.947 -2.947,-0.282 -6.069,-0.527 -9.366,-0.737 -3.298,-0.211 -6.56,-0.316 -9.786,-0.316 -0.773,-0.07 -2.123,-0.123 -4.052,-0.157 -1.93,-0.036 -3.912,-0.053 -5.945,-0.053 h -5.473 -2.63 c -1.123,0 -1.878,0.21 -2.263,0.631 -0.386,0.421 -0.579,1.192 -0.579,2.315 v 43.882 c 0,1.052 0.211,1.806 0.632,2.263 0.421,0.455 1.192,0.683 2.315,0.683" /></g><g
           transform="translate(336.2036,98.3574)"
           id="g32"><path
             id="path34"
             style="fill:#727272;fill-opacity:1;fill-rule:nonzero;stroke:none"
             d="m 0,0 c 0.021,0 0.314,-0.14 1.15,-0.14 h 8.103 c 2.024,0 3.997,0.017 5.917,0.053 1.88,0.033 3.207,0.084 3.945,0.151 L 19.25,0.07 c 3.18,0 6.44,0.106 9.691,0.314 3.278,0.208 6.413,0.455 9.319,0.732 2.841,0.276 5.433,0.592 7.703,0.937 1.612,0.243 2.947,0.488 3.988,0.729 V 9.444 C 48.855,9.236 47.607,9.043 46.22,8.868 44.005,8.586 41.521,8.336 38.836,8.125 36.187,7.845 33.307,7.63 30.317,7.49 27.322,7.349 24.354,7.242 21.497,7.173 L 8.49,6.815 v 32.717 h 32.411 v 7.103 H 1.256 C 0.297,46.635 0.04,46.431 0.038,46.429 -0.043,46.34 -0.191,45.971 -0.191,45.188 V 1.307 C -0.191,0.35 -0.025,0.041 -0.001,0 Z M 9.253,-3.14 H 1.15 c -1.579,0 -2.681,0.367 -3.369,1.119 -0.653,0.711 -0.972,1.8 -0.972,3.328 v 43.881 c 0,1.456 0.337,2.528 1.028,3.279 0.727,0.786 1.845,1.168 3.419,1.168 H 43.901 V 36.532 H 11.49 V 9.899 l 9.929,0.273 c 2.84,0.069 5.785,0.175 8.757,0.315 2.932,0.137 5.753,0.347 8.385,0.625 2.676,0.211 5.113,0.456 7.281,0.732 2.134,0.27 3.898,0.578 5.245,0.915 l 1.864,0.467 V 0.5 L 51.875,0.183 C 50.602,-0.191 48.816,-0.55 46.414,-0.913 44.091,-1.267 41.444,-1.589 38.547,-1.87 35.608,-2.15 32.441,-2.399 29.132,-2.61 25.841,-2.82 22.539,-2.928 19.317,-2.93 18.489,-3.001 17.149,-3.053 15.225,-3.087 13.288,-3.123 11.297,-3.14 9.253,-3.14 m 51.591,-11.627 h 8.891 v 65.19 H 60.844 V 28.535 H 36.64 v -6.997 h 24.204 z m 11.891,-3 H 57.844 V 18.538 H 33.64 V 31.535 H 57.844 V 53.423 H 72.735 Z M 9.472,-38.831 c 0.021,0 0.315,-0.14 1.149,-0.14 h 61.008 v 7.103 H 18.276 v 20.836 H 9.28 v -26.491 c 0,-0.956 0.166,-1.267 0.19,-1.308 z m 65.157,-3.14 H 10.621 c -1.579,0 -2.681,0.367 -3.369,1.12 -0.653,0.711 -0.972,1.801 -0.972,3.328 v 29.491 h 14.996 v -20.836 h 53.353 z" /></g><path
           id="path36"
           style="fill:#727273;fill-opacity:1;fill-rule:nonzero;stroke:none"
           d="M 506.672,56.099 H 494.57 v 94.182 h 12.102 z m -64.612,92.919 h 29.254 v -9.681 H 442.06 Z m -10.945,-17.364 h 51.248 v -10.101 h -19.152 v -3.894 c 0,-6.945 1.999,-13.488 5.998,-19.626 3.999,-6.139 9.471,-10.962 16.416,-14.47 l -8.208,-8.208 c -4.911,3.158 -9.086,6.594 -12.522,10.313 -3.438,3.718 -6.103,7.646 -7.998,11.786 -1.754,-4.069 -4.419,-8.155 -7.998,-12.26 -3.577,-4.103 -8.102,-8.12 -13.574,-12.048 l -9.576,8.103 c 7.645,4.419 13.627,9.663 17.941,15.731 4.315,6.068 6.507,12.96 6.578,20.679 v 3.894 h -19.153 z" /><path
           id="path38"
           style="fill:#727272;fill-opacity:1;fill-rule:nonzero;stroke:none"
           d="m 443.56,140.837 h 26.254 v 6.681 H 443.56 Z m 29.254,-3 H 440.56 v 12.681 h 32.254 z m -44.494,-56.799 7.076,-5.987 c 4.936,3.629 9.094,7.369 12.373,11.129 3.458,3.966 6.065,7.96 7.751,11.868 l 1.336,3.1 1.405,-3.07 c 1.82,-3.977 4.423,-7.809 7.735,-11.391 3.095,-3.35 6.866,-6.511 11.222,-9.41 l 5.913,5.913 c -6.309,3.527 -11.409,8.237 -15.178,14.025 -4.142,6.356 -6.242,13.235 -6.242,20.444 v 5.394 h 19.152 v 7.101 h -48.248 v -7.101 h 19.153 v -5.394 c -0.074,-8.01 -2.38,-15.255 -6.855,-21.548 -4.07,-5.724 -9.645,-10.788 -16.593,-15.073 m 6.929,-9.794 -12.097,10.237 1.846,1.067 c 7.424,4.291 13.302,9.439 17.47,15.302 4.113,5.783 6.232,12.453 6.3,19.823 v 2.38 h -19.153 v 13.101 h 54.248 v -13.101 h -19.152 v -2.394 c 0,-6.618 1.936,-12.946 5.755,-18.807 3.833,-5.885 9.161,-10.579 15.836,-13.95 l 1.849,-0.934 -10.527,-10.528 -1.018,0.654 c -4.999,3.213 -9.31,6.764 -12.813,10.556 -2.758,2.982 -5.058,6.137 -6.864,9.411 -1.737,-3.281 -4.049,-6.583 -6.899,-9.852 -3.637,-4.173 -8.291,-8.305 -13.83,-12.282 z M 496.07,57.599 h 9.102 v 91.182 h -9.102 z m 12.102,-3 H 493.07 v 97.182 h 15.102 z" /><g
           transform="translate(611.167,101.874)"
           id="g40"><path
             id="path42"
             style="fill:#727273;fill-opacity:1;fill-rule:nonzero;stroke:none"
             d="m 0,0 h -12.629 v -45.775 h -11.785 v 94.287 h 11.785 V 10.523 H 0 Z m -37.779,43.04 c 1.052,0 1.804,-0.228 2.263,-0.685 0.455,-0.457 0.684,-1.209 0.684,-2.261 -0.211,-8.419 -0.633,-16.435 -1.264,-24.046 -0.631,-7.613 -1.509,-15.032 -2.631,-22.257 h -12.207 c 0.422,2.595 0.842,5.525 1.264,8.787 0.42,3.262 0.805,6.611 1.158,10.05 0.28,3.507 0.541,7.015 0.789,10.523 0.244,3.507 0.368,6.804 0.368,9.892 H -83.87 v 9.997 z m -50.827,-59.667 h 17.047 v 29.991 h 11.787 v -29.991 c 1.752,0 4.084,0.088 6.997,0.264 2.912,0.174 5.947,0.368 9.103,0.578 3.156,0.211 6.225,0.456 9.207,0.737 2.983,0.279 5.455,0.595 7.42,0.946 v -9.996 c -2.387,-0.352 -5.332,-0.684 -8.84,-1 -3.51,-0.315 -7.437,-0.615 -11.785,-0.894 -4.281,-0.211 -8.91,-0.404 -13.892,-0.579 -4.982,-0.176 -10.138,-0.263 -15.468,-0.263 h -11.576 z" /></g><g
           transform="translate(561.9893,97.165)"
           id="g44"><path
             id="path46"
             style="fill:#727272;fill-opacity:1;fill-rule:nonzero;stroke:none"
             d="m 0,0 h 9.163 c 1.024,6.789 1.838,13.808 2.424,20.881 0.627,7.558 1.051,15.619 1.259,23.959 0,0.891 -0.222,1.141 -0.246,1.166 -0.111,0.109 -0.496,0.243 -1.202,0.243 h -44.59 V 39.252 H 3.322 v -1.5 C 3.322,34.653 3.197,31.291 2.951,27.756 2.703,24.241 2.441,20.729 2.161,17.218 1.8,13.7 1.409,10.306 0.995,7.096 0.661,4.512 0.327,2.133 0,0 M 11.736,-3 H -3.52 l 0.284,1.74 c 0.41,2.522 0.833,5.462 1.257,8.739 0.41,3.185 0.797,6.553 1.153,10.011 0.275,3.468 0.537,6.972 0.785,10.476 0.202,2.9 0.32,5.68 0.354,8.286 h -36.505 v 12.997 h 47.59 c 1.456,0 2.573,-0.377 3.322,-1.121 0.749,-0.752 1.126,-1.869 1.126,-3.325 C 15.635,36.368 15.208,28.249 14.577,20.633 13.948,13.047 13.059,5.523 11.934,-1.73 Z m -49.664,-17.625 h 10.075 c 5.306,0 10.493,0.088 15.416,0.262 4.923,0.173 9.59,0.367 13.871,0.578 4.226,0.271 8.179,0.572 11.725,0.89 2.871,0.258 5.378,0.531 7.474,0.81 v 6.93 c -1.661,-0.246 -3.597,-0.473 -5.78,-0.677 -2.959,-0.279 -6.071,-0.528 -9.248,-0.741 -3.16,-0.21 -6.198,-0.405 -9.113,-0.578 -2.928,-0.177 -5.312,-0.267 -7.087,-0.267 h -1.5 v 29.991 h -8.786 v -29.991 h -17.047 z m 64.192,-18.941 h 8.785 V 6.209 h 12.629 v 7.523 H 35.049 v 37.989 h -8.785 z m 11.785,-3 H 23.264 v 21.828 l -0.912,-0.135 c -2.383,-0.352 -5.386,-0.691 -8.924,-1.01 -3.572,-0.32 -7.55,-0.623 -11.824,-0.897 -4.317,-0.213 -8.999,-0.408 -13.935,-0.581 -4.958,-0.175 -10.181,-0.264 -15.522,-0.264 h -13.075 v 13.207 h 17.047 v 29.991 h 14.786 v -29.972 c 1.492,0.034 3.303,0.115 5.407,0.242 2.91,0.174 5.942,0.368 9.094,0.578 3.149,0.21 6.233,0.457 9.166,0.733 2.927,0.275 5.381,0.587 7.296,0.93 l 1.396,0.25 V 54.721 H 38.049 V 16.732 H 50.678 V 3.209 H 38.049 Z" /></g><g
           transform="translate(152.4507,147.2422)"
           id="g48"><path
             id="path50"
             style="fill:#ffffff;fill-opacity:1;fill-rule:nonzero;stroke:none"
             d="M 0,0 H -0.641 L -31.807,-4.306 -62.974,0 h -0.642 c -8.805,-1.387 -10.288,-8.508 -10.218,-13.441 l 12.992,-74.167 c 0.905,-1.917 4.139,-7.331 9.483,-0.976 l 13.141,19.314 c 0.235,0.295 2.82,3.446 6.411,3.524 3.589,-0.078 6.176,-3.229 6.409,-3.524 l 13.141,-19.314 c 5.345,-6.355 8.577,-0.941 9.483,0.976 l 12.992,74.167 C 10.29,-8.508 8.806,-1.387 0,0" /></g><g
           transform="translate(147.3501,60.3828)"
           id="g52"><path
             id="path54"
             style="fill:#00adb9;fill-opacity:1;fill-rule:nonzero;stroke:none"
             d="m 0,0 c -0.648,-1.244 -1.481,-2.116 -2.044,-2.116 -0.479,0 -1.424,0.514 -2.654,1.946 l -13.295,19.542 -0.123,0.167 c -0.587,0.74 -3.752,4.434 -8.467,4.643 l -0.124,0.006 -0.125,-0.006 c -4.718,-0.209 -7.881,-3.905 -8.466,-4.644 l -0.067,-0.08 -13.352,-19.628 c -1.229,-1.434 -2.174,-1.946 -2.653,-1.946 -0.564,0 -1.396,0.872 -2.044,2.116 l -13.118,74.885 c -0.034,7.31 3.645,9.496 6.216,10.256 0.594,0.144 1.474,0.338 2.083,0.37 l 23.412,-2.351 -6.163,-1.252 c -1.528,-0.308 -2.515,-1.799 -2.205,-3.326 0.272,-1.336 1.447,-2.26 2.762,-2.26 0.185,0 0.375,0.02 0.563,0.057 l 28.632,5.809 16.634,3.29 c 2.249,-0.375 7.758,-1.66 7.716,-10.593 z M 5.975,91.1 5.756,91.135 H 4.925 L -6.781,88.82 c -0.124,-0.007 -0.25,-0.021 -0.376,-0.048 l -5.167,-1.047 -14.383,-2.844 -31.631,6.254 h -0.833 L -59.39,91.1 c -8.256,-1.302 -12.915,-7.322 -12.782,-16.516 l 0.003,-0.223 13.267,-75.736 0.066,-0.373 0.163,-0.344 c 1.698,-3.599 4.361,-5.668 7.303,-5.668 2.418,0 4.792,1.367 7.059,4.063 l 0.094,0.111 13.393,19.688 c 0.582,0.697 2.271,2.289 4.117,2.437 2.087,-0.164 3.808,-2.077 4.123,-2.446 l 13.307,-19.56 0.08,-0.119 0.092,-0.111 c 2.267,-2.694 4.642,-4.063 7.061,-4.063 2.942,0 5.605,2.069 7.302,5.668 l 0.163,0.344 13.296,75.887 0.037,0.222 0.003,0.223 C 18.89,83.778 14.23,89.798 5.975,91.1" /></g><path
           id="path56"
           style="fill:#d6d6d6;fill-opacity:1;fill-rule:nonzero;stroke:none"
           d="M 183.534,168.006 H 57.751 v 1.665 h 125.783 z" /><path
           id="path58"
           style="fill:#d6d6d6;fill-opacity:1;fill-rule:nonzero;stroke:none"
           d="M 183.534,36.656 H 57.751 v 1.663 h 125.783 z" /><g
           transform="translate(673.5947,54.0801)"
           id="g60"><path
             id="path62"
             style="fill:#00adb9;fill-opacity:1;fill-rule:nonzero;stroke:none"
             d="m 0,0 h 7.33 c 5.264,0 9.126,1.261 11.592,3.783 2.464,2.522 3.696,6.066 3.696,10.633 0,5.317 -1.629,9.1 -4.887,11.35 -3.258,2.249 -7.769,3.304 -13.534,3.169 H 0 Z M -5.326,33.792 H 5.576 c 7.644,0 13.596,-1.654 17.857,-4.959 4.26,-3.307 6.39,-8.095 6.39,-14.365 0,-6.339 -2.13,-11.145 -6.39,-14.416 C 19.172,-3.221 13.22,-4.856 5.576,-4.856 H -5.326 c -0.669,0 -1.118,0.094 -1.347,0.281 -0.23,0.187 -0.345,0.554 -0.345,1.099 v 35.887 c 0,0.512 0.115,0.869 0.345,1.073 0.229,0.205 0.678,0.308 1.347,0.308" /></g><g
           transform="translate(716.1367,65.4805)"
           id="g64"><path
             id="path66"
             style="fill:#00adb9;fill-opacity:1;fill-rule:nonzero;stroke:none"
             d="M 0,0 H 15.978 C 15.81,1.942 15.069,3.535 13.753,4.779 12.438,6.023 10.484,6.646 7.895,6.646 5.389,6.646 3.487,5.964 2.193,4.601 0.897,3.237 0.167,1.704 0,0 m 23.183,-3.118 c 0,-0.478 -0.125,-0.836 -0.376,-1.074 -0.25,-0.239 -0.626,-0.358 -1.128,-0.358 H -0.188 c 0,-2.216 0.658,-4.098 1.974,-5.649 1.316,-1.551 3.54,-2.325 6.673,-2.325 1.795,0 3.31,0.493 4.542,1.482 1.231,0.987 2.162,2.505 2.788,4.55 h 7.394 c -1.17,-3.783 -3.092,-6.511 -5.765,-8.18 -2.673,-1.67 -6.015,-2.505 -10.024,-2.505 -2.548,0 -4.752,0.392 -6.611,1.176 -1.859,0.784 -3.393,1.84 -4.605,3.169 -1.253,1.33 -2.172,2.846 -2.757,4.55 -0.585,1.704 -0.877,3.476 -0.877,5.317 0,1.772 0.313,3.51 0.94,5.214 0.626,1.704 1.567,3.221 2.82,4.55 1.253,1.329 2.829,2.403 4.73,3.221 1.901,0.818 4.124,1.227 6.673,1.227 2.673,0 4.99,-0.376 6.954,-1.125 1.963,-0.75 3.572,-1.772 4.825,-3.067 1.253,-1.296 2.182,-2.821 2.788,-4.576 0.605,-1.755 0.909,-3.622 0.909,-5.597" /></g><g
           transform="translate(752.8535,75.9092)"
           id="g68"><path
             id="path70"
             style="fill:#00adb9;fill-opacity:1;fill-rule:nonzero;stroke:none"
             d="m 0,0 v -2.352 c 0.918,1.023 2.108,1.806 3.571,2.352 1.462,0.545 3.196,0.818 5.2,0.818 3.718,0 6.538,-0.895 8.459,-2.684 1.921,-1.789 2.882,-4.269 2.882,-7.438 v -17.484 h -6.955 v 16.206 c 0,2.521 -0.449,4.285 -1.346,5.291 -0.899,1.005 -2.475,1.508 -4.731,1.508 -1.754,0 -3.394,-0.639 -4.918,-1.917 -1.525,-1.279 -2.287,-3.297 -2.287,-6.058 v -15.03 H -6.767 V 0 Z" /></g><g
           transform="translate(790.3213,83.373)"
           id="g72"><path
             id="path74"
             style="fill:#00adb9;fill-opacity:1;fill-rule:nonzero;stroke:none"
             d="m 0,0 v -7.311 h 6.892 v -4.652 H 0 v -15.132 c 0,-1.466 0.219,-2.394 0.657,-2.786 0.44,-0.391 1.159,-0.588 2.162,-0.588 0.584,0 1.263,0.034 2.036,0.103 0.773,0.067 1.577,0.289 2.413,0.664 v -4.601 c -0.711,-0.238 -1.578,-0.417 -2.6,-0.537 -1.024,-0.118 -1.87,-0.179 -2.538,-0.179 -1.212,0 -2.36,0.103 -3.446,0.307 -1.086,0.205 -2.027,0.58 -2.82,1.125 -0.794,0.511 -1.42,1.21 -1.88,2.096 -0.46,0.886 -0.688,1.994 -0.688,3.323 v 16.205 h -6.078 v 4.652 h 6.078 V 0 Z" /></g><g
           transform="translate(806.6748,56.7383)"
           id="g76"><path
             id="path78"
             style="fill:#00adb9;fill-opacity:1;fill-rule:nonzero;stroke:none"
             d="M 0,0 C 0,-1.533 0.428,-2.548 1.284,-3.041 2.14,-3.536 3.445,-3.782 5.2,-3.782 c 1.629,0 2.954,0.237 3.979,0.715 1.022,0.477 1.826,1.125 2.412,1.943 0.542,0.817 0.918,1.746 1.128,2.786 0.208,1.039 0.313,2.121 0.313,3.246 H 9.461 C 7.998,4.908 6.557,4.771 5.138,4.499 3.717,4.26 2.506,3.791 1.503,3.093 0.501,2.395 0,1.363 0,0 m 12.844,9.509 v 1.176 c -0.167,1.874 -0.742,3.127 -1.723,3.757 -0.982,0.63 -2.412,0.946 -4.292,0.946 C 5.2,15.388 3.894,15.114 2.913,14.57 1.931,14.024 1.336,12.78 1.127,10.838 h -7.268 c 0.083,1.601 0.522,2.982 1.316,4.141 0.793,1.158 1.796,2.113 3.008,2.863 1.211,0.716 2.578,1.252 4.103,1.61 1.525,0.358 3.08,0.537 4.668,0.537 3.76,0 6.798,-0.793 9.116,-2.378 2.319,-1.584 3.456,-3.944 3.415,-7.08 V -3.067 c 0,-0.614 0.021,-1.312 0.063,-2.096 0.041,-0.783 0.188,-1.602 0.438,-2.454 h -6.829 l -0.062,2.556 C 12.594,-5.81 11.549,-6.56 9.962,-7.31 8.374,-8.06 6.557,-8.435 4.511,-8.435 c -4.01,0 -6.966,0.742 -8.866,2.224 -1.901,1.482 -2.851,3.587 -2.851,6.314 0,1.84 0.627,3.467 1.88,4.881 1.253,1.414 2.902,2.48 4.95,3.196 1.085,0.409 2.265,0.707 3.54,0.894 1.274,0.188 2.516,0.315 3.728,0.384 1.169,0.033 2.276,0.051 3.32,0.051 z" /></g><path
           id="path80"
           style="fill:#00adb9;fill-opacity:1;fill-rule:nonzero;stroke:none"
           d="m 840.759,49.224 h -6.83 v 39.159 h 6.83 z" /><g
           transform="translate(902.2852,77.4424)"
           id="g82"><path
             id="path84"
             style="fill:#00adb9;fill-opacity:1;fill-rule:nonzero;stroke:none"
             d="m 0,0 h -7.331 c -0.418,2.25 -1.483,3.86 -3.195,4.831 -1.713,0.972 -3.759,1.457 -6.141,1.457 -2.465,0 -4.521,-0.443 -6.171,-1.329 -1.65,-0.887 -2.956,-2.045 -3.916,-3.476 -1.003,-1.431 -1.714,-3.05 -2.131,-4.857 -0.418,-1.807 -0.626,-3.647 -0.626,-5.521 0,-1.909 0.208,-3.766 0.626,-5.572 0.417,-1.806 1.128,-3.426 2.131,-4.856 0.96,-1.432 2.266,-2.582 3.916,-3.451 1.65,-0.87 3.706,-1.304 6.171,-1.304 2.382,0 4.407,0.469 6.078,1.406 1.67,0.937 2.84,2.7 3.509,5.291 h 7.33 c -0.292,-1.942 -0.939,-3.639 -1.941,-5.087 -1.003,-1.448 -2.278,-2.65 -3.823,-3.603 -1.546,-0.989 -3.28,-1.721 -5.2,-2.199 -1.922,-0.477 -3.947,-0.715 -6.078,-0.715 -3.551,0 -6.59,0.546 -9.116,1.635 -2.528,1.091 -4.606,2.574 -6.235,4.448 -1.628,1.84 -2.819,3.97 -3.571,6.39 -0.752,2.419 -1.128,4.959 -1.128,7.617 0,2.556 0.386,5.052 1.159,7.49 0.773,2.436 1.974,4.592 3.603,6.467 1.629,1.874 3.707,3.381 6.234,4.524 2.528,1.142 5.545,1.712 9.054,1.712 2.005,0 3.957,-0.222 5.858,-0.664 C -9.033,10.19 -7.311,9.509 -5.765,8.589 -4.22,7.669 -2.936,6.501 -1.911,5.087 -0.888,3.673 -0.251,1.977 0,0" /></g><path
           id="path86"
           style="fill:#00adb9;fill-opacity:1;fill-rule:nonzero;stroke:none"
           d="m 915.066,49.224 h -6.83 v 39.159 h 6.83 z" /><path
           id="path88"
           style="fill:#00adb9;fill-opacity:1;fill-rule:nonzero;stroke:none"
           d="m 922.772,76.574 h 6.83 V 49.223 h -6.83 z m 7.081,5.674 h -7.33 v 5.675 h 7.33 z" /><g
           transform="translate(944.3252,75.9092)"
           id="g90"><path
             id="path92"
             style="fill:#00adb9;fill-opacity:1;fill-rule:nonzero;stroke:none"
             d="m 0,0 v -2.352 c 0.918,1.023 2.108,1.806 3.571,2.352 1.462,0.545 3.196,0.818 5.2,0.818 3.718,0 6.538,-0.895 8.459,-2.684 1.921,-1.789 2.882,-4.269 2.882,-7.438 v -17.484 h -6.955 v 16.206 c 0,2.521 -0.449,4.285 -1.346,5.291 -0.899,1.005 -2.475,1.508 -4.731,1.508 -1.754,0 -3.394,-0.639 -4.918,-1.917 -1.525,-1.279 -2.287,-3.297 -2.287,-6.058 v -15.03 H -6.767 V 0 Z" /></g><path
           id="path94"
           style="fill:#00adb9;fill-opacity:1;fill-rule:nonzero;stroke:none"
           d="m 972.521,76.574 h 6.83 V 49.223 h -6.83 z m 7.08,5.674 h -7.33 v 5.675 h 7.33 z" /><g
           transform="translate(1013.4961,66.1963)"
           id="g96"><path
             id="path98"
             style="fill:#00adb9;fill-opacity:1;fill-rule:nonzero;stroke:none"
             d="m 0,0 h -7.268 c -0.167,2.249 -0.804,3.8 -1.911,4.651 -1.107,0.852 -2.725,1.279 -4.855,1.279 -2.256,0 -4.064,-0.887 -5.42,-2.659 -1.358,-1.772 -2.036,-4.089 -2.036,-6.952 0,-2.829 0.667,-5.13 2.005,-6.901 1.336,-1.772 3.132,-2.658 5.388,-2.658 1.963,0 3.519,0.434 4.667,1.302 1.149,0.87 1.869,2.446 2.162,4.73 h 7.394 c -0.627,-3.579 -2.215,-6.255 -4.762,-8.026 -2.549,-1.772 -5.639,-2.659 -9.273,-2.659 -2.506,0 -4.69,0.392 -6.548,1.176 -1.858,0.784 -3.414,1.84 -4.667,3.169 -1.213,1.33 -2.121,2.846 -2.726,4.55 -0.606,1.704 -0.909,3.477 -0.909,5.317 0,1.772 0.323,3.51 0.972,5.214 0.646,1.704 1.598,3.221 2.85,4.55 1.294,1.329 2.892,2.403 4.793,3.221 1.901,0.818 4.105,1.227 6.611,1.227 1.754,0 3.425,-0.239 5.012,-0.716 C -6.934,9.338 -5.535,8.656 -4.323,7.771 -3.111,6.884 -2.12,5.784 -1.347,4.473 -0.574,3.16 -0.125,1.669 0,0" /></g><g
           transform="translate(666.8193,102.5762)"
           id="g100"><path
             id="path102"
             style="fill:#00adb9;fill-opacity:1;fill-rule:nonzero;stroke:none"
             d="m 0,0 c -0.861,0 -1.442,0.121 -1.736,0.361 -0.297,0.243 -0.446,0.715 -0.446,1.42 V 49.847 H 6.95 V 6.264 H 34.911 V 0 Z" /></g><g
           transform="translate(667.1377,105.0762)"
           id="g104"><path
             id="path106"
             style="fill:#00adb9;fill-opacity:1;fill-rule:nonzero;stroke:none"
             d="M 0,0 H 32.093 V 1.264 H 4.132 V 44.847 H 0 Z M 37.093,-5 H -0.318 c -0.939,0 -2.304,0.096 -3.319,0.926 C -4.541,-3.337 -5,-2.208 -5,-0.719 V 49.847 H 9.132 V 6.264 h 27.961 z" /></g><g
           transform="translate(716.7607,127.499)"
           id="g108"><path
             id="path110"
             style="fill:#00adb9;fill-opacity:1;fill-rule:nonzero;stroke:none"
             d="m 0,0 c 0,-2.594 0.309,-5.077 0.929,-7.451 0.619,-2.373 1.63,-4.462 3.032,-6.265 1.398,-1.803 3.203,-3.229 5.412,-4.286 2.21,-1.054 4.875,-1.583 8.001,-1.583 3.072,0 5.711,0.529 7.92,1.583 2.208,1.057 4.013,2.483 5.414,4.286 1.399,1.803 2.437,3.892 3.111,6.265 0.673,2.374 1.011,4.857 1.011,7.451 0,2.55 -0.338,4.999 -1.011,7.352 -0.674,2.35 -1.712,4.426 -3.111,6.232 -1.401,1.8 -3.206,3.25 -5.414,4.351 -2.209,1.098 -4.848,1.647 -7.92,1.647 -3.126,0 -5.791,-0.549 -8.001,-1.647 C 7.164,16.834 5.359,15.384 3.961,13.584 2.559,11.778 1.548,9.702 0.929,7.352 0.309,4.999 0,2.55 0,0 m 44.365,0 c 0,-3.824 -0.62,-7.33 -1.858,-10.518 -1.241,-3.186 -2.991,-5.922 -5.253,-8.208 -2.317,-2.287 -5.159,-4.054 -8.526,-5.307 -3.369,-1.255 -7.179,-1.88 -11.435,-1.88 -4.363,0 -8.201,0.625 -11.516,1.88 -3.311,1.253 -6.1,3.02 -8.363,5.307 -2.262,2.286 -3.974,5.022 -5.132,8.208 -1.159,3.188 -1.737,6.694 -1.737,10.518 0,3.778 0.578,7.266 1.737,10.451 1.158,3.188 2.87,5.922 5.132,8.208 2.263,2.285 5.052,4.066 8.363,5.341 3.315,1.274 7.153,1.912 11.516,1.912 4.256,0 8.066,-0.638 11.435,-1.912 3.367,-1.275 6.209,-3.056 8.526,-5.341 2.262,-2.286 4.012,-5.02 5.253,-8.208 C 43.745,7.266 44.365,3.778 44.365,0" /></g><g
           transform="translate(734.1348,144.5811)"
           id="g112"><path
             id="path114"
             style="fill:#00adb9;fill-opacity:1;fill-rule:nonzero;stroke:none"
             d="m 0,0 c -2.721,0 -5.038,-0.466 -6.888,-1.386 -1.86,-0.927 -3.391,-2.154 -4.55,-3.646 -1.189,-1.53 -2.06,-3.325 -2.589,-5.335 -0.562,-2.131 -0.847,-4.39 -0.847,-6.715 0,-2.372 0.285,-4.667 0.848,-6.819 0.53,-2.034 1.4,-3.837 2.587,-5.362 1.166,-1.504 2.643,-2.669 4.517,-3.566 1.861,-0.887 4.192,-1.338 6.922,-1.338 2.678,0 4.98,0.451 6.844,1.339 1.87,0.895 3.348,2.061 4.516,3.564 1.195,1.539 2.097,3.361 2.681,5.414 0.606,2.143 0.915,4.421 0.915,6.768 0,2.301 -0.308,4.543 -0.914,6.664 -0.583,2.029 -1.486,3.842 -2.684,5.389 -1.16,1.489 -2.693,2.717 -4.553,3.644 C 4.958,-0.466 2.668,0 0,0 m 0,-39.167 c -3.481,0 -6.535,0.614 -9.077,1.826 -2.559,1.224 -4.682,2.91 -6.312,5.011 -1.602,2.06 -2.773,4.473 -3.475,7.165 -0.67,2.565 -1.01,5.285 -1.01,8.083 0,2.755 0.34,5.443 1.012,7.989 0.701,2.664 1.871,5.063 3.474,7.128 1.624,2.09 3.734,3.791 6.272,5.055 C -6.566,4.358 -3.5,5 0,5 3.447,5 6.486,4.358 9.033,3.091 c 2.537,-1.265 4.648,-2.965 6.274,-5.053 1.591,-2.055 2.782,-4.434 3.542,-7.079 0.735,-2.57 1.107,-5.275 1.107,-8.041 0,-2.809 -0.372,-5.545 -1.105,-8.133 -0.761,-2.674 -1.953,-5.068 -3.542,-7.116 -1.634,-2.102 -3.756,-3.786 -6.31,-5.008 C 6.455,-38.552 3.429,-39.167 0,-39.167 M -0.081,6.33 c -4.033,0 -7.607,-0.587 -10.618,-1.746 -2.965,-1.141 -5.484,-2.745 -7.485,-4.766 -1.998,-2.019 -3.531,-4.476 -4.558,-7.303 -1.053,-2.894 -1.587,-6.122 -1.587,-9.597 0,-3.517 0.534,-6.768 1.587,-9.663 1.028,-2.829 2.561,-5.286 4.559,-7.304 1.995,-2.016 4.508,-3.607 7.471,-4.728 3.012,-1.14 6.588,-1.718 10.631,-1.718 3.94,0 7.494,0.579 10.561,1.723 3.022,1.124 5.593,2.72 7.644,4.744 1.986,2.007 3.567,4.483 4.68,7.336 1.119,2.882 1.687,6.116 1.687,9.61 0,3.452 -0.568,6.663 -1.688,9.545 -1.11,2.85 -2.692,5.326 -4.7,7.356 C 16.067,1.826 13.491,3.435 10.468,4.58 7.399,5.741 3.85,6.33 -0.081,6.33 m 0,-51.825 c -4.65,0 -8.822,0.687 -12.4,2.042 -3.639,1.376 -6.753,3.357 -9.256,5.887 -2.509,2.535 -4.428,5.601 -5.704,9.112 -1.253,3.445 -1.888,7.271 -1.888,11.372 0,4.059 0.635,7.863 1.888,11.306 1.275,3.508 3.194,6.574 5.704,9.111 2.503,2.528 5.611,4.518 9.242,5.916 3.589,1.38 7.765,2.079 12.414,2.079 4.537,0 8.683,-0.698 12.319,-2.074 3.68,-1.394 6.841,-3.378 9.397,-5.899 2.514,-2.541 4.468,-5.589 5.828,-9.081 1.346,-3.464 2.028,-7.284 2.028,-11.358 0,-4.116 -0.682,-7.959 -2.028,-11.423 -1.361,-3.496 -3.315,-6.544 -5.807,-9.061 -2.577,-2.545 -5.744,-4.52 -9.43,-5.892 -3.628,-1.352 -7.769,-2.037 -12.307,-2.037" /></g><g
           transform="translate(809.5322,117.873)"
           id="g116"><path
             id="path118"
             style="fill:#00adb9;fill-opacity:1;fill-rule:nonzero;stroke:none"
             d="M 0,0 2.666,-4.88 2.423,0.198 V 34.55 h 8.971 v -47.936 c 0,-0.701 -0.149,-1.175 -0.446,-1.418 -0.297,-0.24 -0.847,-0.362 -1.656,-0.362 H 2.828 c -0.81,0 -1.402,0.131 -1.778,0.395 -0.378,0.264 -0.648,0.637 -0.809,1.124 l -23.354,33.031 -2.666,4.88 0.241,-5.077 v -34.484 h -8.97 v 48.066 c 0,0.66 0.135,1.121 0.403,1.384 0.271,0.263 0.836,0.397 1.698,0.397 h 6.223 c 0.753,0 1.321,-0.145 1.698,-0.429 0.375,-0.288 0.673,-0.649 0.888,-1.09 z" /></g><g
           transform="translate(812.0791,105.2163)"
           id="g120"><path
             id="path122"
             style="fill:#00adb9;fill-opacity:1;fill-rule:nonzero;stroke:none"
             d="m 0,0 c 0.074,-0.005 0.168,-0.009 0.281,-0.009 h 1.243 l -6.193,11.335 -23.63,33.077 -0.091,0.185 c -0.019,0.039 -0.04,0.074 -0.062,0.104 -0.062,0.008 -0.152,0.015 -0.278,0.015 h -1.001 L -23.535,33.366 -0.05,0.149 Z M 2.995,-0.009 H 6.347 V 44.707 H 2.376 V 12.915 Z m -37.55,-0.131 h 3.97 v 31.924 l -0.614,12.923 h -3.356 z m 8.97,-5 h -13.97 v 50.565 c 0,1.35 0.386,2.415 1.148,3.166 1.035,1.001 2.466,1.116 3.453,1.116 h 6.224 c 1.303,0 2.381,-0.314 3.202,-0.933 0.639,-0.491 1.146,-1.085 1.521,-1.777 L -2.624,17.065 V 49.707 H 11.347 V -0.729 c 0,-1.484 -0.458,-2.612 -1.362,-3.352 C 9.199,-4.717 8.173,-5.009 6.745,-5.009 H 0.281 c -1.349,0 -2.4,0.277 -3.214,0.847 -0.7,0.491 -1.245,1.17 -1.592,1.98 l -21.06,29.786 z" /></g><g
           transform="translate(845.9756,108.8398)"
           id="g124"><path
             id="path126"
             style="fill:#00adb9;fill-opacity:1;fill-rule:nonzero;stroke:none"
             d="m 0,0 h 9.456 c 6.786,0 11.77,1.626 14.949,4.88 3.179,3.251 4.768,7.822 4.768,13.713 0,6.856 -2.103,11.736 -6.304,14.636 -4.202,2.904 -10.02,4.264 -17.455,4.089 H 0 Z M -6.869,43.583 H 7.192 c 9.859,0 17.537,-2.134 23.032,-6.398 5.494,-4.263 8.243,-10.439 8.243,-18.526 0,-8.176 -2.749,-14.375 -8.243,-18.593 -5.495,-4.221 -13.173,-6.33 -23.032,-6.33 H -6.869 c -0.861,0 -1.442,0.121 -1.737,0.362 -0.297,0.242 -0.445,0.714 -0.445,1.42 v 46.284 c 0,0.66 0.148,1.121 0.445,1.385 0.295,0.262 0.876,0.396 1.737,0.396" /></g><g
           transform="translate(848.4756,111.3398)"
           id="g128"><path
             id="path130"
             style="fill:#00adb9;fill-opacity:1;fill-rule:nonzero;stroke:none"
             d="m 0,0 h 6.956 c 6.057,0 10.485,1.389 13.161,4.127 2.73,2.791 4.056,6.705 4.056,11.966 0,6.037 -1.709,10.152 -5.224,12.579 -3.737,2.582 -9.13,3.813 -15.976,3.647 H 0 Z M 6.956,-5 H -5 v 42.318 h 7.914 c 0.385,0.01 0.821,0.015 1.254,0.015 7.326,0 13.256,-1.529 17.622,-4.547 4.898,-3.382 7.383,-8.998 7.383,-16.693 0,-6.54 -1.844,-11.742 -5.481,-15.461 C 20.041,-3.105 14.41,-5 6.956,-5 M -9.051,-6.264 H 4.692 c 9.251,0 16.489,1.956 21.508,5.813 4.89,3.754 7.267,9.187 7.267,16.61 0,7.338 -2.38,12.752 -7.276,16.55 -5.022,3.898 -12.255,5.874 -21.499,5.874 H -9.051 Z m 13.743,-5 H -9.369 c -0.936,0 -2.297,0.096 -3.314,0.921 -0.909,0.742 -1.368,1.871 -1.368,3.361 v 46.284 c 0,1.402 0.432,2.497 1.284,3.254 1.038,0.921 2.436,1.027 3.398,1.027 H 4.692 c 10.38,0 18.645,-2.33 24.565,-6.923 6.111,-4.742 9.21,-11.639 9.21,-20.501 0,-8.956 -3.103,-15.879 -9.221,-20.576 -5.914,-4.543 -14.175,-6.847 -24.554,-6.847" /></g><g
           transform="translate(905.7744,127.499)"
           id="g132"><path
             id="path134"
             style="fill:#00adb9;fill-opacity:1;fill-rule:nonzero;stroke:none"
             d="m 0,0 c 0,-2.594 0.311,-5.077 0.93,-7.451 0.619,-2.373 1.629,-4.462 3.031,-6.265 1.399,-1.803 3.203,-3.229 5.414,-4.286 2.208,-1.054 4.874,-1.583 8.001,-1.583 3.069,0 5.709,0.529 7.919,1.583 2.209,1.057 4.013,2.483 5.414,4.286 1.399,1.803 2.437,3.892 3.111,6.265 0.673,2.374 1.01,4.857 1.01,7.451 0,2.55 -0.337,4.999 -1.01,7.352 -0.674,2.35 -1.712,4.426 -3.111,6.232 -1.401,1.8 -3.205,3.25 -5.414,4.351 -2.21,1.098 -4.85,1.647 -7.919,1.647 -3.127,0 -5.793,-0.549 -8.001,-1.647 C 7.164,16.834 5.36,15.384 3.961,13.584 2.559,11.778 1.549,9.702 0.93,7.352 0.311,4.999 0,2.55 0,0 m 44.365,0 c 0,-3.824 -0.62,-7.33 -1.857,-10.518 -1.24,-3.186 -2.991,-5.922 -5.253,-8.208 -2.317,-2.287 -5.158,-4.054 -8.526,-5.307 -3.368,-1.255 -7.179,-1.88 -11.435,-1.88 -4.364,0 -8.201,0.625 -11.517,1.88 -3.311,1.253 -6.098,3.02 -8.361,5.307 -2.265,2.286 -3.977,5.022 -5.133,8.208 -1.158,3.188 -1.737,6.694 -1.737,10.518 0,3.778 0.579,7.266 1.737,10.451 1.156,3.188 2.868,5.922 5.133,8.208 2.263,2.285 5.05,4.066 8.361,5.341 3.316,1.274 7.153,1.912 11.517,1.912 4.256,0 8.067,-0.638 11.435,-1.912 3.368,-1.275 6.209,-3.056 8.526,-5.341 2.262,-2.286 4.013,-5.02 5.253,-8.208 C 43.745,7.266 44.365,3.778 44.365,0" /></g><g
           transform="translate(923.1504,144.5811)"
           id="g136"><path
             id="path138"
             style="fill:#00adb9;fill-opacity:1;fill-rule:nonzero;stroke:none"
             d="m 0,0 c -2.722,0 -5.039,-0.466 -6.888,-1.386 -1.86,-0.926 -3.392,-2.153 -4.553,-3.647 -1.187,-1.528 -2.058,-3.323 -2.587,-5.334 -0.563,-2.136 -0.848,-4.396 -0.848,-6.715 0,-2.366 0.285,-4.661 0.849,-6.82 0.53,-2.034 1.4,-3.838 2.586,-5.361 1.168,-1.505 2.645,-2.67 4.518,-3.565 1.86,-0.888 4.191,-1.339 6.923,-1.339 2.677,0 4.979,0.451 6.843,1.34 1.869,0.894 3.347,2.06 4.516,3.563 1.195,1.539 2.097,3.361 2.681,5.414 0.606,2.141 0.914,4.418 0.914,6.768 0,2.303 -0.308,4.545 -0.913,6.664 -0.583,2.029 -1.486,3.842 -2.684,5.389 -1.161,1.49 -2.693,2.717 -4.553,3.644 C 4.956,-0.466 2.666,0 0,0 m 0,-39.167 c -3.483,0 -6.538,0.615 -9.078,1.827 -2.557,1.222 -4.68,2.907 -6.312,5.009 -1.602,2.06 -2.772,4.472 -3.475,7.166 -0.671,2.572 -1.011,5.291 -1.011,8.083 0,2.749 0.341,5.436 1.012,7.988 0.703,2.667 1.872,5.065 3.474,7.13 1.626,2.091 3.738,3.792 6.275,5.054 C -6.568,4.357 -3.502,5 0,5 3.445,5 6.484,4.358 9.032,3.091 c 2.536,-1.264 4.647,-2.964 6.274,-5.053 1.591,-2.055 2.782,-4.434 3.542,-7.079 0.734,-2.568 1.106,-5.273 1.106,-8.041 0,-2.811 -0.372,-5.547 -1.104,-8.133 -0.761,-2.674 -1.953,-5.068 -3.542,-7.116 -1.634,-2.103 -3.757,-3.787 -6.31,-5.008 C 6.453,-38.553 3.427,-39.167 0,-39.167 M -0.082,6.33 c -4.033,0 -7.606,-0.587 -10.619,-1.746 -2.963,-1.141 -5.481,-2.744 -7.483,-4.766 -2,-2.019 -3.534,-4.476 -4.558,-7.301 -1.054,-2.898 -1.588,-6.127 -1.588,-9.599 0,-3.514 0.534,-6.766 1.587,-9.664 1.026,-2.829 2.56,-5.285 4.558,-7.302 1.997,-2.018 4.51,-3.609 7.471,-4.729 3.012,-1.14 6.589,-1.718 10.632,-1.718 3.941,0 7.495,0.579 10.562,1.723 3.021,1.123 5.591,2.719 7.643,4.744 1.988,2.008 3.569,4.484 4.679,7.335 1.119,2.883 1.687,6.118 1.687,9.611 0,3.451 -0.567,6.663 -1.687,9.546 -1.109,2.848 -2.69,5.323 -4.7,7.355 C 16.065,1.826 13.49,3.436 10.468,4.58 7.399,5.741 3.85,6.33 -0.082,6.33 m 0,-51.825 c -4.649,0 -8.822,0.687 -12.401,2.042 -3.637,1.375 -6.75,3.356 -9.254,5.887 -2.511,2.533 -4.431,5.6 -5.705,9.114 -1.253,3.446 -1.888,7.272 -1.888,11.37 0,4.057 0.635,7.86 1.888,11.305 1.273,3.51 3.193,6.577 5.706,9.113 2.502,2.528 5.611,4.518 9.239,5.915 3.59,1.38 7.766,2.079 12.415,2.079 4.538,0 8.684,-0.698 12.32,-2.074 3.679,-1.393 6.839,-3.378 9.396,-5.899 2.516,-2.543 4.47,-5.591 5.828,-9.081 1.346,-3.464 2.027,-7.285 2.027,-11.358 0,-4.115 -0.681,-7.958 -2.026,-11.422 -1.36,-3.495 -3.315,-6.543 -5.808,-9.062 -2.578,-2.545 -5.744,-4.521 -9.429,-5.892 -3.628,-1.352 -7.769,-2.037 -12.308,-2.037" /></g><g
           transform="translate(998.5449,117.873)"
           id="g140"><path
             id="path142"
             style="fill:#00adb9;fill-opacity:1;fill-rule:nonzero;stroke:none"
             d="M 0,0 2.667,-4.88 2.426,0.198 V 34.55 h 8.97 v -47.936 c 0,-0.701 -0.15,-1.175 -0.447,-1.418 -0.295,-0.24 -0.846,-0.362 -1.656,-0.362 H 2.83 c -0.808,0 -1.402,0.131 -1.778,0.395 -0.378,0.264 -0.649,0.637 -0.808,1.124 l -23.356,33.031 -2.665,4.88 0.242,-5.077 v -34.484 h -8.971 v 48.066 c 0,0.66 0.134,1.121 0.405,1.384 0.268,0.263 0.833,0.397 1.696,0.397 h 6.222 c 0.755,0 1.321,-0.145 1.699,-0.429 0.376,-0.288 0.673,-0.649 0.888,-1.09 z" /></g><g
           transform="translate(1001.0957,105.2163)"
           id="g144"><path
             id="path146"
             style="fill:#00adb9;fill-opacity:1;fill-rule:nonzero;stroke:none"
             d="m 0,0 c 0.074,-0.005 0.167,-0.009 0.279,-0.009 h 1.243 l -6.195,11.335 -23.629,33.078 -0.092,0.188 c -0.018,0.038 -0.038,0.071 -0.059,0.1 -0.063,0.007 -0.153,0.015 -0.28,0.015 h -0.998 L -23.538,33.366 -0.048,0.145 Z M 2.989,-0.009 H 6.345 V 44.707 H 2.375 V 12.915 Z M -34.557,-0.14 h 3.971 v 31.924 l -0.616,12.923 h -3.355 z m 8.971,-5 h -13.971 v 50.565 c 0,1.359 0.392,2.429 1.163,3.179 1.007,0.987 2.445,1.103 3.438,1.103 h 6.223 c 1.302,0 2.379,-0.313 3.201,-0.931 0.641,-0.492 1.149,-1.087 1.524,-1.78 L -2.625,17.062 v 32.645 h 13.97 V -0.729 c 0,-1.484 -0.458,-2.612 -1.363,-3.352 C 9.203,-4.716 8.176,-5.009 6.742,-5.009 H 0.279 c -1.349,0 -2.4,0.277 -3.214,0.847 -0.702,0.493 -1.248,1.173 -1.593,1.983 l -21.058,29.78 z" /></g></g></g></g></svg>
