<?xml version="1.0" encoding="UTF-8" standalone="no"?>
<svg
   xmlns:dc="http://purl.org/dc/elements/1.1/"
   xmlns:cc="http://creativecommons.org/ns#"
   xmlns:rdf="http://www.w3.org/1999/02/22-rdf-syntax-ns#"
   xmlns:svg="http://www.w3.org/2000/svg"
   xmlns="http://www.w3.org/2000/svg"
   xmlns:sodipodi="http://sodipodi.sourceforge.net/DTD/sodipodi-0.dtd"
   xmlns:inkscape="http://www.inkscape.org/namespaces/inkscape"
   inkscape:version="1.0 (4035a4fb49, 2020-05-01)"
   sodipodi:docname="포인트간판.ai"
   viewBox="0 0 657.63867 657.63867"
   height="657.63867"
   width="657.63867"
   xml:space="preserve"
   id="svg2"
   version="1.1"><metadata
     id="metadata8"><rdf:RDF><cc:Work
         rdf:about=""><dc:format>image/svg+xml</dc:format><dc:type
           rdf:resource="http://purl.org/dc/dcmitype/StillImage" /><dc:title></dc:title></cc:Work></rdf:RDF></metadata><defs
     id="defs6"><clipPath
       id="clipPath18"
       clipPathUnits="userSpaceOnUse"><path
         id="path16"
         d="M 0,493.229 H 493.229 V 0 H 0 Z" /></clipPath></defs><sodipodi:namedview
     inkscape:current-layer="g10"
     inkscape:window-maximized="1"
     inkscape:window-y="-9"
     inkscape:window-x="-9"
     inkscape:cy="280.75097"
     inkscape:cx="328.81934"
     inkscape:zoom="1.2620912"
     showgrid="false"
     id="namedview4"
     inkscape:window-height="1001"
     inkscape:window-width="1920"
     inkscape:pageshadow="2"
     inkscape:pageopacity="0"
     guidetolerance="10"
     gridtolerance="10"
     objecttolerance="10"
     borderopacity="1"
     bordercolor="#666666"
     pagecolor="#ffffff" /><g
     transform="matrix(1.3333333,0,0,-1.3333333,0,657.63867)"
     inkscape:label="포인트간판"
     inkscape:groupmode="layer"
     id="g10"><g
       id="g12"><g
         clip-path="url(#clipPath18)"
         id="g14"><g
           transform="translate(185.4805,361.0244)"
           id="g20"><path
             id="path22"
             style="fill:#727273;fill-opacity:1;fill-rule:nonzero;stroke:none"
             d="m 0,0 h 12.269 v 18.359 h 9.919 V -39.766 H 12.269 V -8.18 H 0 Z m -27.932,-58.038 c -0.927,0 -1.551,0.174 -1.87,0.522 -0.319,0.348 -0.478,0.987 -0.478,1.914 v 21.666 h 9.919 v -15.749 h 44.116 v -8.353 z m -8.005,55.341 h 22.798 V 7.657 h -25.234 v 8.179 h 32.456 c 0.87,0 1.493,-0.189 1.871,-0.565 0.376,-0.378 0.566,-1 0.566,-1.872 V -8.093 c 0,-0.928 -0.19,-1.565 -0.566,-1.914 -0.378,-0.347 -1.001,-0.521 -1.871,-0.521 h -22.71 v -10.007 h 9.31 c 1.682,0 3.596,0.072 5.743,0.218 2.145,0.143 4.321,0.333 6.526,0.565 2.204,0.174 4.351,0.405 6.439,0.696 2.088,0.289 3.916,0.579 5.482,0.87 v -8.092 c -1.51,-0.291 -3.337,-0.566 -5.482,-0.826 -2.147,-0.262 -4.438,-0.479 -6.874,-0.654 -2.495,-0.232 -5.047,-0.434 -7.658,-0.608 -2.61,-0.174 -5.133,-0.262 -7.569,-0.262 -0.64,0 -1.653,-0.015 -3.046,-0.043 -1.392,-0.03 -2.814,-0.044 -4.264,-0.044 h -4.002 -1.915 c -0.928,0 -1.566,0.175 -1.914,0.523 -0.348,0.347 -0.522,0.985 -0.522,1.914 v 21.144 c 0,0.87 0.174,1.493 0.522,1.871 0.348,0.376 0.986,0.566 1.914,0.566" /></g><g
           transform="translate(278.2363,322.999)"
           id="g24"><path
             id="path26"
             style="fill:#727273;fill-opacity:1;fill-rule:nonzero;stroke:none"
             d="m 0,0 v 30.021 h -20.014 v 8.265 H 0 V 56.385 H 9.832 V 0 Z m -40.287,-20.013 c -0.929,0 -1.553,0.174 -1.871,0.523 -0.32,0.347 -0.479,0.986 -0.479,1.914 V 5.569 h 9.919 v -17.228 h 44.116 v -8.354 z m -7.744,73.266 h 34.021 v -8.354 h -26.8 V 20.361 l 9.485,0.262 c 2.378,0.057 4.8,0.144 7.265,0.261 2.465,0.115 4.8,0.289 7.005,0.521 2.204,0.175 4.22,0.377 6.047,0.61 1.827,0.231 3.32,0.492 4.482,0.783 v -8.005 c -0.988,-0.291 -2.437,-0.581 -4.351,-0.87 -1.914,-0.291 -4.061,-0.553 -6.439,-0.783 -2.436,-0.233 -5.018,-0.436 -7.745,-0.61 -2.726,-0.174 -5.424,-0.26 -8.091,-0.26 -0.639,-0.059 -1.755,-0.103 -3.35,-0.131 -1.597,-0.03 -3.235,-0.043 -4.917,-0.043 h -4.524 -2.176 c -0.928,0 -1.552,0.174 -1.87,0.521 -0.32,0.349 -0.479,0.987 -0.479,1.914 v 36.285 c 0,0.871 0.174,1.493 0.522,1.871 0.348,0.376 0.986,0.566 1.915,0.566" /></g><path
           id="path28"
           style="fill:#727273;fill-opacity:1;fill-rule:nonzero;stroke:none"
           d="m 370.121,301.507 h -10.006 v 77.877 h 10.006 z m -53.426,76.833 h 24.189 v -8.005 h -24.189 z m -9.049,-14.358 h 42.375 v -8.352 h -15.836 v -3.22 c 0,-5.743 1.653,-11.153 4.96,-16.228 3.306,-5.077 7.831,-9.065 13.574,-11.964 l -6.787,-6.787 c -4.062,2.61 -7.513,5.452 -10.355,8.527 -2.843,3.074 -5.047,6.322 -6.613,9.745 -1.45,-3.364 -3.654,-6.743 -6.613,-10.137 -2.958,-3.393 -6.7,-6.714 -11.225,-9.962 l -7.918,6.7 c 6.322,3.654 11.269,7.99 14.836,13.008 3.567,5.017 5.38,10.716 5.438,17.098 v 3.22 h -15.836 z" /><g
           transform="translate(456.5244,339.3584)"
           id="g30"><path
             id="path32"
             style="fill:#727273;fill-opacity:1;fill-rule:nonzero;stroke:none"
             d="m 0,0 h -10.441 v -37.852 h -9.746 v 77.964 h 9.746 V 8.701 H 0 Z m -31.237,35.588 c 0.87,0 1.493,-0.189 1.871,-0.566 0.376,-0.377 0.565,-1.001 0.565,-1.871 -0.174,-6.961 -0.522,-13.588 -1.044,-19.881 -0.522,-6.295 -1.248,-12.43 -2.176,-18.404 h -10.093 c 0.348,2.145 0.696,4.568 1.045,7.266 0.347,2.697 0.666,5.467 0.957,8.309 0.23,2.9 0.448,5.8 0.652,8.702 0.202,2.899 0.305,5.626 0.305,8.178 h -30.194 v 8.267 z m -42.028,-49.336 h 14.096 V 11.05 h 9.746 v -24.798 c 1.449,0 3.378,0.071 5.786,0.217 2.407,0.144 4.916,0.304 7.527,0.478 2.61,0.175 5.147,0.377 7.614,0.61 2.465,0.231 4.51,0.492 6.134,0.783 v -8.267 c -1.973,-0.291 -4.409,-0.565 -7.309,-0.826 -2.901,-0.261 -6.149,-0.509 -9.746,-0.74 -3.538,-0.174 -7.367,-0.334 -11.485,-0.479 -4.119,-0.145 -8.383,-0.216 -12.791,-0.216 h -9.572 z" /></g><g
           transform="translate(102.6533,368.9688)"
           id="g34"><path
             id="path36"
             style="fill:#ffffff;fill-opacity:1;fill-rule:nonzero;stroke:none"
             d="M 0,0 H -0.452 L -22.447,-3.039 -44.442,0 h -0.454 c -6.213,-0.979 -7.26,-6.005 -7.21,-9.486 l 9.168,-52.342 c 0.639,-1.353 2.921,-5.174 6.693,-0.689 l 9.273,13.631 c 0.166,0.208 1.991,2.432 4.525,2.487 2.533,-0.055 4.358,-2.279 4.523,-2.487 l 9.274,-13.631 c 3.772,-4.485 6.053,-0.664 6.692,0.689 L 7.211,-9.486 C 7.262,-6.005 6.215,-0.979 0,0" /></g><g
           transform="translate(99.0537,307.6689)"
           id="g38"><path
             id="path40"
             style="fill:#00adb9;fill-opacity:1;fill-rule:nonzero;stroke:none"
             d="m 0,0 c -0.457,-0.878 -1.045,-1.493 -1.442,-1.493 -0.338,0 -1.005,0.363 -1.873,1.374 l -9.383,13.791 -0.087,0.118 c -0.414,0.522 -2.648,3.129 -5.975,3.276 l -0.088,0.004 -0.088,-0.004 c -3.33,-0.147 -5.562,-2.755 -5.975,-3.277 l -0.047,-0.057 -9.423,-13.851 c -0.867,-1.012 -1.534,-1.374 -1.872,-1.374 -0.398,0 -0.985,0.615 -1.442,1.493 l -9.258,52.849 c -0.025,5.159 2.572,6.701 4.387,7.237 0.419,0.102 1.04,0.239 1.469,0.262 l 16.523,-1.66 -4.35,-0.882 c -1.078,-0.219 -1.774,-1.27 -1.555,-2.348 0.191,-0.943 1.021,-1.595 1.949,-1.595 0.131,0 0.264,0.014 0.397,0.04 l 20.206,4.1 11.74,2.321 C 5.399,60.06 9.287,59.153 9.258,52.849 Z M 4.217,64.292 4.063,64.316 H 3.476 l -8.261,-1.632 c -0.088,-0.006 -0.177,-0.016 -0.266,-0.035 l -3.646,-0.739 -10.151,-2.007 -22.323,4.413 h -0.588 l -0.154,-0.024 c -5.826,-0.919 -9.114,-5.167 -9.021,-11.655 l 0.002,-0.158 9.364,-53.449 0.046,-0.263 0.115,-0.243 c 1.198,-2.541 3.078,-4 5.154,-4 1.706,0 3.382,0.965 4.982,2.868 l 0.066,0.078 9.452,13.893 c 0.41,0.492 1.603,1.616 2.905,1.721 1.473,-0.116 2.688,-1.466 2.91,-1.727 l 9.391,-13.803 0.057,-0.084 0.064,-0.078 c 1.6,-1.902 3.277,-2.868 4.984,-2.868 2.076,0 3.955,1.459 5.153,4 l 0.115,0.243 9.383,53.555 0.026,0.157 0.002,0.158 c 0.094,6.488 -3.194,10.736 -9.02,11.655" /></g><path
           id="path42"
           style="fill:#d6d6d6;fill-opacity:1;fill-rule:nonzero;stroke:none"
           d="M 124.59,383.622 H 35.821 v 1.175 h 88.769 z" /><path
           id="path44"
           style="fill:#d6d6d6;fill-opacity:1;fill-rule:nonzero;stroke:none"
           d="M 124.59,290.925 H 35.821 v 1.174 h 88.769 z" /><g
           transform="translate(57.1343,121.6563)"
           id="g46"><path
             id="path48"
             style="fill:#00adb9;fill-opacity:1;fill-rule:nonzero;stroke:none"
             d="m 0,0 h 8.656 c 6.215,0 10.776,1.488 13.687,4.467 2.909,2.977 4.365,7.163 4.365,12.555 0,6.279 -1.924,10.746 -5.77,13.402 -3.848,2.655 -9.175,3.902 -15.981,3.742 H 0 Z M -6.289,39.9 H 6.584 c 9.026,0 16.055,-1.952 21.086,-5.855 5.031,-3.903 7.546,-9.558 7.546,-16.962 C 35.216,9.598 32.701,3.924 27.67,0.061 22.639,-3.803 15.61,-5.734 6.584,-5.734 H -6.289 c -0.789,0 -1.319,0.111 -1.59,0.332 -0.272,0.221 -0.407,0.654 -0.407,1.298 v 42.375 c 0,0.603 0.135,1.026 0.407,1.267 0.271,0.241 0.801,0.362 1.59,0.362" /></g><g
           transform="translate(107.3687,135.1172)"
           id="g50"><path
             id="path52"
             style="fill:#00adb9;fill-opacity:1;fill-rule:nonzero;stroke:none"
             d="M 0,0 H 18.865 C 18.668,2.294 17.792,4.175 16.239,5.645 14.686,7.113 12.379,7.848 9.322,7.848 6.362,7.848 4.117,7.042 2.589,5.433 1.06,3.823 0.196,2.012 0,0 m 27.374,-3.682 c 0,-0.564 -0.148,-0.987 -0.444,-1.267 -0.296,-0.282 -0.74,-0.423 -1.332,-0.423 h -25.82 c 0,-2.616 0.777,-4.84 2.33,-6.67 1.554,-1.832 4.181,-2.747 7.879,-2.747 2.12,0 3.909,0.583 5.364,1.751 1.455,1.167 2.553,2.958 3.293,5.372 h 8.73 c -1.382,-4.467 -3.651,-7.687 -6.807,-9.658 -3.157,-1.971 -7.102,-2.958 -11.837,-2.958 -3.009,0 -5.611,0.464 -7.805,1.388 -2.196,0.926 -4.008,2.173 -5.438,3.743 -1.48,1.569 -2.565,3.36 -3.256,5.373 -0.69,2.011 -1.035,4.104 -1.035,6.277 0,2.092 0.37,4.145 1.11,6.157 0.739,2.012 1.849,3.803 3.329,5.372 1.479,1.57 3.341,2.838 5.586,3.804 2.243,0.966 4.87,1.448 7.879,1.448 3.155,0 5.893,-0.443 8.212,-1.328 2.317,-0.886 4.217,-2.093 5.696,-3.622 1.48,-1.529 2.577,-3.33 3.293,-5.402 0.714,-2.074 1.073,-4.277 1.073,-6.61" /></g><g
           transform="translate(150.7222,147.4316)"
           id="g54"><path
             id="path56"
             style="fill:#00adb9;fill-opacity:1;fill-rule:nonzero;stroke:none"
             d="m 0,0 v -2.776 c 1.084,1.207 2.49,2.131 4.217,2.776 1.726,0.644 3.773,0.966 6.14,0.966 4.39,0 7.719,-1.057 9.988,-3.169 2.268,-2.113 3.404,-5.04 3.404,-8.783 v -20.645 h -8.212 v 19.136 c 0,2.977 -0.531,5.059 -1.591,6.247 -1.061,1.186 -2.923,1.781 -5.586,1.781 -2.071,0 -4.008,-0.755 -5.808,-2.263 -1.801,-1.509 -2.7,-3.894 -2.7,-7.154 V -31.631 H -7.99 V 0 Z" /></g><g
           transform="translate(194.9639,156.2451)"
           id="g58"><path
             id="path60"
             style="fill:#00adb9;fill-opacity:1;fill-rule:nonzero;stroke:none"
             d="m 0,0 v -8.633 h 8.138 v -5.492 H 0 v -17.868 c 0,-1.731 0.259,-2.827 0.777,-3.29 0.517,-0.463 1.369,-0.695 2.552,-0.695 0.69,0 1.491,0.04 2.404,0.122 0.913,0.08 1.862,0.341 2.849,0.785 v -5.433 c -0.839,-0.281 -1.862,-0.493 -3.07,-0.635 -1.21,-0.139 -2.208,-0.211 -2.997,-0.211 -1.431,0 -2.787,0.121 -4.069,0.363 -1.283,0.241 -2.393,0.684 -3.329,1.328 -0.938,0.603 -1.678,1.429 -2.22,2.474 -0.543,1.046 -0.814,2.355 -0.814,3.924 v 19.136 h -7.176 v 5.492 h 7.176 V 0 Z" /></g><g
           transform="translate(214.2734,124.7949)"
           id="g62"><path
             id="path64"
             style="fill:#00adb9;fill-opacity:1;fill-rule:nonzero;stroke:none"
             d="m 0,0 c 0,-1.811 0.505,-3.009 1.517,-3.591 1.01,-0.584 2.552,-0.876 4.624,-0.876 1.923,0 3.488,0.281 4.697,0.846 1.208,0.562 2.158,1.327 2.849,2.293 0.64,0.966 1.084,2.062 1.332,3.29 0.246,1.227 0.369,2.505 0.369,3.833 H 11.171 C 9.444,5.795 7.743,5.634 6.066,5.313 4.389,5.03 2.959,4.477 1.775,3.652 0.592,2.827 0,1.609 0,0 m 15.167,11.228 v 1.388 C 14.969,14.829 14.29,16.308 13.132,17.053 11.973,17.797 10.284,18.17 8.064,18.17 6.141,18.17 4.599,17.848 3.44,17.204 2.281,16.56 1.578,15.091 1.332,12.798 H -7.25 c 0.098,1.89 0.616,3.52 1.553,4.889 0.937,1.368 2.12,2.495 3.551,3.38 1.43,0.845 3.045,1.479 4.846,1.902 1.8,0.423 3.637,0.634 5.512,0.634 4.439,0 8.027,-0.936 10.765,-2.807 2.737,-1.871 4.08,-4.658 4.032,-8.36 V -3.621 c 0,-0.725 0.024,-1.55 0.074,-2.476 0.048,-0.924 0.222,-1.89 0.518,-2.897 h -8.065 l -0.074,3.018 C 14.871,-6.86 13.637,-7.746 11.763,-8.632 9.888,-9.517 7.743,-9.96 5.327,-9.96 c -4.735,0 -8.225,0.876 -10.469,2.626 -2.245,1.751 -3.366,4.235 -3.366,7.455 0,2.173 0.74,4.095 2.219,5.765 1.48,1.67 3.428,2.927 5.845,3.772 1.282,0.484 2.675,0.835 4.18,1.057 1.504,0.221 2.971,0.372 4.402,0.453 1.38,0.039 2.688,0.06 3.921,0.06 z" /></g><path
           id="path66"
           style="fill:#00adb9;fill-opacity:1;fill-rule:nonzero;stroke:none"
           d="m 254.52,115.922 h -8.064 v 46.238 h 8.064 z" /><g
           transform="translate(327.1699,149.2422)"
           id="g68"><path
             id="path70"
             style="fill:#00adb9;fill-opacity:1;fill-rule:nonzero;stroke:none"
             d="m 0,0 h -8.655 c -0.494,2.656 -1.752,4.558 -3.774,5.705 -2.023,1.147 -4.439,1.72 -7.25,1.72 -2.911,0 -5.34,-0.524 -7.288,-1.57 -1.948,-1.046 -3.489,-2.414 -4.624,-4.104 -1.183,-1.69 -2.023,-3.603 -2.515,-5.734 -0.494,-2.134 -0.74,-4.307 -0.74,-6.52 0,-2.254 0.246,-4.447 0.74,-6.58 0.492,-2.133 1.332,-4.044 2.515,-5.734 1.135,-1.69 2.676,-3.048 4.624,-4.075 1.948,-1.026 4.377,-1.539 7.288,-1.539 2.811,0 5.203,0.553 7.176,1.66 1.973,1.106 3.354,3.189 4.143,6.248 h 8.656 c -0.346,-2.294 -1.109,-4.296 -2.293,-6.006 -1.184,-1.711 -2.69,-3.13 -4.514,-4.256 -1.824,-1.167 -3.872,-2.031 -6.14,-2.596 -2.269,-0.562 -4.661,-0.845 -7.176,-0.845 -4.194,0 -7.781,0.644 -10.765,1.932 -2.985,1.287 -5.438,3.038 -7.361,5.251 -1.923,2.174 -3.329,4.689 -4.217,7.546 -0.888,2.856 -1.332,5.855 -1.332,8.994 0,3.019 0.456,5.966 1.368,8.844 0.912,2.876 2.331,5.422 4.255,7.636 1.923,2.212 4.376,3.993 7.361,5.341 2.984,1.348 6.548,2.023 10.691,2.023 2.367,0 4.672,-0.263 6.918,-0.785 2.243,-0.524 4.277,-1.328 6.103,-2.414 1.825,-1.087 3.34,-2.466 4.549,-4.135 C -1.048,4.336 -0.296,2.334 0,0" /></g><path
           id="path72"
           style="fill:#00adb9;fill-opacity:1;fill-rule:nonzero;stroke:none"
           d="m 342.261,115.922 h -8.063 v 46.238 h 8.063 z" /><path
           id="path74"
           style="fill:#00adb9;fill-opacity:1;fill-rule:nonzero;stroke:none"
           d="m 351.36,148.217 h 8.064 v -32.295 h -8.064 z m 8.362,6.7 h -8.656 v 6.7 h 8.656 z" /><g
           transform="translate(376.8115,147.4316)"
           id="g76"><path
             id="path78"
             style="fill:#00adb9;fill-opacity:1;fill-rule:nonzero;stroke:none"
             d="m 0,0 v -2.776 c 1.084,1.207 2.49,2.131 4.217,2.776 1.725,0.644 3.773,0.966 6.14,0.966 4.389,0 7.719,-1.057 9.988,-3.169 2.268,-2.113 3.403,-5.04 3.403,-8.783 v -20.645 h -8.212 v 19.136 c 0,2.977 -0.53,5.059 -1.591,6.247 -1.06,1.186 -2.922,1.781 -5.586,1.781 -2.071,0 -4.007,-0.755 -5.807,-2.263 -1.801,-1.509 -2.7,-3.894 -2.7,-7.154 V -31.631 H -7.99 L -7.99,0 Z" /></g><path
           id="path80"
           style="fill:#00adb9;fill-opacity:1;fill-rule:nonzero;stroke:none"
           d="m 410.103,148.217 h 8.064 v -32.295 h -8.064 z m 8.361,6.7 h -8.656 v 6.7 h 8.656 z" /><g
           transform="translate(458.4873,135.9629)"
           id="g82"><path
             id="path84"
             style="fill:#00adb9;fill-opacity:1;fill-rule:nonzero;stroke:none"
             d="m 0,0 h -8.582 c -0.197,2.655 -0.95,4.486 -2.256,5.493 -1.308,1.005 -3.219,1.509 -5.734,1.509 -2.663,0 -4.797,-1.047 -6.4,-3.139 -1.602,-2.093 -2.404,-4.829 -2.404,-8.21 0,-3.341 0.788,-6.056 2.367,-8.149 1.578,-2.093 3.699,-3.139 6.363,-3.139 2.318,0 4.155,0.514 5.511,1.539 1.357,1.027 2.207,2.888 2.553,5.584 h 8.73 c -0.74,-4.225 -2.615,-7.384 -5.623,-9.476 -3.008,-2.093 -6.658,-3.14 -10.949,-3.14 -2.959,0 -5.537,0.464 -7.731,1.389 -2.196,0.926 -4.033,2.173 -5.512,3.742 -1.431,1.569 -2.504,3.36 -3.218,5.373 -0.716,2.012 -1.073,4.104 -1.073,6.277 0,2.092 0.382,4.145 1.146,6.158 0.765,2.011 1.887,3.802 3.367,5.372 1.528,1.569 3.415,2.838 5.66,3.803 2.244,0.966 4.846,1.449 7.805,1.449 2.072,0 4.043,-0.283 5.918,-0.845 1.874,-0.565 3.527,-1.369 4.958,-2.415 C -3.675,8.128 -2.504,6.83 -1.59,5.281 -0.678,3.731 -0.148,1.971 0,0" /></g><g
           transform="translate(49.1387,178.915)"
           id="g86"><path
             id="path88"
             style="fill:#00adb9;fill-opacity:1;fill-rule:nonzero;stroke:none"
             d="M 0,0 C -1.018,0 -1.703,0.143 -2.052,0.427 -2.401,0.713 -2.576,1.271 -2.576,2.102 V 58.857 H 8.207 V 7.395 H 41.223 V 0 Z" /></g><g
           transform="translate(49.5625,181.915)"
           id="g90"><path
             id="path92"
             style="fill:#00adb9;fill-opacity:1;fill-rule:nonzero;stroke:none"
             d="M 0,0 H 37.799 V 1.395 H 4.783 V 52.857 L 0,52.857 Z M 43.799,-6 H -0.424 C -1.538,-6 -3.158,-5.886 -4.37,-4.899 -5.454,-4.013 -6,-2.668 -6,-0.898 V 58.857 H 10.783 V 7.395 h 33.016 z" /></g><g
           transform="translate(108.1074,208.3428)"
           id="g94"><path
             id="path96"
             style="fill:#00adb9;fill-opacity:1;fill-rule:nonzero;stroke:none"
             d="m 0,0 c 0,-3.062 0.366,-5.993 1.099,-8.797 0.73,-2.803 1.922,-5.268 3.579,-7.396 1.653,-2.129 3.784,-3.815 6.392,-5.063 2.609,-1.244 5.756,-1.869 9.447,-1.869 3.627,0 6.742,0.625 9.351,1.869 2.608,1.248 4.738,2.934 6.394,5.063 1.653,2.128 2.876,4.593 3.673,7.396 0.795,2.804 1.193,5.735 1.193,8.797 0,3.011 -0.398,5.903 -1.193,8.682 -0.797,2.775 -2.02,5.227 -3.673,7.358 -1.656,2.126 -3.786,3.839 -6.394,5.138 -2.609,1.297 -5.724,1.945 -9.351,1.945 -3.691,0 -6.838,-0.648 -9.447,-1.945 C 8.462,19.879 6.331,18.166 4.678,16.04 3.021,13.909 1.829,11.457 1.099,8.682 0.366,5.903 0,3.011 0,0 m 52.388,0 c 0,-4.515 -0.733,-8.655 -2.196,-12.418 -1.464,-3.764 -3.53,-6.993 -6.202,-9.692 -2.736,-2.701 -6.093,-4.788 -10.067,-6.267 -3.977,-1.482 -8.476,-2.22 -13.502,-2.22 -5.152,0 -9.685,0.738 -13.597,2.22 -3.913,1.479 -7.204,3.566 -9.876,6.267 -2.672,2.699 -4.692,5.928 -6.06,9.692 -1.367,3.763 -2.05,7.903 -2.05,12.418 0,4.463 0.683,8.578 2.05,12.341 1.368,3.764 3.388,6.993 6.06,9.692 2.672,2.699 5.963,4.801 9.876,6.307 3.912,1.505 8.445,2.258 13.597,2.258 5.026,0 9.525,-0.753 13.502,-2.258 3.974,-1.506 7.331,-3.608 10.067,-6.307 2.672,-2.699 4.738,-5.928 6.202,-9.692 C 51.655,8.578 52.388,4.463 52.388,0" /></g><g
           transform="translate(128.624,228.4658)"
           id="g98"><path
             id="path100"
             style="fill:#00adb9;fill-opacity:1;fill-rule:nonzero;stroke:none"
             d="m 0,0 c -3.204,0 -5.933,-0.549 -8.111,-1.632 -2.188,-1.09 -3.992,-2.534 -5.36,-4.293 -1.397,-1.798 -2.422,-3.911 -3.046,-6.28 -0.663,-2.517 -1,-5.181 -1,-7.918 0,-2.791 0.337,-5.495 1.002,-8.039 0.624,-2.396 1.648,-4.519 3.043,-6.312 1.376,-1.771 3.116,-3.144 5.321,-4.199 2.19,-1.045 4.934,-1.575 8.151,-1.575 3.154,0 5.866,0.53 8.061,1.577 2.199,1.053 3.939,2.426 5.316,4.196 1.405,1.809 2.467,3.954 3.155,6.375 0.716,2.522 1.079,5.206 1.079,7.977 0,2.717 -0.362,5.36 -1.077,7.855 -0.688,2.395 -1.751,4.531 -3.159,6.346 -1.367,1.756 -3.172,3.201 -5.361,4.291 C 5.838,-0.549 3.141,0 0,0 m 0,-46.248 c -4.118,0 -7.731,0.727 -10.738,2.161 -3.026,1.448 -5.538,3.443 -7.47,5.931 -1.897,2.437 -3.282,5.291 -4.113,8.479 -0.793,3.036 -1.196,6.251 -1.196,9.554 0,3.253 0.403,6.432 1.198,9.446 0.831,3.156 2.214,5.993 4.111,8.435 1.925,2.475 4.423,4.487 7.424,5.982 C -7.767,5.24 -4.14,6 0,6 4.076,6 7.671,5.24 10.687,3.741 c 3.001,-1.495 5.499,-3.507 7.425,-5.981 1.882,-2.425 3.29,-5.24 4.189,-8.373 0.87,-3.035 1.31,-6.234 1.31,-9.51 0,-3.325 -0.44,-6.561 -1.307,-9.616 -0.9,-3.166 -2.31,-5.998 -4.19,-8.418 -1.934,-2.488 -4.447,-4.482 -7.467,-5.928 C 7.635,-45.521 4.054,-46.248 0,-46.248 M -0.096,7.475 c -4.758,0 -8.969,-0.693 -12.519,-2.058 -3.495,-1.345 -6.463,-3.235 -8.821,-5.617 -2.355,-2.378 -4.162,-5.275 -5.374,-8.607 -1.24,-3.414 -1.869,-7.221 -1.869,-11.316 0,-4.147 0.629,-7.98 1.87,-11.394 1.211,-3.333 3.019,-6.228 5.373,-8.606 2.353,-2.378 5.315,-4.252 8.804,-5.57 3.549,-1.345 7.766,-2.027 12.536,-2.027 4.65,0 8.84,0.684 12.454,2.031 3.561,1.325 6.591,3.206 9.009,5.591 2.341,2.366 4.204,5.283 5.513,8.645 1.321,3.398 1.991,7.21 1.991,11.33 0,4.068 -0.67,7.854 -1.991,11.254 -1.308,3.36 -3.172,6.277 -5.539,8.669 C 18.944,2.164 15.908,4.061 12.343,5.411 8.726,6.78 4.541,7.475 -0.096,7.475 m 0,-61.195 c -5.499,0 -10.431,0.813 -14.659,2.414 -4.299,1.624 -7.982,3.967 -10.946,6.962 -2.967,2.998 -5.237,6.624 -6.747,10.778 -1.48,4.073 -2.231,8.596 -2.231,13.443 0,4.796 0.751,9.293 2.23,13.365 1.51,4.154 3.78,7.78 6.748,10.779 2.96,2.99 6.638,5.343 10.931,6.996 4.24,1.63 9.177,2.458 14.674,2.458 5.365,0 10.264,-0.826 14.564,-2.453 4.353,-1.648 8.091,-3.996 11.113,-6.976 2.973,-3.004 5.283,-6.609 6.891,-10.74 1.592,-4.096 2.399,-8.614 2.399,-13.429 0,-4.866 -0.807,-9.41 -2.399,-13.505 -1.609,-4.133 -3.919,-7.738 -6.866,-10.716 -3.051,-3.01 -6.795,-5.346 -11.154,-6.968 -4.285,-1.597 -9.181,-2.408 -14.548,-2.408" /></g><g
           transform="translate(217.6504,196.9766)"
           id="g102"><path
             id="path104"
             style="fill:#00adb9;fill-opacity:1;fill-rule:nonzero;stroke:none"
             d="M 0,0 3.149,-5.761 2.863,0.235 v 40.561 h 10.591 v -56.602 c 0,-0.828 -0.175,-1.385 -0.524,-1.673 -0.351,-0.283 -1.002,-0.429 -1.956,-0.429 H 3.341 c -0.955,0 -1.656,0.157 -2.099,0.468 -0.447,0.312 -0.764,0.752 -0.955,1.326 l -27.577,39.004 -3.148,5.76 0.285,-5.995 v -40.717 h -10.591 v 56.755 c 0,0.78 0.158,1.324 0.476,1.636 0.32,0.311 0.986,0.467 2.005,0.467 h 7.347 c 0.89,0 1.56,-0.17 2.005,-0.506 0.443,-0.34 0.794,-0.767 1.049,-1.286 z" /></g><g
           transform="translate(220.6953,182.0771)"
           id="g106"><path
             id="path108"
             style="fill:#00adb9;fill-opacity:1;fill-rule:nonzero;stroke:none"
             d="m 0,0 c 0.081,-0.005 0.179,-0.009 0.296,-0.009 h 1.391 l -7.278,13.312 -27.901,39.057 -0.109,0.222 c -0.018,0.037 -0.037,0.069 -0.057,0.099 -0.07,0.007 -0.17,0.014 -0.303,0.014 h -1.102 L -27.786,39.38 -0.051,0.153 Z M 3.544,-0.009 H 7.409 V 52.695 H 2.818 V 15.206 Z m -44.333,-0.153 h 4.591 v 37.645 l -0.724,15.212 h -3.867 z m 10.591,-6 h -16.591 v 59.755 c 0,1.61 0.462,2.881 1.375,3.776 1.223,1.19 2.929,1.326 4.106,1.326 h 7.347 c 1.552,0 2.835,-0.374 3.812,-1.111 0.757,-0.58 1.359,-1.285 1.806,-2.109 L -3.182,20.252 V 58.695 H 13.409 V -0.906 c 0,-1.766 -0.545,-3.109 -1.62,-3.991 C 10.844,-5.66 9.624,-6.009 7.929,-6.009 H 0.296 c -1.602,0 -2.852,0.331 -3.822,1.013 -0.831,0.58 -1.481,1.388 -1.895,2.351 l -24.777,35.044 z" /></g><g
           transform="translate(260.6846,186.3096)"
           id="g110"><path
             id="path112"
             style="fill:#00adb9;fill-opacity:1;fill-rule:nonzero;stroke:none"
             d="m 0,0 h 11.164 c 8.015,0 13.899,1.921 17.652,5.763 3.754,3.84 5.63,9.237 5.63,16.193 0,8.097 -2.481,13.857 -7.442,17.283 -4.963,3.427 -11.832,5.034 -20.611,4.827 H 0 Z M -8.111,51.463 H 8.492 c 11.641,0 20.705,-2.519 27.195,-7.553 C 42.175,38.875 45.42,31.582 45.42,22.033 45.42,12.381 42.175,5.061 35.687,0.08 29.197,-4.904 20.133,-7.395 8.492,-7.395 H -8.111 c -1.018,0 -1.703,0.143 -2.052,0.427 -0.35,0.286 -0.525,0.844 -0.525,1.675 V 49.36 c 0,0.78 0.175,1.324 0.525,1.636 0.349,0.311 1.034,0.467 2.052,0.467" /></g><g
           transform="translate(263.6846,189.3096)"
           id="g114"><path
             id="path116"
             style="fill:#00adb9;fill-opacity:1;fill-rule:nonzero;stroke:none"
             d="m 0,0 h 8.164 c 7.139,0 12.356,1.635 15.507,4.859 3.214,3.287 4.775,7.899 4.775,14.097 0,7.112 -2.01,11.958 -6.147,14.815 -4.404,3.042 -10.746,4.483 -18.836,4.296 L 0,38.066 Z M 8.164,-6 H -6 v 50.066 h 9.393 c 0.454,0.012 0.971,0.018 1.483,0.018 8.657,0 15.666,-1.809 20.832,-5.376 5.799,-4.004 8.738,-10.649 8.738,-19.752 0,-7.735 -2.181,-13.889 -6.484,-18.291 C 23.64,-3.757 16.979,-6 8.164,-6 m -18.852,-1.395 h 16.18 c 10.911,0 19.446,2.306 25.367,6.854 5.761,4.422 8.561,10.825 8.561,19.574 0,8.65 -2.804,15.03 -8.572,19.507 -5.922,4.594 -14.452,6.923 -25.356,6.923 h -16.18 z m 16.18,-6 h -16.603 c -1.115,0 -2.737,0.115 -3.948,1.102 -1.083,0.887 -1.629,2.23 -1.629,4 V 46.36 c 0,1.664 0.513,2.967 1.526,3.872 1.238,1.104 2.904,1.231 4.051,1.231 H 5.492 c 12.267,0 22.034,-2.753 29.033,-8.183 C 41.755,37.67 45.42,29.513 45.42,19.033 45.42,8.442 41.75,0.256 34.514,-5.3 27.521,-10.671 17.756,-13.395 5.492,-13.395" /></g><g
           transform="translate(331.2949,208.3428)"
           id="g118"><path
             id="path120"
             style="fill:#00adb9;fill-opacity:1;fill-rule:nonzero;stroke:none"
             d="m 0,0 c 0,-3.062 0.364,-5.993 1.097,-8.797 0.73,-2.803 1.924,-5.268 3.58,-7.396 1.651,-2.129 3.783,-3.815 6.392,-5.063 2.607,-1.244 5.756,-1.869 9.448,-1.869 3.625,0 6.741,0.625 9.349,1.869 2.609,1.248 4.738,2.934 6.395,5.063 1.652,2.128 2.876,4.593 3.672,7.396 0.795,2.804 1.193,5.735 1.193,8.797 0,3.011 -0.398,5.903 -1.193,8.682 -0.796,2.775 -2.02,5.227 -3.672,7.358 -1.657,2.126 -3.786,3.839 -6.395,5.138 -2.608,1.297 -5.724,1.945 -9.349,1.945 -3.692,0 -6.841,-0.648 -9.448,-1.945 C 8.46,19.879 6.328,18.166 4.677,16.04 3.021,13.909 1.827,11.457 1.097,8.682 0.364,5.903 0,3.011 0,0 m 52.386,0 c 0,-4.515 -0.733,-8.655 -2.194,-12.418 -1.464,-3.764 -3.533,-6.993 -6.203,-9.692 -2.736,-2.701 -6.092,-4.788 -10.067,-6.267 -3.977,-1.482 -8.478,-2.22 -13.502,-2.22 -5.151,0 -9.685,0.738 -13.597,2.22 -3.912,1.479 -7.204,3.566 -9.877,6.267 -2.672,2.699 -4.691,5.928 -6.058,9.692 -1.369,3.763 -2.053,7.903 -2.053,12.418 0,4.463 0.684,8.578 2.053,12.341 1.367,3.764 3.386,6.993 6.058,9.692 2.673,2.699 5.965,4.801 9.877,6.307 3.912,1.505 8.446,2.258 13.597,2.258 5.024,0 9.525,-0.753 13.502,-2.258 3.975,-1.506 7.331,-3.608 10.067,-6.307 2.67,-2.699 4.739,-5.928 6.203,-9.692 C 51.653,8.578 52.386,4.463 52.386,0" /></g><g
           transform="translate(351.8115,228.4658)"
           id="g122"><path
             id="path124"
             style="fill:#00adb9;fill-opacity:1;fill-rule:nonzero;stroke:none"
             d="m 0,0 c -3.207,0 -5.936,-0.549 -8.111,-1.631 -2.192,-1.091 -3.994,-2.535 -5.36,-4.292 -1.399,-1.801 -2.425,-3.914 -3.048,-6.282 -0.662,-2.512 -0.998,-5.176 -0.998,-7.918 0,-2.796 0.336,-5.5 0.999,-8.039 0.624,-2.395 1.649,-4.518 3.045,-6.312 1.374,-1.771 3.114,-3.143 5.321,-4.199 2.188,-1.045 4.932,-1.575 8.152,-1.575 3.153,0 5.864,0.53 8.058,1.577 2.2,1.053 3.94,2.426 5.318,4.196 1.405,1.81 2.467,3.955 3.154,6.374 0.716,2.526 1.079,5.21 1.079,7.978 0,2.714 -0.362,5.357 -1.077,7.856 -0.686,2.392 -1.749,4.528 -3.159,6.346 -1.367,1.755 -3.173,3.2 -5.36,4.29 C 5.837,-0.549 3.141,0 0,0 m 0,-46.248 c -4.121,0 -7.734,0.727 -10.739,2.162 -3.029,1.448 -5.542,3.443 -7.471,5.931 -1.897,2.437 -3.282,5.292 -4.113,8.478 -0.792,3.031 -1.194,6.246 -1.194,9.554 0,3.258 0.403,6.436 1.196,9.446 0.831,3.155 2.214,5.992 4.112,8.435 1.922,2.473 4.42,4.487 7.425,5.982 C -7.771,5.24 -4.143,6 0,6 4.075,6 7.67,5.24 10.686,3.741 c 2.999,-1.494 5.497,-3.506 7.424,-5.98 1.884,-2.429 3.292,-5.245 4.19,-8.375 0.869,-3.038 1.309,-6.237 1.309,-9.509 0,-3.321 -0.439,-6.556 -1.307,-9.615 -0.898,-3.164 -2.307,-5.996 -4.189,-8.418 -1.936,-2.49 -4.449,-4.485 -7.468,-5.929 C 7.635,-45.521 4.054,-46.248 0,-46.248 M -0.097,7.475 c -4.757,0 -8.969,-0.693 -12.519,-2.058 -3.495,-1.346 -6.464,-3.235 -8.822,-5.618 -2.354,-2.377 -4.161,-5.273 -5.372,-8.606 -1.242,-3.415 -1.872,-7.221 -1.872,-11.316 0,-4.146 0.63,-7.979 1.872,-11.393 1.211,-3.335 3.019,-6.23 5.372,-8.607 2.354,-2.378 5.316,-4.252 8.805,-5.57 3.549,-1.345 7.766,-2.027 12.536,-2.027 4.65,0 8.839,0.684 12.454,2.031 3.56,1.324 6.59,3.205 9.008,5.591 2.344,2.369 4.208,5.286 5.515,8.645 1.319,3.398 1.989,7.212 1.989,11.33 0,4.067 -0.67,7.854 -1.99,11.255 -1.306,3.355 -3.169,6.272 -5.539,8.669 -2.398,2.364 -5.433,4.261 -8.997,5.61 C 8.725,6.78 4.54,7.475 -0.097,7.475 m 0,-61.195 c -5.5,0 -10.431,0.813 -14.66,2.414 -4.298,1.625 -7.981,3.967 -10.945,6.962 -2.968,2.997 -5.237,6.624 -6.746,10.779 -1.482,4.071 -2.234,8.594 -2.234,13.442 0,4.796 0.752,9.294 2.234,13.366 1.508,4.153 3.778,7.779 6.746,10.778 2.96,2.99 6.638,5.343 10.931,6.996 4.241,1.63 9.177,2.458 14.674,2.458 5.365,0 10.265,-0.826 14.564,-2.453 4.352,-1.648 8.091,-3.995 11.112,-6.976 2.977,-3.009 5.287,-6.613 6.893,-10.74 1.591,-4.098 2.397,-8.616 2.397,-13.429 0,-4.864 -0.806,-9.408 -2.396,-13.504 -1.608,-4.13 -3.918,-7.734 -6.868,-10.716 -3.051,-3.011 -6.795,-5.348 -11.154,-6.969 -4.285,-1.597 -9.18,-2.408 -14.548,-2.408" /></g><g
           transform="translate(440.8369,196.9766)"
           id="g126"><path
             id="path128"
             style="fill:#00adb9;fill-opacity:1;fill-rule:nonzero;stroke:none"
             d="M 0,0 3.149,-5.761 2.863,0.235 v 40.561 h 10.591 v -56.602 c 0,-0.828 -0.176,-1.385 -0.524,-1.673 -0.35,-0.283 -1.002,-0.429 -1.957,-0.429 H 3.341 c -0.955,0 -1.656,0.157 -2.1,0.468 -0.445,0.312 -0.764,0.752 -0.954,1.326 l -27.577,39.004 -3.148,5.76 0.285,-5.995 v -40.717 h -10.591 v 56.755 c 0,0.78 0.158,1.324 0.476,1.636 0.318,0.311 0.986,0.467 2.004,0.467 h 7.348 c 0.891,0 1.558,-0.17 2.004,-0.506 0.443,-0.34 0.795,-0.767 1.05,-1.286 z" /></g><g
           transform="translate(443.8818,182.0771)"
           id="g130"><path
             id="path132"
             style="fill:#00adb9;fill-opacity:1;fill-rule:nonzero;stroke:none"
             d="m 0,0 c 0.081,-0.005 0.18,-0.009 0.296,-0.009 h 1.391 l -7.278,13.311 -27.901,39.058 -0.109,0.222 c -0.018,0.037 -0.037,0.069 -0.057,0.099 -0.071,0.007 -0.17,0.014 -0.303,0.014 h -1.102 L -27.785,39.38 -0.05,0.151 Z M 3.544,-0.009 H 7.409 V 52.695 H 2.818 V 15.206 Z m -44.333,-0.153 h 4.591 v 37.645 l -0.724,15.212 h -3.867 z m 10.591,-6 h -16.591 v 59.755 c 0,1.61 0.463,2.881 1.375,3.776 1.215,1.19 2.925,1.326 4.105,1.326 h 7.348 c 1.549,0 2.83,-0.373 3.809,-1.109 0.76,-0.583 1.363,-1.288 1.809,-2.111 L -3.182,20.252 V 58.695 H 13.409 V -0.906 c 0,-1.763 -0.544,-3.105 -1.617,-3.989 C 10.848,-5.66 9.626,-6.009 7.928,-6.009 H 0.296 c -1.601,0 -2.85,0.331 -3.82,1.011 -0.837,0.587 -1.486,1.394 -1.898,2.354 l -24.776,35.043 z" /></g></g></g></g></svg>
